<svg xmlns="http://www.w3.org/2000/svg" width="256.007" height="250.516" viewBox="0 0 256.007 250.516">
  <g id="Group_239" data-name="Group 239" transform="translate(-6696.814 -2526.484)">
    <path id="Path_319" data-name="Path 319" d="M6890.893,2984.676s-84.873,55-75.547,127.362,56.345,116.275,115.1,96.013c16.569-5.713,44.832-15.629,65.915-27.226,52.587-28.922,78.242-48.511,68.78-75.945-10.139-29.544-61.771-19.665-88.129-36.546s-8.512-51.343-9.444-75.464-9.526-30.386-24.449-30.386S6890.893,2984.676,6890.893,2984.676Z" transform="translate(-114.256 -436)" fill="#61b15a" opacity="0.1"/>
    <g id="benefit" transform="translate(6733.345 2617.003)" style="isolation: isolate">
      <path id="Path_320" data-name="Path 320" d="M57.1,23.2H53.46a1.823,1.823,0,0,1-1.82-1.82H48a5.467,5.467,0,0,0,5.46,5.46v3.64H57.1v-3.64a5.46,5.46,0,0,0,0-10.92H53.46a1.82,1.82,0,0,1,0-3.64H57.1a1.823,1.823,0,0,1,1.82,1.82h3.64A5.467,5.467,0,0,0,57.1,8.64V5H53.46V8.64a5.46,5.46,0,0,0,0,10.92H57.1a1.82,1.82,0,0,1,0,3.64Z" transform="translate(37.542 2.28)" fill="#61b15a"/>
      <path id="Path_321" data-name="Path 321" d="M88.362,55.6v3.544l-2.19,20.807A29.2,29.2,0,0,0,66.787,66.871l-.6-.109L65.468,63.9a12.757,12.757,0,0,0,8.19-10.119H73.8A7.273,7.273,0,0,0,77.922,40.51l1.258-2.515a18.043,18.043,0,0,0,.966-2.4,19.993,19.993,0,1,0-5.7-19.6A17.934,17.934,0,0,0,63.065,11.92H59.241A20.127,20.127,0,0,0,43.66,19.368l-.124.025a12.161,12.161,0,0,0-8.491,17.365L36.92,40.51a7.322,7.322,0,0,0-2.148,2.352H30.121V25.414l6.747-6.747-2.574-2.574L21.02,29.367l-7.28-7.28L1.533,34.294l2.574,2.574.533-.533v6.527H1V46.5H33.761a7.288,7.288,0,0,0,7.28,7.28h.146A12.76,12.76,0,0,0,49.377,63.9l-.715,2.861-.6.109A29.207,29.207,0,0,0,28.67,79.952l-2.19-20.807V55.6a5.467,5.467,0,0,0-5.46-5.46H4.64v1.82A9.1,9.1,0,0,0,12.122,60.9l1.192,31.021A13.325,13.325,0,0,0,37.4,99.262v14.58H77.442V99.262a13.324,13.324,0,0,0,24.085-7.344L102.72,60.9a9.1,9.1,0,0,0,7.482-8.936v-1.82H93.822a5.467,5.467,0,0,0-5.46,5.46ZM11.92,42.861H8.28V32.694l3.64-3.64Zm7.28,0H15.56V29.054l3.64,3.64Zm7.28,0h-3.64V32.694l3.64-3.64ZM66.136,70.453l.022.005-1.1,12.051-5.2-5.2,5.584-6.98Zm-8.714,4.075-5.3-6.62.814-3.251c.28.02.559.044.843.044h7.28c.284,0,.562-.024.843-.042l.814,3.251ZM73.8,50.141v-7.28a3.64,3.64,0,0,1,0,7.28Zm20.02-45.5A16.38,16.38,0,1,1,81.009,31.185c.029-.417.073-.832.073-1.249a17.9,17.9,0,0,0-3.529-10.665A16.409,16.409,0,0,1,93.822,4.64Zm-52.781,45.5a3.64,3.64,0,0,1,0-7.28Zm0-13.052v2.131c-.226,0-.44.047-.661.067L38.3,35.131a8.521,8.521,0,0,1,5.95-12.169l1.469-.293.417-.557a16.46,16.46,0,0,1,13.1-6.552h3.824a14.376,14.376,0,0,1,12.859,20.8l-1.462,2.921c-.22-.018-.435-.066-.661-.066a5.467,5.467,0,0,0-5.46-5.46h-.624a22.883,22.883,0,0,1-16.289-6.747l-1.287-1.287-7.5,7.5A5.421,5.421,0,0,0,41.041,37.09Zm3.64,14.872V37.09a1.812,1.812,0,0,1,.533-1.289l4.969-4.969A26.489,26.489,0,0,0,67.717,37.4h.624a1.823,1.823,0,0,1,1.82,1.82v12.74a9.111,9.111,0,0,1-9.1,9.1h-7.28a9.111,9.111,0,0,1-9.1-9.1Zm4.028,18.492.69-.126,5.584,6.98-5.2,5.2-1.1-12.051C48.694,70.457,48.7,70.453,48.709,70.453ZM8.591,53.781H21.021a1.823,1.823,0,0,1,1.82,1.82v1.82h-9.1a5.471,5.471,0,0,1-5.149-3.64ZM41.041,110.2V86.542H37.4v5.031l-2.086,4.17a9.7,9.7,0,0,1-18.362-3.964L15.771,61.062h7.251l3.469,32.95,3.62-.38-.733-6.976a25.551,25.551,0,0,1,15.74-15.267l1.744,19.187,5.766-5.766-2.581,16.772,6.465,8.622Zm12.835-9.581,3.1-20.164.442-.442.442.442,3.1,20.164-3.545,4.727ZM97.89,91.778a9.7,9.7,0,0,1-18.362,3.964l-2.086-4.17V86.542H73.8V110.2H58.331l6.465-8.62L62.215,84.811l5.766,5.766L69.725,71.39a25.56,25.56,0,0,1,15.74,15.267l-.733,6.974,3.62.38,3.469-32.95h7.251ZM101.1,57.421H92V55.6a1.823,1.823,0,0,1,1.82-1.82h12.429A5.471,5.471,0,0,1,101.1,57.421Z" transform="translate(-1 -1)" fill="#61b15a"/>
      <circle id="Ellipse_70" data-name="Ellipse 70" cx="2" cy="2" r="2" transform="translate(46.655 37.997)" fill="#61b15a"/>
      <circle id="Ellipse_71" data-name="Ellipse 71" cx="2" cy="2" r="2" transform="translate(61.655 37.997)" fill="#61b15a"/>
      <path id="Path_322" data-name="Path 322" d="M44.881,30.244,45.942,26H26.719l1.061,4.244a8.814,8.814,0,0,0,17.1,0Zm-13.49-.6h9.881a5.173,5.173,0,0,1-9.881,0Z" transform="translate(20.091 19.501)" fill="#61b15a"/>
    </g>
    <g id="star" transform="translate(6828.301 2572.072) rotate(77)" opacity="0.59">
      <path id="Path_323" data-name="Path 323" d="M.925,8.658c4.08,0,7.4,2.825,7.4,6.3a.865.865,0,0,0,.925.787.864.864,0,0,0,.925-.787c0-3.472,3.319-6.3,7.4-6.3a.864.864,0,0,0,.925-.787.865.865,0,0,0-.925-.787c-4.08,0-7.4-2.825-7.4-6.3A.864.864,0,0,0,9.249,0a.865.865,0,0,0-.925.787c0,3.472-3.319,6.3-7.4,6.3A.865.865,0,0,0,0,7.871.865.865,0,0,0,.925,8.658ZM9.249,4.216a8.746,8.746,0,0,0,4.294,3.654,8.746,8.746,0,0,0-4.294,3.654A8.746,8.746,0,0,0,4.955,7.871,8.745,8.745,0,0,0,9.249,4.216Z" transform="translate(21.799 21.251)" fill="#61b15a"/>
      <path id="Path_324" data-name="Path 324" d="M.787,6.3a3.94,3.94,0,0,1,3.935,3.935.787.787,0,1,0,1.574,0A3.94,3.94,0,0,1,10.232,6.3a.787.787,0,1,0,0-1.574A3.94,3.94,0,0,1,6.3.787a.787.787,0,0,0-1.574,0A3.94,3.94,0,0,1,.787,4.722a.787.787,0,1,0,0,1.574ZM5.509,3.622A5.554,5.554,0,0,0,7.4,5.509,5.553,5.553,0,0,0,5.509,7.4,5.554,5.554,0,0,0,3.622,5.509,5.554,5.554,0,0,0,5.509,3.622Z" transform="translate(0)" fill="#61b15a"/>
      <ellipse id="Ellipse_72" data-name="Ellipse 72" cx="0.661" cy="0.661" rx="0.661" ry="0.661" transform="translate(21.138 21.138)" fill="#61b15a"/>
    </g>
    <g id="star-2" data-name="star" transform="translate(6849.052 2697.382) rotate(51)" opacity="0.82">
      <path id="Path_323-2" data-name="Path 323" d="M.925,8.658c4.08,0,7.4,2.825,7.4,6.3a.865.865,0,0,0,.925.787.864.864,0,0,0,.925-.787c0-3.472,3.319-6.3,7.4-6.3a.864.864,0,0,0,.925-.787.865.865,0,0,0-.925-.787c-4.08,0-7.4-2.825-7.4-6.3A.864.864,0,0,0,9.249,0a.865.865,0,0,0-.925.787c0,3.472-3.319,6.3-7.4,6.3A.865.865,0,0,0,0,7.871.865.865,0,0,0,.925,8.658ZM9.249,4.216a8.746,8.746,0,0,0,4.294,3.654,8.746,8.746,0,0,0-4.294,3.654A8.746,8.746,0,0,0,4.955,7.871,8.745,8.745,0,0,0,9.249,4.216Z" transform="translate(0.66 0.112)" fill="#61b15a"/>
      <ellipse id="Ellipse_72-2" data-name="Ellipse 72" cx="0.661" cy="0.661" rx="0.661" ry="0.661" transform="translate(0)" fill="#61b15a"/>
    </g>
    <g id="star-3" data-name="star" transform="translate(6733.68 2714.405) rotate(14)" opacity="0.59">
      <path id="Path_323-3" data-name="Path 323" d="M.925,8.658c4.08,0,7.4,2.825,7.4,6.3a.865.865,0,0,0,.925.787.864.864,0,0,0,.925-.787c0-3.472,3.319-6.3,7.4-6.3a.864.864,0,0,0,.925-.787.865.865,0,0,0-.925-.787c-4.08,0-7.4-2.825-7.4-6.3A.864.864,0,0,0,9.249,0a.865.865,0,0,0-.925.787c0,3.472-3.319,6.3-7.4,6.3A.865.865,0,0,0,0,7.871.864.864,0,0,0,.925,8.658ZM9.249,4.216a8.746,8.746,0,0,0,4.294,3.654,8.746,8.746,0,0,0-4.294,3.654A8.746,8.746,0,0,0,4.955,7.871,8.745,8.745,0,0,0,9.249,4.216Z" transform="translate(31.095 14.848)" fill="#61b15a"/>
      <path id="Path_324-2" data-name="Path 324" d="M.787,6.3a3.94,3.94,0,0,1,3.935,3.935.787.787,0,1,0,1.574,0A3.94,3.94,0,0,1,10.232,6.3a.787.787,0,0,0,0-1.574A3.94,3.94,0,0,1,6.3.787a.787.787,0,1,0-1.574,0A3.94,3.94,0,0,1,.787,4.722a.787.787,0,0,0,0,1.574ZM5.509,3.622A5.554,5.554,0,0,0,7.4,5.509,5.553,5.553,0,0,0,5.509,7.4,5.554,5.554,0,0,0,3.622,5.509,5.554,5.554,0,0,0,5.509,3.622Z" transform="translate(0 0)" fill="#61b15a"/>
      <ellipse id="Ellipse_72-3" data-name="Ellipse 72" cx="0.661" cy="0.661" rx="0.661" ry="0.661" transform="translate(21.138 21.138)" fill="#61b15a"/>
    </g>
    <g id="star-4" data-name="star" transform="translate(6698.348 2606.452) rotate(8)" opacity="0.59">
      <path id="Path_323-4" data-name="Path 323" d="M.925,8.658c4.08,0,7.4,2.825,7.4,6.3a.865.865,0,0,0,.925.787.864.864,0,0,0,.925-.787c0-3.472,3.319-6.3,7.4-6.3a.864.864,0,0,0,.925-.787.865.865,0,0,0-.925-.787c-4.08,0-7.4-2.825-7.4-6.3A.864.864,0,0,0,9.249,0a.865.865,0,0,0-.925.787c0,3.472-3.319,6.3-7.4,6.3A.865.865,0,0,0,0,7.871.864.864,0,0,0,.925,8.658ZM9.249,4.216a8.746,8.746,0,0,0,4.294,3.654,8.746,8.746,0,0,0-4.294,3.654A8.746,8.746,0,0,0,4.955,7.871,8.745,8.745,0,0,0,9.249,4.216Z" transform="translate(21.799 21.251)" fill="#61b15a"/>
      <path id="Path_324-3" data-name="Path 324" d="M.787,6.3a3.94,3.94,0,0,1,3.935,3.935.787.787,0,1,0,1.574,0A3.94,3.94,0,0,1,10.232,6.3a.787.787,0,0,0,0-1.574A3.94,3.94,0,0,1,6.3.787a.787.787,0,1,0-1.574,0A3.94,3.94,0,0,1,.787,4.722a.787.787,0,0,0,0,1.574ZM5.509,3.622A5.554,5.554,0,0,0,7.4,5.509,5.553,5.553,0,0,0,5.509,7.4,5.554,5.554,0,0,0,3.622,5.509,5.554,5.554,0,0,0,5.509,3.622Z" transform="translate(0)" fill="#61b15a"/>
      <ellipse id="Ellipse_72-4" data-name="Ellipse 72" cx="0.661" cy="0.661" rx="0.661" ry="0.661" transform="translate(21.138 21.138)" fill="#61b15a"/>
    </g>
  </g>
</svg>
