<svg xmlns="http://www.w3.org/2000/svg" width="256.007" height="250.516" viewBox="0 0 256.007 250.516">
  <g id="Group_241" data-name="Group 241" transform="translate(-6965.814 -2526.484)">
    <g id="Group_240" data-name="Group 240" transform="translate(269)">
      <path id="Path_319" data-name="Path 319" d="M6890.893,2984.676s-84.873,55-75.547,127.362,56.345,116.275,115.1,96.013c16.569-5.713,44.832-15.629,65.915-27.226,52.587-28.922,78.242-48.511,68.78-75.945-10.139-29.544-61.771-19.665-88.129-36.546s-8.512-51.343-9.444-75.464-9.526-30.386-24.449-30.386S6890.893,2984.676,6890.893,2984.676Z" transform="translate(-114.256 -436)" fill="#ee0300" opacity="0.1"/>
      <g id="star" transform="translate(6828.301 2572.072) rotate(77)" opacity="0.59">
        <path id="Path_323" data-name="Path 323" d="M.925,8.658c4.08,0,7.4,2.825,7.4,6.3a.865.865,0,0,0,.925.787.864.864,0,0,0,.925-.787c0-3.472,3.319-6.3,7.4-6.3a.864.864,0,0,0,.925-.787.865.865,0,0,0-.925-.787c-4.08,0-7.4-2.825-7.4-6.3A.864.864,0,0,0,9.249,0a.865.865,0,0,0-.925.787c0,3.472-3.319,6.3-7.4,6.3A.865.865,0,0,0,0,7.871.865.865,0,0,0,.925,8.658ZM9.249,4.216a8.746,8.746,0,0,0,4.294,3.654,8.746,8.746,0,0,0-4.294,3.654A8.746,8.746,0,0,0,4.955,7.871,8.745,8.745,0,0,0,9.249,4.216Z" transform="translate(21.799 21.251)" fill="#ee0300"/>
        <path id="Path_324" data-name="Path 324" d="M.787,6.3a3.94,3.94,0,0,1,3.935,3.935.787.787,0,1,0,1.574,0A3.94,3.94,0,0,1,10.232,6.3a.787.787,0,1,0,0-1.574A3.94,3.94,0,0,1,6.3.787a.787.787,0,0,0-1.574,0A3.94,3.94,0,0,1,.787,4.722a.787.787,0,1,0,0,1.574ZM5.509,3.622A5.554,5.554,0,0,0,7.4,5.509,5.553,5.553,0,0,0,5.509,7.4,5.554,5.554,0,0,0,3.622,5.509,5.554,5.554,0,0,0,5.509,3.622Z" transform="translate(0)" fill="#ee0300"/>
        <ellipse id="Ellipse_72" data-name="Ellipse 72" cx="0.661" cy="0.661" rx="0.661" ry="0.661" transform="translate(21.138 21.138)" fill="#61b15a"/>
      </g>
      <g id="star-2" data-name="star" transform="translate(6849.052 2697.382) rotate(51)" opacity="0.82">
        <path id="Path_323-2" data-name="Path 323" d="M.925,8.658c4.08,0,7.4,2.825,7.4,6.3a.865.865,0,0,0,.925.787.864.864,0,0,0,.925-.787c0-3.472,3.319-6.3,7.4-6.3a.864.864,0,0,0,.925-.787.865.865,0,0,0-.925-.787c-4.08,0-7.4-2.825-7.4-6.3A.864.864,0,0,0,9.249,0a.865.865,0,0,0-.925.787c0,3.472-3.319,6.3-7.4,6.3A.865.865,0,0,0,0,7.871.865.865,0,0,0,.925,8.658ZM9.249,4.216a8.746,8.746,0,0,0,4.294,3.654,8.746,8.746,0,0,0-4.294,3.654A8.746,8.746,0,0,0,4.955,7.871,8.745,8.745,0,0,0,9.249,4.216Z" transform="translate(0.66 0.112)" fill="#ee0300"/>
        <ellipse id="Ellipse_72-2" data-name="Ellipse 72" cx="0.661" cy="0.661" rx="0.661" ry="0.661" transform="translate(0)" fill="#61b15a"/>
      </g>
      <g id="star-3" data-name="star" transform="translate(6733.68 2714.405) rotate(14)" opacity="0.59">
        <path id="Path_323-3" data-name="Path 323" d="M.925,8.658c4.08,0,7.4,2.825,7.4,6.3a.865.865,0,0,0,.925.787.864.864,0,0,0,.925-.787c0-3.472,3.319-6.3,7.4-6.3a.864.864,0,0,0,.925-.787.865.865,0,0,0-.925-.787c-4.08,0-7.4-2.825-7.4-6.3A.864.864,0,0,0,9.249,0a.865.865,0,0,0-.925.787c0,3.472-3.319,6.3-7.4,6.3A.865.865,0,0,0,0,7.871.864.864,0,0,0,.925,8.658ZM9.249,4.216a8.746,8.746,0,0,0,4.294,3.654,8.746,8.746,0,0,0-4.294,3.654A8.746,8.746,0,0,0,4.955,7.871,8.745,8.745,0,0,0,9.249,4.216Z" transform="translate(31.095 14.848)" fill="#ee0300"/>
        <path id="Path_324-2" data-name="Path 324" d="M.787,6.3a3.94,3.94,0,0,1,3.935,3.935.787.787,0,1,0,1.574,0A3.94,3.94,0,0,1,10.232,6.3a.787.787,0,0,0,0-1.574A3.94,3.94,0,0,1,6.3.787a.787.787,0,1,0-1.574,0A3.94,3.94,0,0,1,.787,4.722a.787.787,0,0,0,0,1.574ZM5.509,3.622A5.554,5.554,0,0,0,7.4,5.509,5.553,5.553,0,0,0,5.509,7.4,5.554,5.554,0,0,0,3.622,5.509,5.554,5.554,0,0,0,5.509,3.622Z" transform="translate(0 0)" fill="#ee0300"/>
        <ellipse id="Ellipse_72-3" data-name="Ellipse 72" cx="0.661" cy="0.661" rx="0.661" ry="0.661" transform="translate(21.138 21.138)" fill="#61b15a"/>
      </g>
      <g id="star-4" data-name="star" transform="translate(6698.348 2606.452) rotate(8)" opacity="0.59">
        <path id="Path_323-4" data-name="Path 323" d="M.925,8.658c4.08,0,7.4,2.825,7.4,6.3a.865.865,0,0,0,.925.787.864.864,0,0,0,.925-.787c0-3.472,3.319-6.3,7.4-6.3a.864.864,0,0,0,.925-.787.865.865,0,0,0-.925-.787c-4.08,0-7.4-2.825-7.4-6.3A.864.864,0,0,0,9.249,0a.865.865,0,0,0-.925.787c0,3.472-3.319,6.3-7.4,6.3A.865.865,0,0,0,0,7.871.864.864,0,0,0,.925,8.658ZM9.249,4.216a8.746,8.746,0,0,0,4.294,3.654,8.746,8.746,0,0,0-4.294,3.654A8.746,8.746,0,0,0,4.955,7.871,8.745,8.745,0,0,0,9.249,4.216Z" transform="translate(21.799 21.251)" fill="#ee0300"/>
        <path id="Path_324-3" data-name="Path 324" d="M.787,6.3a3.94,3.94,0,0,1,3.935,3.935.787.787,0,1,0,1.574,0A3.94,3.94,0,0,1,10.232,6.3a.787.787,0,0,0,0-1.574A3.94,3.94,0,0,1,6.3.787a.787.787,0,1,0-1.574,0A3.94,3.94,0,0,1,.787,4.722a.787.787,0,0,0,0,1.574ZM5.509,3.622A5.554,5.554,0,0,0,7.4,5.509,5.553,5.553,0,0,0,5.509,7.4,5.554,5.554,0,0,0,3.622,5.509,5.554,5.554,0,0,0,5.509,3.622Z" transform="translate(0)" fill="#ee0300"/>
        <ellipse id="Ellipse_72-4" data-name="Ellipse 72" cx="0.661" cy="0.661" rx="0.661" ry="0.661" transform="translate(21.138 21.138)" fill="#ee0300"/>
      </g>
    </g>
    <g id="Out_line" data-name="Out line" transform="translate(7011.317 2597)">
      <path id="Path_325" data-name="Path 325" d="M133.034,240h-3.356a1.678,1.678,0,0,0,0,3.356h3.356a1.678,1.678,0,0,0,0-3.356Z" transform="translate(-88.507 -177.015)" fill="#ee0300"/>
      <path id="Path_326" data-name="Path 326" d="M209.678,243.356h3.356a1.678,1.678,0,0,0,0-3.356h-3.356a1.678,1.678,0,0,0,0,3.356Z" transform="translate(-151.727 -177.015)" fill="#ee0300"/>
      <path id="Path_327" data-name="Path 327" d="M177.763,255.241a1.678,1.678,0,1,0,3.184-1.061l-1.678-5.034a1.678,1.678,0,1,0-3.184,1.061Z" transform="translate(-126.438 -183.335)" fill="#ee0300"/>
      <ellipse id="Ellipse_73" data-name="Ellipse 73" cx="1.5" cy="2" rx="1.5" ry="2" transform="translate(41.683 66)" fill="#ee0300"/>
      <ellipse id="Ellipse_74" data-name="Ellipse 74" cx="1.5" cy="2" rx="1.5" ry="2" transform="translate(58.683 66)" fill="#ee0300"/>
      <path id="Path_328" data-name="Path 328" d="M169.678,307.356h3.356a1.678,1.678,0,0,0,0-3.356h-3.356a1.678,1.678,0,0,0,0,3.356Z" transform="translate(-120.117 -227.59)" fill="#ee0300"/>
      <path id="Path_329" data-name="Path 329" d="M74.485,180.4a24.6,24.6,0,0,0-11.559-3.692,5.013,5.013,0,0,0-1.317-1.7l-2.427-2.022a16.832,16.832,0,0,0,8.5-11.428h.341a6.71,6.71,0,0,0,3.356-12.521V143.8a7.407,7.407,0,0,0-7.407-7.407h-.176a3.764,3.764,0,0,0-1.1-2.67l-1.076-1.076a15.857,15.857,0,0,0-22.425,0l-4.441,4.441a.407.407,0,0,1-.576,0,3.763,3.763,0,0,0-6.424,2.661v1.474a10.2,10.2,0,0,0,3.009,7.263c.162.162.331.316.5.466a6.711,6.711,0,0,0,3.2,12.61H34.8a16.833,16.833,0,0,0,8.239,11.285,4.757,4.757,0,0,0-1.616,3.8c-.084.006-.167.014-.253.014h-.136A24.608,24.608,0,0,0,17.162,195.3,38.944,38.944,0,0,0,16,204.739v.451h3.356v-.451a35.574,35.574,0,0,1,1.06-8.618,21.141,21.141,0,0,1,9.008-12.642v8.287a1.678,1.678,0,0,0,2.3,1.558l2.233-.893-5.909,8.441L30.8,202.8,41.667,187.27,52.049,193.2a1.678,1.678,0,0,1,.538,2.426L47.7,202.543l2.741,1.937,4.888-6.915a5.026,5.026,0,0,0-.153-6.013l7.24-9.654a5.018,5.018,0,0,0,.855-1.8c.308.027.614.061.92.1L60.8,194.873a45.951,45.951,0,0,0-1.175,10.317h3.356a42.575,42.575,0,0,1,1.087-9.555l1.053-4.562,5.627,2.251a1.678,1.678,0,0,0,2.3-1.558v-8.287a21.141,21.141,0,0,1,9.007,12.638,35.583,35.583,0,0,1,1.061,8.622v.451h3.356v-.451a38.934,38.934,0,0,0-1.161-9.432A24.49,24.49,0,0,0,74.485,180.4Zm-6.466-22.2v-6.712a3.356,3.356,0,1,1,0,6.712ZM31.1,139.746a.407.407,0,0,1,.7-.288,3.768,3.768,0,0,0,5.322,0l4.441-4.441a12.5,12.5,0,0,1,17.679,0l1.076,1.076a.42.42,0,0,1,0,.593l-1.873,1.873a1.678,1.678,0,0,0,2.373,2.373L62,139.746h1.966a4.051,4.051,0,0,1,4.051,4.051v4.339H65.766a5,5,0,0,1-3.56-1.475l-4.746-4.746a1.678,1.678,0,0,0-2.373,0,21.1,21.1,0,0,1-15.018,6.221h-2.05a6.916,6.916,0,0,1-6.916-6.916Zm0,15.1a3.36,3.36,0,0,1,3.356-3.356V158.2A3.36,3.36,0,0,1,31.1,154.849Zm6.712,3.356v-6.717c.068,0,.135,0,.2,0h2.05a24.414,24.414,0,0,0,16.165-6.057l3.6,3.6a8.324,8.324,0,0,0,4.831,2.384V158.2a13.45,13.45,0,0,1-8.372,12.44,5.031,5.031,0,0,0-6.843,1.483l-.354.53-.284-.189a4.811,4.811,0,0,0-1-.511,1.677,1.677,0,0,0-1.044-1.093A13.448,13.448,0,0,1,37.815,158.2Zm3.356,21.815a6.733,6.733,0,0,0,1.406-.149l.014.029-2.8,4.207-.449.642L38.288,180.2a21.279,21.279,0,0,1,2.747-.181Zm-8.39,1.671a21.2,21.2,0,0,1,2.223-.8l1.585,6.869-3.808,1.523Zm26.949-1.805-7.266,9.689-8.9-5.085,2.359-3.538a1.678,1.678,0,0,0,.1-1.681l-1.108-2.215a1.4,1.4,0,0,1,2.03-1.792l1.68,1.12a1.678,1.678,0,0,0,2.327-.465l1.284-1.927a1.678,1.678,0,0,1,2.471-.358l4.75,3.958a1.677,1.677,0,0,1,.268,2.3Zm6.159,7.879,1.585-6.87a21.25,21.25,0,0,1,2.223.8v7.6Z" transform="translate(0 -88.507)" fill="#ee0300"/>
      <path id="Path_330" data-name="Path 330" d="M312.332,16H307.3a19.3,19.3,0,0,0-16.726,28.929l-2.486,7.457a1.678,1.678,0,0,0,1.592,2.209,1.7,1.7,0,0,0,.276-.023l9.59-1.6A19.145,19.145,0,0,0,307.3,54.6h5.034a19.3,19.3,0,0,0,0-38.6ZM323.6,46.57a15.838,15.838,0,0,1-11.273,4.669H307.3a15.816,15.816,0,0,1-6.807-1.521,1.68,1.68,0,0,0-.993-.138L292.151,50.8,294,45.254a1.677,1.677,0,0,0-.175-1.43A15.942,15.942,0,0,1,307.3,19.356h5.034A15.942,15.942,0,0,1,323.6,46.57Z" transform="translate(-214.947)" fill="#ee0300"/>
      <path id="Path_331" data-name="Path 331" d="M363.564,43.716a7.561,7.561,0,0,0-5.382,2.229l-.03.031-.784.825a4.644,4.644,0,1,0,6.585,6.552l.8-.8a1.678,1.678,0,0,0-2.373-2.373l-.8.8a1.288,1.288,0,1,1-1.822-1.822l.03-.031.782-.822a4.255,4.255,0,0,1,6,6.031l-1.822,1.822a9.717,9.717,0,0,0-2.864,6.916,1.678,1.678,0,1,0,3.356,0,6.382,6.382,0,0,1,1.882-4.543l1.822-1.822a7.611,7.611,0,0,0-5.382-12.993Z" transform="translate(-268.696 -21.902)" fill="#ee0300"/>
      <ellipse id="Ellipse_75" data-name="Ellipse 75" cx="2" cy="1.5" rx="2" ry="1.5" transform="translate(92.683 45)" fill="#ee0300"/>
    </g>
  </g>
</svg>
