<svg xmlns="http://www.w3.org/2000/svg" width="256.007" height="250.516" viewBox="0 0 256.007 250.516">
  <g id="Group_257" data-name="Group 257" transform="translate(-7264.814 -2526.484)">
    <g id="Group_242" data-name="Group 242" transform="translate(568)">
      <path id="Path_319" data-name="Path 319" d="M6890.893,2984.676s-84.873,55-75.547,127.362,56.345,116.275,115.1,96.013c16.569-5.713,44.832-15.629,65.915-27.226,52.587-28.922,78.242-48.511,68.78-75.945-10.139-29.544-61.771-19.665-88.129-36.546s-8.512-51.343-9.444-75.464-9.526-30.386-24.449-30.386S6890.893,2984.676,6890.893,2984.676Z" transform="translate(-114.256 -436)" fill="#61b15a" opacity="0.1"/>
      <g id="star" transform="translate(6828.301 2572.072) rotate(77)" opacity="0.59">
        <path id="Path_323" data-name="Path 323" d="M.925,8.658c4.08,0,7.4,2.825,7.4,6.3a.865.865,0,0,0,.925.787.864.864,0,0,0,.925-.787c0-3.472,3.319-6.3,7.4-6.3a.864.864,0,0,0,.925-.787.865.865,0,0,0-.925-.787c-4.08,0-7.4-2.825-7.4-6.3A.864.864,0,0,0,9.249,0a.865.865,0,0,0-.925.787c0,3.472-3.319,6.3-7.4,6.3A.865.865,0,0,0,0,7.871.865.865,0,0,0,.925,8.658ZM9.249,4.216a8.746,8.746,0,0,0,4.294,3.654,8.746,8.746,0,0,0-4.294,3.654A8.746,8.746,0,0,0,4.955,7.871,8.745,8.745,0,0,0,9.249,4.216Z" transform="translate(21.799 21.251)" fill="#61b15a"/>
        <path id="Path_324" data-name="Path 324" d="M.787,6.3a3.94,3.94,0,0,1,3.935,3.935.787.787,0,1,0,1.574,0A3.94,3.94,0,0,1,10.232,6.3a.787.787,0,1,0,0-1.574A3.94,3.94,0,0,1,6.3.787a.787.787,0,0,0-1.574,0A3.94,3.94,0,0,1,.787,4.722a.787.787,0,1,0,0,1.574ZM5.509,3.622A5.554,5.554,0,0,0,7.4,5.509,5.553,5.553,0,0,0,5.509,7.4,5.554,5.554,0,0,0,3.622,5.509,5.554,5.554,0,0,0,5.509,3.622Z" transform="translate(0)" fill="#61b15a"/>
        <ellipse id="Ellipse_72" data-name="Ellipse 72" cx="0.661" cy="0.661" rx="0.661" ry="0.661" transform="translate(21.138 21.138)" fill="#61b15a"/>
      </g>
      <g id="star-2" data-name="star" transform="translate(6849.052 2697.382) rotate(51)" opacity="0.82">
        <path id="Path_323-2" data-name="Path 323" d="M.925,8.658c4.08,0,7.4,2.825,7.4,6.3a.865.865,0,0,0,.925.787.864.864,0,0,0,.925-.787c0-3.472,3.319-6.3,7.4-6.3a.864.864,0,0,0,.925-.787.865.865,0,0,0-.925-.787c-4.08,0-7.4-2.825-7.4-6.3A.864.864,0,0,0,9.249,0a.865.865,0,0,0-.925.787c0,3.472-3.319,6.3-7.4,6.3A.865.865,0,0,0,0,7.871.865.865,0,0,0,.925,8.658ZM9.249,4.216a8.746,8.746,0,0,0,4.294,3.654,8.746,8.746,0,0,0-4.294,3.654A8.746,8.746,0,0,0,4.955,7.871,8.745,8.745,0,0,0,9.249,4.216Z" transform="translate(0.66 0.112)" fill="#61b15a"/>
        <ellipse id="Ellipse_72-2" data-name="Ellipse 72" cx="0.661" cy="0.661" rx="0.661" ry="0.661" transform="translate(0)" fill="#61b15a"/>
      </g>
      <g id="star-3" data-name="star" transform="translate(6733.68 2714.405) rotate(14)" opacity="0.59">
        <path id="Path_323-3" data-name="Path 323" d="M.925,8.658c4.08,0,7.4,2.825,7.4,6.3a.865.865,0,0,0,.925.787.864.864,0,0,0,.925-.787c0-3.472,3.319-6.3,7.4-6.3a.864.864,0,0,0,.925-.787.865.865,0,0,0-.925-.787c-4.08,0-7.4-2.825-7.4-6.3A.864.864,0,0,0,9.249,0a.865.865,0,0,0-.925.787c0,3.472-3.319,6.3-7.4,6.3A.865.865,0,0,0,0,7.871.864.864,0,0,0,.925,8.658ZM9.249,4.216a8.746,8.746,0,0,0,4.294,3.654,8.746,8.746,0,0,0-4.294,3.654A8.746,8.746,0,0,0,4.955,7.871,8.745,8.745,0,0,0,9.249,4.216Z" transform="translate(31.095 14.848)" fill="#61b15a"/>
        <path id="Path_324-2" data-name="Path 324" d="M.787,6.3a3.94,3.94,0,0,1,3.935,3.935.787.787,0,1,0,1.574,0A3.94,3.94,0,0,1,10.232,6.3a.787.787,0,0,0,0-1.574A3.94,3.94,0,0,1,6.3.787a.787.787,0,1,0-1.574,0A3.94,3.94,0,0,1,.787,4.722a.787.787,0,0,0,0,1.574ZM5.509,3.622A5.554,5.554,0,0,0,7.4,5.509,5.553,5.553,0,0,0,5.509,7.4,5.554,5.554,0,0,0,3.622,5.509,5.554,5.554,0,0,0,5.509,3.622Z" transform="translate(0 0)" fill="#61b15a"/>
        <ellipse id="Ellipse_72-3" data-name="Ellipse 72" cx="0.661" cy="0.661" rx="0.661" ry="0.661" transform="translate(21.138 21.138)" fill="#61b15a"/>
      </g>
      <g id="star-4" data-name="star" transform="translate(6698.348 2606.452) rotate(8)" opacity="0.59">
        <path id="Path_323-4" data-name="Path 323" d="M.925,8.658c4.08,0,7.4,2.825,7.4,6.3a.865.865,0,0,0,.925.787.864.864,0,0,0,.925-.787c0-3.472,3.319-6.3,7.4-6.3a.864.864,0,0,0,.925-.787.865.865,0,0,0-.925-.787c-4.08,0-7.4-2.825-7.4-6.3A.864.864,0,0,0,9.249,0a.865.865,0,0,0-.925.787c0,3.472-3.319,6.3-7.4,6.3A.865.865,0,0,0,0,7.871.864.864,0,0,0,.925,8.658ZM9.249,4.216a8.746,8.746,0,0,0,4.294,3.654,8.746,8.746,0,0,0-4.294,3.654A8.746,8.746,0,0,0,4.955,7.871,8.745,8.745,0,0,0,9.249,4.216Z" transform="translate(21.799 21.251)" fill="#61b15a"/>
        <path id="Path_324-3" data-name="Path 324" d="M.787,6.3a3.94,3.94,0,0,1,3.935,3.935.787.787,0,1,0,1.574,0A3.94,3.94,0,0,1,10.232,6.3a.787.787,0,0,0,0-1.574A3.94,3.94,0,0,1,6.3.787a.787.787,0,1,0-1.574,0A3.94,3.94,0,0,1,.787,4.722a.787.787,0,0,0,0,1.574ZM5.509,3.622A5.554,5.554,0,0,0,7.4,5.509,5.553,5.553,0,0,0,5.509,7.4,5.554,5.554,0,0,0,3.622,5.509,5.554,5.554,0,0,0,5.509,3.622Z" transform="translate(0)" fill="#61b15a"/>
        <ellipse id="Ellipse_72-4" data-name="Ellipse 72" cx="0.661" cy="0.661" rx="0.661" ry="0.661" transform="translate(21.138 21.138)" fill="#61b15a"/>
      </g>
    </g>
    <g id="team" transform="translate(7306 2558.934)">
      <g id="Group_244" data-name="Group 244" transform="translate(77.951 99.898)">
        <g id="Group_243" data-name="Group 243">
          <path id="Path_332" data-name="Path 332" d="M404.455,230.2c-3.458-1.729-9.941-1.749-10.215-1.749a1.489,1.489,0,1,0,0,2.977c1.673,0,6.53.258,8.884,1.435a1.489,1.489,0,0,0,1.331-2.663Z" transform="translate(-392.751 -228.449)" fill="#61b15a"/>
        </g>
      </g>
      <g id="Group_246" data-name="Group 246" transform="translate(0 68.066)">
        <g id="Group_245" data-name="Group 245">
          <path id="Path_333" data-name="Path 333" d="M97.076,122.84l-6.148-1.756a.624.624,0,0,1-.451-.6v-2.052a11.187,11.187,0,0,0,1.423-1.167,10.951,10.951,0,0,0,3.352-7.922v-2.832l.594-1.189a9.5,9.5,0,0,0,1-4.225V93.428a1.489,1.489,0,0,0-1.489-1.489H81.031a9.457,9.457,0,0,0-9.447,9.447v.089a7.9,7.9,0,0,0,.829,3.513l.762,1.525v2.431a11.615,11.615,0,0,0,4.775,9.391v2.151c0,.332,0,.469-1.229.82l-3,.857-8.677-3.155a1.487,1.487,0,0,0-.406-1.14l-2.773-2.913v-4.89c.293-.242.582-.49.862-.752a17.471,17.471,0,0,0,5.5-12.7V92.706a17.206,17.206,0,0,0,1.592-7.236V69.555a1.489,1.489,0,0,0-1.489-1.489H46.053A14.237,14.237,0,0,0,31.832,82.287v3.183a17.206,17.206,0,0,0,1.592,7.236v3.36a18.189,18.189,0,0,0,6.366,13.882v5.006l-2.773,2.913a1.487,1.487,0,0,0-.406,1.14l-9.159,3.33a7.807,7.807,0,0,0-1.84.964l-1.438-.719c4.281-1.863,5.637-4.484,5.7-4.615a1.488,1.488,0,0,0,0-1.331c-1.073-2.146-1.2-6.08-1.308-9.241-.035-1.052-.068-2.046-.131-2.932C27.931,97.324,22.5,91.94,15.813,91.94S3.694,97.324,3.187,104.464c-.063.885-.1,1.88-.131,2.932-.1,3.161-.235,7.094-1.308,9.241a1.488,1.488,0,0,0,0,1.331c.065.13,1.418,2.746,5.708,4.611l-3.995,2A6.231,6.231,0,0,0,0,130.179v11a1.489,1.489,0,1,0,2.977,0v-11a3.269,3.269,0,0,1,1.816-2.939l4.974-2.487L11.5,126.4a6.26,6.26,0,0,0,8.629,0l1.73-1.644,1.622.811a7.839,7.839,0,0,0-1.2,4.156v11.457a1.489,1.489,0,1,0,2.977,0V129.72a4.893,4.893,0,0,1,3.211-4.584l9.656-3.511,4.02,6.03a3.069,3.069,0,0,0,2.259,1.357q.154.015.307.015a3.068,3.068,0,0,0,2.175-.9l2.452-2.452v15.506a1.489,1.489,0,1,0,2.977,0V125.671l2.452,2.452a3.067,3.067,0,0,0,2.175.9q.153,0,.307-.015a3.069,3.069,0,0,0,2.259-1.357l4.02-6.03,9.656,3.511A4.893,4.893,0,0,1,76.4,129.72v11.457a1.489,1.489,0,1,0,2.977,0V129.72a7.869,7.869,0,0,0-2.2-5.446l.368-.1a8.163,8.163,0,0,0,1.385-.5l3.8,3.8v13.708a1.489,1.489,0,1,0,2.977,0V127.469l3.774-3.774a3.541,3.541,0,0,0,.633.251l6.148,1.757a3.3,3.3,0,0,1,2.383,3.16v12.314a1.489,1.489,0,1,0,2.977,0V128.863A6.291,6.291,0,0,0,97.076,122.84ZM9.55,120.211a10.7,10.7,0,0,1-4.777-3.067,16.408,16.408,0,0,0,.848-3.564,11.1,11.1,0,0,0,3.929,4.847Zm8.527,4.029a3.285,3.285,0,0,1-4.528,0l-1.384-1.315a3.08,3.08,0,0,0,.362-1.454v-1.587a11.069,11.069,0,0,0,6.572,0v1.585a3.08,3.08,0,0,0,.362,1.454Zm-2.263-6.833a8.07,8.07,0,0,1-8.061-8.061,1.479,1.479,0,0,0-1.733-1.467c0-.128.009-.256.013-.383.033-1.024.065-1.99.124-2.82a11.051,11.051,0,0,1,3.009-6.94,9.249,9.249,0,0,1,13.294,0,11.051,11.051,0,0,1,3.009,6.94c.059.829.091,1.8.125,2.819l.009.266a13.375,13.375,0,0,0-7.352-5.372,18.682,18.682,0,0,0-5.662-.9,1.489,1.489,0,0,0-1.03.455L8.873,104.73a1.489,1.489,0,0,0,2.143,2.067l2.235-2.318c1.925.094,8.116.814,10.524,6.117A8.042,8.042,0,0,1,15.814,117.406Zm6.262,2.81V118.44a11.011,11.011,0,0,0,3.93-4.852,16.387,16.387,0,0,0,.847,3.556A10.752,10.752,0,0,1,22.076,120.216ZM36.4,96.066V92.373a1.489,1.489,0,0,0-.148-.647,14.278,14.278,0,0,1-1.444-6.256V82.287A11.257,11.257,0,0,1,46.053,71.043H66.847V85.471A14.278,14.278,0,0,1,65.4,91.726a1.489,1.489,0,0,0-.148.647v4.238a14.291,14.291,0,0,1-4.563,10.528,14.815,14.815,0,0,1-1.143.968l-.026.019a14.313,14.313,0,0,1-9.659,2.882C42.315,110.519,36.4,103.956,36.4,96.066Zm8.381,29.952a.094.094,0,0,1-.083.03.1.1,0,0,1-.076-.045l-4.629-6.944,1.49-1.565,7.023,4.8Zm6.046-5.744-8.061-5.51v-2.779a16.76,16.76,0,0,0,6.905,1.993q.589.038,1.171.038a17.242,17.242,0,0,0,8.046-1.972v2.719Zm6.2,5.729a.1.1,0,0,1-.076.045.092.092,0,0,1-.083-.03l-3.725-3.725,7.023-4.8,1.49,1.565Zm27.181-1.256-3.378-3.378a4.084,4.084,0,0,0,.092-.884v-.628a10.438,10.438,0,0,0,2.948.521c.115,0,.228.005.343.005a11.057,11.057,0,0,0,3.282-.5v.6a3.559,3.559,0,0,0,.108.868Zm5.613-9.617a8,8,0,0,1-5.862,2.272,8.333,8.333,0,0,1-7.812-8.458v-2.783A1.487,1.487,0,0,0,76,105.5l-.92-1.839a4.9,4.9,0,0,1-.515-2.181v-.089a6.477,6.477,0,0,1,6.469-6.469H93.867V101.1a6.5,6.5,0,0,1-.683,2.893l-.751,1.5a1.488,1.488,0,0,0-.157.666v3.183A8,8,0,0,1,89.828,115.13Z" transform="translate(0 -68.066)" fill="#61b15a"/>
        </g>
      </g>
      <g id="Group_248" data-name="Group 248" transform="translate(92.275 130.138)">
        <g id="Group_247" data-name="Group 247">
          <path id="Path_334" data-name="Path 334" d="M466.412,380.814a1.489,1.489,0,0,0-1.489,1.489v9.55a1.489,1.489,0,0,0,2.977,0V382.3A1.489,1.489,0,0,0,466.412,380.814Z" transform="translate(-464.923 -380.814)" fill="#61b15a"/>
        </g>
      </g>
      <g id="Group_250" data-name="Group 250" transform="translate(6.366 132.106)">
        <g id="Group_249" data-name="Group 249">
          <path id="Path_335" data-name="Path 335" d="M33.566,390.728a1.489,1.489,0,0,0-1.489,1.489V399.8a1.489,1.489,0,1,0,2.977,0v-7.582A1.489,1.489,0,0,0,33.566,390.728Z" transform="translate(-32.077 -390.728)" fill="#61b15a"/>
        </g>
      </g>
      <g id="Group_252" data-name="Group 252" transform="translate(38.198 81.589)">
        <g id="Group_251" data-name="Group 251">
          <path id="Path_336" data-name="Path 336" d="M217.284,140.623c-5.63-5.63-17.409-4.554-22.213-3.83a3.056,3.056,0,0,0-2.611,3.044v3.429a1.489,1.489,0,1,0,2.977,0v-3.429a.1.1,0,0,1,.078-.1,47.026,47.026,0,0,1,9.671-.472c4.642.309,8,1.474,9.993,3.463a1.488,1.488,0,0,0,2.105-2.105Z" transform="translate(-192.46 -136.203)" fill="#61b15a"/>
        </g>
      </g>
      <g id="Group_254" data-name="Group 254" transform="translate(31.832 133.322)">
        <g id="Group_253" data-name="Group 253">
          <path id="Path_337" data-name="Path 337" d="M161.873,396.853a1.489,1.489,0,0,0-1.489,1.489v6.366a1.489,1.489,0,0,0,2.977,0v-6.366A1.489,1.489,0,0,0,161.873,396.853Z" transform="translate(-160.384 -396.853)" fill="#61b15a"/>
        </g>
      </g>
      <g id="Group_256" data-name="Group 256" transform="translate(66.847 133.322)">
        <g id="Group_255" data-name="Group 255">
          <path id="Path_338" data-name="Path 338" d="M338.295,396.853a1.489,1.489,0,0,0-1.489,1.489v6.366a1.489,1.489,0,0,0,2.977,0v-6.366A1.489,1.489,0,0,0,338.295,396.853Z" transform="translate(-336.806 -396.853)" fill="#61b15a"/>
        </g>
      </g>
    </g>
  </g>
</svg>
