<svg xmlns="http://www.w3.org/2000/svg" width="256.007" height="250.516" viewBox="0 0 256.007 250.516">
  <g id="Group_263" data-name="Group 263" transform="translate(-8005.814 -2388.484)">
    <g id="Group_262" data-name="Group 262" transform="translate(1040 -138)">
      <g id="Group_240" data-name="Group 240" transform="translate(269)">
        <path id="Path_319" data-name="Path 319" d="M6890.893,2984.676s-84.873,55-75.547,127.362,56.345,116.275,115.1,96.013c16.569-5.713,44.832-15.629,65.915-27.226,52.587-28.922,78.242-48.511,68.78-75.945-10.139-29.544-61.771-19.665-88.129-36.546s-8.512-51.343-9.444-75.464-9.526-30.386-24.449-30.386S6890.893,2984.676,6890.893,2984.676Z" transform="translate(-114.256 -436)" fill="#ee0300" opacity="0.1"/>
        <g id="star" transform="translate(6828.301 2572.072) rotate(77)" opacity="0.59">
          <path id="Path_323" data-name="Path 323" d="M.925,8.658c4.08,0,7.4,2.825,7.4,6.3a.865.865,0,0,0,.925.787.864.864,0,0,0,.925-.787c0-3.472,3.319-6.3,7.4-6.3a.864.864,0,0,0,.925-.787.865.865,0,0,0-.925-.787c-4.08,0-7.4-2.825-7.4-6.3A.864.864,0,0,0,9.249,0a.865.865,0,0,0-.925.787c0,3.472-3.319,6.3-7.4,6.3A.865.865,0,0,0,0,7.871.865.865,0,0,0,.925,8.658ZM9.249,4.216a8.746,8.746,0,0,0,4.294,3.654,8.746,8.746,0,0,0-4.294,3.654A8.746,8.746,0,0,0,4.955,7.871,8.745,8.745,0,0,0,9.249,4.216Z" transform="translate(21.799 21.251)" fill="#ee0300"/>
          <path id="Path_324" data-name="Path 324" d="M.787,6.3a3.94,3.94,0,0,1,3.935,3.935.787.787,0,1,0,1.574,0A3.94,3.94,0,0,1,10.232,6.3a.787.787,0,1,0,0-1.574A3.94,3.94,0,0,1,6.3.787a.787.787,0,0,0-1.574,0A3.94,3.94,0,0,1,.787,4.722a.787.787,0,1,0,0,1.574ZM5.509,3.622A5.554,5.554,0,0,0,7.4,5.509,5.553,5.553,0,0,0,5.509,7.4,5.554,5.554,0,0,0,3.622,5.509,5.554,5.554,0,0,0,5.509,3.622Z" transform="translate(0)" fill="#ee0300"/>
          <ellipse id="Ellipse_72" data-name="Ellipse 72" cx="0.661" cy="0.661" rx="0.661" ry="0.661" transform="translate(21.138 21.138)" fill="#61b15a"/>
        </g>
        <g id="star-2" data-name="star" transform="translate(6849.052 2697.382) rotate(51)" opacity="0.82">
          <path id="Path_323-2" data-name="Path 323" d="M.925,8.658c4.08,0,7.4,2.825,7.4,6.3a.865.865,0,0,0,.925.787.864.864,0,0,0,.925-.787c0-3.472,3.319-6.3,7.4-6.3a.864.864,0,0,0,.925-.787.865.865,0,0,0-.925-.787c-4.08,0-7.4-2.825-7.4-6.3A.864.864,0,0,0,9.249,0a.865.865,0,0,0-.925.787c0,3.472-3.319,6.3-7.4,6.3A.865.865,0,0,0,0,7.871.865.865,0,0,0,.925,8.658ZM9.249,4.216a8.746,8.746,0,0,0,4.294,3.654,8.746,8.746,0,0,0-4.294,3.654A8.746,8.746,0,0,0,4.955,7.871,8.745,8.745,0,0,0,9.249,4.216Z" transform="translate(0.66 0.112)" fill="#ee0300"/>
          <ellipse id="Ellipse_72-2" data-name="Ellipse 72" cx="0.661" cy="0.661" rx="0.661" ry="0.661" transform="translate(0)" fill="#61b15a"/>
        </g>
        <g id="star-3" data-name="star" transform="translate(6733.68 2714.405) rotate(14)" opacity="0.59">
          <path id="Path_323-3" data-name="Path 323" d="M.925,8.658c4.08,0,7.4,2.825,7.4,6.3a.865.865,0,0,0,.925.787.864.864,0,0,0,.925-.787c0-3.472,3.319-6.3,7.4-6.3a.864.864,0,0,0,.925-.787.865.865,0,0,0-.925-.787c-4.08,0-7.4-2.825-7.4-6.3A.864.864,0,0,0,9.249,0a.865.865,0,0,0-.925.787c0,3.472-3.319,6.3-7.4,6.3A.865.865,0,0,0,0,7.871.864.864,0,0,0,.925,8.658ZM9.249,4.216a8.746,8.746,0,0,0,4.294,3.654,8.746,8.746,0,0,0-4.294,3.654A8.746,8.746,0,0,0,4.955,7.871,8.745,8.745,0,0,0,9.249,4.216Z" transform="translate(31.095 14.848)" fill="#ee0300"/>
          <path id="Path_324-2" data-name="Path 324" d="M.787,6.3a3.94,3.94,0,0,1,3.935,3.935.787.787,0,1,0,1.574,0A3.94,3.94,0,0,1,10.232,6.3a.787.787,0,0,0,0-1.574A3.94,3.94,0,0,1,6.3.787a.787.787,0,1,0-1.574,0A3.94,3.94,0,0,1,.787,4.722a.787.787,0,0,0,0,1.574ZM5.509,3.622A5.554,5.554,0,0,0,7.4,5.509,5.553,5.553,0,0,0,5.509,7.4,5.554,5.554,0,0,0,3.622,5.509,5.554,5.554,0,0,0,5.509,3.622Z" transform="translate(0 0)" fill="#ee0300"/>
          <ellipse id="Ellipse_72-3" data-name="Ellipse 72" cx="0.661" cy="0.661" rx="0.661" ry="0.661" transform="translate(21.138 21.138)" fill="#61b15a"/>
        </g>
        <g id="star-4" data-name="star" transform="translate(6698.348 2606.452) rotate(8)" opacity="0.59">
          <path id="Path_323-4" data-name="Path 323" d="M.925,8.658c4.08,0,7.4,2.825,7.4,6.3a.865.865,0,0,0,.925.787.864.864,0,0,0,.925-.787c0-3.472,3.319-6.3,7.4-6.3a.864.864,0,0,0,.925-.787.865.865,0,0,0-.925-.787c-4.08,0-7.4-2.825-7.4-6.3A.864.864,0,0,0,9.249,0a.865.865,0,0,0-.925.787c0,3.472-3.319,6.3-7.4,6.3A.865.865,0,0,0,0,7.871.864.864,0,0,0,.925,8.658ZM9.249,4.216a8.746,8.746,0,0,0,4.294,3.654,8.746,8.746,0,0,0-4.294,3.654A8.746,8.746,0,0,0,4.955,7.871,8.745,8.745,0,0,0,9.249,4.216Z" transform="translate(21.799 21.251)" fill="#ee0300"/>
          <path id="Path_324-3" data-name="Path 324" d="M.787,6.3a3.94,3.94,0,0,1,3.935,3.935.787.787,0,1,0,1.574,0A3.94,3.94,0,0,1,10.232,6.3a.787.787,0,0,0,0-1.574A3.94,3.94,0,0,1,6.3.787a.787.787,0,1,0-1.574,0A3.94,3.94,0,0,1,.787,4.722a.787.787,0,0,0,0,1.574ZM5.509,3.622A5.554,5.554,0,0,0,7.4,5.509,5.553,5.553,0,0,0,5.509,7.4,5.554,5.554,0,0,0,3.622,5.509,5.554,5.554,0,0,0,5.509,3.622Z" transform="translate(0)" fill="#ee0300"/>
          <ellipse id="Ellipse_72-4" data-name="Ellipse 72" cx="0.661" cy="0.661" rx="0.661" ry="0.661" transform="translate(21.138 21.138)" fill="#ee0300"/>
        </g>
      </g>
    </g>
    <path id="trophy" d="M108.265,59.8a5.025,5.025,0,0,0-3.047,1.02V58.176a1.622,1.622,0,0,0-1.622-1.622H84.13a1.622,1.622,0,0,0-1.622,1.622v14.6a11.371,11.371,0,0,0,9.733,11.237v6.606H85.752a1.622,1.622,0,0,0-1.574,1.229L82.564,98.3,80.875,83.94a1.622,1.622,0,0,0-1.611-1.433H76.588l-7.058-5.646v-9.7A16.25,16.25,0,0,0,80.886,51.687H84.13a1.622,1.622,0,0,0,1.147-.475L101.5,34.99a1.622,1.622,0,0,0,.475-1.147V24.922A8.922,8.922,0,0,0,87.7,17.784l-3.316,2.487a6.448,6.448,0,0,0-3.5-1.027H48.443a6.448,6.448,0,0,0-3.5,1.027L41.63,17.784a8.922,8.922,0,0,0-14.275,7.137v8.922a1.622,1.622,0,0,0,.475,1.147L44.051,51.212a1.622,1.622,0,0,0,1.147.475h3.244A16.25,16.25,0,0,0,59.8,67.162v9.7L52.74,82.508H50.065a1.622,1.622,0,0,0-1.611,1.433L46.764,98.3,45.15,91.847a1.622,1.622,0,0,0-1.574-1.229H37.088V84.012a11.371,11.371,0,0,0,9.733-11.237v-14.6A1.622,1.622,0,0,0,45.2,56.553H25.733a1.622,1.622,0,0,0-1.622,1.622v2.642A5.063,5.063,0,0,0,16,64.861v3.047a1.623,1.623,0,0,0,.324.973l4.866,6.489a1.622,1.622,0,0,0,1.3.649h2.1a11.385,11.385,0,0,0,9.258,7.993v6.606H27.355a1.622,1.622,0,0,0-1.574,1.229l-4.866,19.466a1.622,1.622,0,0,0,1.574,2.016H106.84a1.622,1.622,0,0,0,1.574-2.016l-4.866-19.466a1.622,1.622,0,0,0-1.574-1.229H95.485V84.012a11.385,11.385,0,0,0,9.258-7.993h2.1a1.622,1.622,0,0,0,1.3-.649L113,68.882a1.623,1.623,0,0,0,.324-.973V64.861A5.069,5.069,0,0,0,108.265,59.8ZM23.3,72.775l-4.055-5.407V64.861a1.819,1.819,0,0,1,3.105-1.286l1.761,1.761v7.439Zm4.055,0V59.8H43.576V72.775a8.111,8.111,0,0,1-16.221,0Zm58.4-40.554A1.622,1.622,0,0,0,87.374,30.6v-.811l4.866-3.65v5.411l-10.4,10.4h-.95V38.431a9.383,9.383,0,0,1,2.328-6.21ZM89.645,20.38a5.677,5.677,0,0,1,9.084,4.542v8.25L83.458,48.443H80.886V45.2h1.622a1.622,1.622,0,0,0,1.147-.475L95.01,33.368a1.622,1.622,0,0,0,.475-1.147V25.327a2.839,2.839,0,0,0-4.542-2.271l-3.569,2.677h0a6.448,6.448,0,0,0-.774-3.07Zm-8.76,2.109a3.248,3.248,0,0,1,3.244,3.244v3.244H45.2V25.733a3.248,3.248,0,0,1,3.244-3.244ZM48.443,38.431v3.523h-.95l-10.4-10.4V26.138l4.866,3.65V30.6a1.622,1.622,0,0,0,1.622,1.622h2.538A9.383,9.383,0,0,1,48.443,38.431ZM45.87,48.443,30.6,33.171v-8.25a5.677,5.677,0,0,1,9.084-4.542l3.045,2.283a6.448,6.448,0,0,0-.774,3.07h0l-3.568-2.676a2.839,2.839,0,0,0-4.542,2.271v6.894a1.622,1.622,0,0,0,.475,1.147L45.674,44.723a1.622,1.622,0,0,0,1.147.475h1.622v3.244Zm5.817,3.244V40.332h6.489V37.088h-6.56a12.572,12.572,0,0,0-1.548-4.866H79.261a12.572,12.572,0,0,0-1.548,4.866H61.42v3.244H77.641V51.687a12.977,12.977,0,1,1-25.954,0ZM62.433,78.908a1.622,1.622,0,0,0,.609-1.267V67.827c.534.053,1.075.081,1.622.081s1.088-.028,1.622-.081v9.814a1.622,1.622,0,0,0,.609,1.267l4.5,3.6H57.934ZM28.622,93.863H42.31L45.694,107.4l-.316,2.685H24.566Zm20.023,16.221,2.863-24.332H77.821l2.863,24.332Zm56.118,0H83.95l-.316-2.685,3.384-13.537h13.688Zm-2.789-37.309a8.111,8.111,0,0,1-16.221,0V59.8h16.221Zm8.111-5.407-4.055,5.407h-.811V65.336l1.761-1.761a1.819,1.819,0,0,1,3.105,1.286Z" transform="translate(8037 2471)" fill="#ee0300"/>
  </g>
</svg>
