<svg xmlns="http://www.w3.org/2000/svg" width="256.007" height="250.516" viewBox="0 0 256.007 250.516">
  <g id="Group_265" data-name="Group 265" transform="translate(-8002.814 -2736.484)">
    <g id="Group_261" data-name="Group 261" transform="translate(738 210)">
      <g id="Group_242" data-name="Group 242" transform="translate(568)">
        <path id="Path_319" data-name="Path 319" d="M6890.893,2984.676s-84.873,55-75.547,127.362,56.345,116.275,115.1,96.013c16.569-5.713,44.832-15.629,65.915-27.226,52.587-28.922,78.242-48.511,68.78-75.945-10.139-29.544-61.771-19.665-88.129-36.546s-8.512-51.343-9.444-75.464-9.526-30.386-24.449-30.386S6890.893,2984.676,6890.893,2984.676Z" transform="translate(-114.256 -436)" fill="#61b15a" opacity="0.1"/>
        <g id="star" transform="translate(6828.301 2572.072) rotate(77)" opacity="0.59">
          <path id="Path_323" data-name="Path 323" d="M.925,8.658c4.08,0,7.4,2.825,7.4,6.3a.865.865,0,0,0,.925.787.864.864,0,0,0,.925-.787c0-3.472,3.319-6.3,7.4-6.3a.864.864,0,0,0,.925-.787.865.865,0,0,0-.925-.787c-4.08,0-7.4-2.825-7.4-6.3A.864.864,0,0,0,9.249,0a.865.865,0,0,0-.925.787c0,3.472-3.319,6.3-7.4,6.3A.865.865,0,0,0,0,7.871.865.865,0,0,0,.925,8.658ZM9.249,4.216a8.746,8.746,0,0,0,4.294,3.654,8.746,8.746,0,0,0-4.294,3.654A8.746,8.746,0,0,0,4.955,7.871,8.745,8.745,0,0,0,9.249,4.216Z" transform="translate(21.799 21.251)" fill="#61b15a"/>
          <path id="Path_324" data-name="Path 324" d="M.787,6.3a3.94,3.94,0,0,1,3.935,3.935.787.787,0,1,0,1.574,0A3.94,3.94,0,0,1,10.232,6.3a.787.787,0,1,0,0-1.574A3.94,3.94,0,0,1,6.3.787a.787.787,0,0,0-1.574,0A3.94,3.94,0,0,1,.787,4.722a.787.787,0,1,0,0,1.574ZM5.509,3.622A5.554,5.554,0,0,0,7.4,5.509,5.553,5.553,0,0,0,5.509,7.4,5.554,5.554,0,0,0,3.622,5.509,5.554,5.554,0,0,0,5.509,3.622Z" transform="translate(0)" fill="#61b15a"/>
          <ellipse id="Ellipse_72" data-name="Ellipse 72" cx="0.661" cy="0.661" rx="0.661" ry="0.661" transform="translate(21.138 21.138)" fill="#61b15a"/>
        </g>
        <g id="star-2" data-name="star" transform="translate(6849.052 2697.382) rotate(51)" opacity="0.82">
          <path id="Path_323-2" data-name="Path 323" d="M.925,8.658c4.08,0,7.4,2.825,7.4,6.3a.865.865,0,0,0,.925.787.864.864,0,0,0,.925-.787c0-3.472,3.319-6.3,7.4-6.3a.864.864,0,0,0,.925-.787.865.865,0,0,0-.925-.787c-4.08,0-7.4-2.825-7.4-6.3A.864.864,0,0,0,9.249,0a.865.865,0,0,0-.925.787c0,3.472-3.319,6.3-7.4,6.3A.865.865,0,0,0,0,7.871.865.865,0,0,0,.925,8.658ZM9.249,4.216a8.746,8.746,0,0,0,4.294,3.654,8.746,8.746,0,0,0-4.294,3.654A8.746,8.746,0,0,0,4.955,7.871,8.745,8.745,0,0,0,9.249,4.216Z" transform="translate(0.66 0.112)" fill="#61b15a"/>
          <ellipse id="Ellipse_72-2" data-name="Ellipse 72" cx="0.661" cy="0.661" rx="0.661" ry="0.661" transform="translate(0)" fill="#61b15a"/>
        </g>
        <g id="star-3" data-name="star" transform="translate(6733.68 2714.405) rotate(14)" opacity="0.59">
          <path id="Path_323-3" data-name="Path 323" d="M.925,8.658c4.08,0,7.4,2.825,7.4,6.3a.865.865,0,0,0,.925.787.864.864,0,0,0,.925-.787c0-3.472,3.319-6.3,7.4-6.3a.864.864,0,0,0,.925-.787.865.865,0,0,0-.925-.787c-4.08,0-7.4-2.825-7.4-6.3A.864.864,0,0,0,9.249,0a.865.865,0,0,0-.925.787c0,3.472-3.319,6.3-7.4,6.3A.865.865,0,0,0,0,7.871.864.864,0,0,0,.925,8.658ZM9.249,4.216a8.746,8.746,0,0,0,4.294,3.654,8.746,8.746,0,0,0-4.294,3.654A8.746,8.746,0,0,0,4.955,7.871,8.745,8.745,0,0,0,9.249,4.216Z" transform="translate(31.095 14.848)" fill="#61b15a"/>
          <path id="Path_324-2" data-name="Path 324" d="M.787,6.3a3.94,3.94,0,0,1,3.935,3.935.787.787,0,1,0,1.574,0A3.94,3.94,0,0,1,10.232,6.3a.787.787,0,0,0,0-1.574A3.94,3.94,0,0,1,6.3.787a.787.787,0,1,0-1.574,0A3.94,3.94,0,0,1,.787,4.722a.787.787,0,0,0,0,1.574ZM5.509,3.622A5.554,5.554,0,0,0,7.4,5.509,5.553,5.553,0,0,0,5.509,7.4,5.554,5.554,0,0,0,3.622,5.509,5.554,5.554,0,0,0,5.509,3.622Z" transform="translate(0 0)" fill="#61b15a"/>
          <ellipse id="Ellipse_72-3" data-name="Ellipse 72" cx="0.661" cy="0.661" rx="0.661" ry="0.661" transform="translate(21.138 21.138)" fill="#61b15a"/>
        </g>
        <g id="star-4" data-name="star" transform="translate(6698.348 2606.452) rotate(8)" opacity="0.59">
          <path id="Path_323-4" data-name="Path 323" d="M.925,8.658c4.08,0,7.4,2.825,7.4,6.3a.865.865,0,0,0,.925.787.864.864,0,0,0,.925-.787c0-3.472,3.319-6.3,7.4-6.3a.864.864,0,0,0,.925-.787.865.865,0,0,0-.925-.787c-4.08,0-7.4-2.825-7.4-6.3A.864.864,0,0,0,9.249,0a.865.865,0,0,0-.925.787c0,3.472-3.319,6.3-7.4,6.3A.865.865,0,0,0,0,7.871.864.864,0,0,0,.925,8.658ZM9.249,4.216a8.746,8.746,0,0,0,4.294,3.654,8.746,8.746,0,0,0-4.294,3.654A8.746,8.746,0,0,0,4.955,7.871,8.745,8.745,0,0,0,9.249,4.216Z" transform="translate(21.799 21.251)" fill="#61b15a"/>
          <path id="Path_324-3" data-name="Path 324" d="M.787,6.3a3.94,3.94,0,0,1,3.935,3.935.787.787,0,1,0,1.574,0A3.94,3.94,0,0,1,10.232,6.3a.787.787,0,0,0,0-1.574A3.94,3.94,0,0,1,6.3.787a.787.787,0,1,0-1.574,0A3.94,3.94,0,0,1,.787,4.722a.787.787,0,0,0,0,1.574ZM5.509,3.622A5.554,5.554,0,0,0,7.4,5.509,5.553,5.553,0,0,0,5.509,7.4,5.554,5.554,0,0,0,3.622,5.509,5.554,5.554,0,0,0,5.509,3.622Z" transform="translate(0)" fill="#61b15a"/>
          <ellipse id="Ellipse_72-4" data-name="Ellipse 72" cx="0.661" cy="0.661" rx="0.661" ry="0.661" transform="translate(21.138 21.138)" fill="#61b15a"/>
        </g>
      </g>
    </g>
    <g id="artificial-intelligence" transform="translate(8048.607 2840)">
      <path id="Path_340" data-name="Path 340" d="M145.25,264.661a1.158,1.158,0,0,0-1-2.09,11.644,11.644,0,0,0-6.478,8.9,11.482,11.482,0,0,0-6.21,5.376,1.158,1.158,0,0,0,.47,1.569,1.173,1.173,0,0,0,1.569-.47,9.184,9.184,0,0,1,4.11-3.938,11.47,11.47,0,0,0,3.414,7.253,1.158,1.158,0,1,0,1.624-1.652,9.185,9.185,0,0,1-2.766-6.6A9.3,9.3,0,0,1,145.25,264.661Z" transform="translate(-97.267 -221.925)" fill="#61b15a"/>
      <path id="Path_341" data-name="Path 341" d="M16.838,46.236a1.158,1.158,0,1,0,2.163.83,6.108,6.108,0,0,1,7.812-3.538,1.158,1.158,0,1,0,.8-2.174,8.472,8.472,0,0,0-4.65-.341,9.252,9.252,0,0,1,3.2-16.494,11.69,11.69,0,0,0,5.427,5.617,1.158,1.158,0,0,0,1.025-2.077,9.253,9.253,0,0,1,4.091-17.552,9.214,9.214,0,0,1,5.456,1.779,1.158,1.158,0,1,0,1.369-1.868,11.472,11.472,0,0,0-2.618-1.437c-.221-3.389,2.073-6.665,5.731-6.665a5.738,5.738,0,0,1,5.721,5.4c0,.11.01,8.618.01,8.618a9.26,9.26,0,0,1-11.86-.153,1.158,1.158,0,0,0-1.508,1.759,11.582,11.582,0,0,0,13.368,1.2V63.379a1.158,1.158,0,0,0,2.317,0V52.262h3.271v6.7a1.158,1.158,0,0,0,1.158,1.158h5.231a4.247,4.247,0,1,0,0-2.316H60.284V52.262h2.471a3.479,3.479,0,0,0,3.475-3.475V47.629h2.212a1.158,1.158,0,0,0,0-2.316H66.229V40.6h2.717a4.247,4.247,0,1,0,0-2.316H66.229v-4.4h2.212a1.158,1.158,0,0,0,0-2.316H66.229V30.413a3.479,3.479,0,0,0-3.475-3.475H60.284V21.4h4.073a4.247,4.247,0,1,0,0-2.316H59.126a1.158,1.158,0,0,0-1.158,1.158v6.7H54.7s0-19.111-.008-19.22a5.738,5.738,0,0,1,5.721-5.4c3.63,0,5.953,3.326,5.731,6.717a11.469,11.469,0,0,0-2.619,1.436,1.158,1.158,0,0,0,1.369,1.868A9.253,9.253,0,0,1,79.6,19.811a9.479,9.479,0,0,1-5.161,8.3,1.158,1.158,0,0,0-.526,1.551,1.177,1.177,0,0,0,1.551.526,11.69,11.69,0,0,0,5.448-5.665,9.208,9.208,0,0,1,6.737,6.664q.533,1.049,1.411.833a1.158,1.158,0,0,0,.833-1.411,11.519,11.519,0,0,0-8.25-8.292A11.569,11.569,0,0,0,68.456,8.4,8.3,8.3,0,0,0,60.409,0a8.051,8.051,0,0,0-6.88,3.876A8.051,8.051,0,0,0,46.649,0C41.98,0,38.766,3.954,38.6,8.347A11.569,11.569,0,0,0,25.429,22.319a11.568,11.568,0,0,0-4.947,19.65,8.458,8.458,0,0,0-3.644,4.267Zm51.6,10.791a1.93,1.93,0,1,1-1.93,1.93A1.932,1.932,0,0,1,68.442,57.027Zm4.589-19.512a1.93,1.93,0,1,1-1.93,1.939s0-.006,0-.009,0-.006,0-.009a1.932,1.932,0,0,1,1.93-1.921Zm-4.589-19.2a1.93,1.93,0,1,1-1.93,1.93A1.932,1.932,0,0,1,68.442,18.312ZM54.7,35.432h3.028v8.336H54.7Zm8.058-6.177a1.159,1.159,0,0,1,1.158,1.158V48.787a1.159,1.159,0,0,1-1.158,1.158H54.7V46.084h4.187a1.158,1.158,0,0,0,1.158-1.158V34.273a1.158,1.158,0,0,0-1.158-1.158H54.7V29.254Z" transform="translate(-0.311)" fill="#61b15a"/>
      <path id="Path_342" data-name="Path 342" d="M185.37,181.811a11.494,11.494,0,0,0-6.915-5.611,1.159,1.159,0,1,0-.688,2.212h0a9.2,9.2,0,0,1,5.565,4.5,1.173,1.173,0,0,0,1.569.47,1.158,1.158,0,0,0,.47-1.569Z" transform="translate(-135.743 -148.938)" fill="#61b15a"/>
      <path id="Path_343" data-name="Path 343" d="M90.464,239.723a8.451,8.451,0,0,0-4.2-7.283,11.483,11.483,0,0,0,3.359-5.751,1.158,1.158,0,0,0-2.253-.54,9.2,9.2,0,0,1-3.588,5.338,8.481,8.481,0,0,0-4.651.341,1.158,1.158,0,0,0,.8,2.174,6.1,6.1,0,1,1,4.149,11.473,11.518,11.518,0,0,0-2.161-2.219,1.158,1.158,0,1,0-1.427,1.825,9.252,9.252,0,0,1-5.7,16.541,9.178,9.178,0,0,1-5.407-1.745,9.315,9.315,0,0,1-2.76-3.156,1.158,1.158,0,1,0-2.043,1.091,11.654,11.654,0,0,0,2.934,3.55,6.593,6.593,0,0,1-13.142-.3c.029-.719.014-1.447.009-2.167a1.158,1.158,0,0,0-1.158-1.158h-.02a1.158,1.158,0,0,0-1.158,1.158c-.005.72-.02,1.448.009,2.168a6.593,6.593,0,0,1-13.142.3,11.653,11.653,0,0,0,2.935-3.55,1.158,1.158,0,0,0-2.043-1.091,9.315,9.315,0,0,1-2.762,3.157,9.253,9.253,0,0,1-13.258-12.4l.029-.044a9.207,9.207,0,0,1,2.126-2.352,1.158,1.158,0,1,0-1.427-1.825,11.53,11.53,0,0,0-2.161,2.219,6.155,6.155,0,0,1-3.712-3.694,1.158,1.158,0,0,0-2.181.782,8.491,8.491,0,0,0,4.69,4.927A11.571,11.571,0,0,0,36.8,262.725a8.909,8.909,0,0,0,16.416,2.385,8.909,8.909,0,0,0,16.416-2.385A11.57,11.57,0,0,0,85.284,247.49a8.475,8.475,0,0,0,5.18-7.768Z" transform="translate(0 -190.473)" fill="#61b15a"/>
    </g>
  </g>
</svg>
