<svg xmlns="http://www.w3.org/2000/svg" width="256.007" height="250.516" viewBox="0 0 256.007 250.516">
  <g id="Group_267" data-name="Group 267" transform="translate(-7647.814 -2760.484)">
    <g id="Group_266" data-name="Group 266" transform="translate(-20 359)">
      <g id="Group_258" data-name="Group 258" transform="translate(702 -125)">
        <g id="Group_240" data-name="Group 240" transform="translate(269)">
          <path id="Path_319" data-name="Path 319" d="M6890.893,2984.676s-84.873,55-75.547,127.362,56.345,116.275,115.1,96.013c16.569-5.713,44.832-15.629,65.915-27.226,52.587-28.922,78.242-48.511,68.78-75.945-10.139-29.544-61.771-19.665-88.129-36.546s-8.512-51.343-9.444-75.464-9.526-30.386-24.449-30.386S6890.893,2984.676,6890.893,2984.676Z" transform="translate(-114.256 -436)" fill="#ee0300" opacity="0.1"/>
          <g id="star" transform="translate(6828.301 2572.072) rotate(77)" opacity="0.59">
            <path id="Path_323" data-name="Path 323" d="M.925,8.658c4.08,0,7.4,2.825,7.4,6.3a.865.865,0,0,0,.925.787.864.864,0,0,0,.925-.787c0-3.472,3.319-6.3,7.4-6.3a.864.864,0,0,0,.925-.787.865.865,0,0,0-.925-.787c-4.08,0-7.4-2.825-7.4-6.3A.864.864,0,0,0,9.249,0a.865.865,0,0,0-.925.787c0,3.472-3.319,6.3-7.4,6.3A.865.865,0,0,0,0,7.871.865.865,0,0,0,.925,8.658ZM9.249,4.216a8.746,8.746,0,0,0,4.294,3.654,8.746,8.746,0,0,0-4.294,3.654A8.746,8.746,0,0,0,4.955,7.871,8.745,8.745,0,0,0,9.249,4.216Z" transform="translate(21.799 21.251)" fill="#ee0300"/>
            <path id="Path_324" data-name="Path 324" d="M.787,6.3a3.94,3.94,0,0,1,3.935,3.935.787.787,0,1,0,1.574,0A3.94,3.94,0,0,1,10.232,6.3a.787.787,0,1,0,0-1.574A3.94,3.94,0,0,1,6.3.787a.787.787,0,0,0-1.574,0A3.94,3.94,0,0,1,.787,4.722a.787.787,0,1,0,0,1.574ZM5.509,3.622A5.554,5.554,0,0,0,7.4,5.509,5.553,5.553,0,0,0,5.509,7.4,5.554,5.554,0,0,0,3.622,5.509,5.554,5.554,0,0,0,5.509,3.622Z" transform="translate(0)" fill="#ee0300"/>
            <ellipse id="Ellipse_72" data-name="Ellipse 72" cx="0.661" cy="0.661" rx="0.661" ry="0.661" transform="translate(21.138 21.138)" fill="#61b15a"/>
          </g>
          <g id="star-2" data-name="star" transform="translate(6849.052 2697.382) rotate(51)" opacity="0.82">
            <path id="Path_323-2" data-name="Path 323" d="M.925,8.658c4.08,0,7.4,2.825,7.4,6.3a.865.865,0,0,0,.925.787.864.864,0,0,0,.925-.787c0-3.472,3.319-6.3,7.4-6.3a.864.864,0,0,0,.925-.787.865.865,0,0,0-.925-.787c-4.08,0-7.4-2.825-7.4-6.3A.864.864,0,0,0,9.249,0a.865.865,0,0,0-.925.787c0,3.472-3.319,6.3-7.4,6.3A.865.865,0,0,0,0,7.871.865.865,0,0,0,.925,8.658ZM9.249,4.216a8.746,8.746,0,0,0,4.294,3.654,8.746,8.746,0,0,0-4.294,3.654A8.746,8.746,0,0,0,4.955,7.871,8.745,8.745,0,0,0,9.249,4.216Z" transform="translate(0.66 0.112)" fill="#ee0300"/>
            <ellipse id="Ellipse_72-2" data-name="Ellipse 72" cx="0.661" cy="0.661" rx="0.661" ry="0.661" transform="translate(0)" fill="#61b15a"/>
          </g>
          <g id="star-3" data-name="star" transform="translate(6733.68 2714.405) rotate(14)" opacity="0.59">
            <path id="Path_323-3" data-name="Path 323" d="M.925,8.658c4.08,0,7.4,2.825,7.4,6.3a.865.865,0,0,0,.925.787.864.864,0,0,0,.925-.787c0-3.472,3.319-6.3,7.4-6.3a.864.864,0,0,0,.925-.787.865.865,0,0,0-.925-.787c-4.08,0-7.4-2.825-7.4-6.3A.864.864,0,0,0,9.249,0a.865.865,0,0,0-.925.787c0,3.472-3.319,6.3-7.4,6.3A.865.865,0,0,0,0,7.871.864.864,0,0,0,.925,8.658ZM9.249,4.216a8.746,8.746,0,0,0,4.294,3.654,8.746,8.746,0,0,0-4.294,3.654A8.746,8.746,0,0,0,4.955,7.871,8.745,8.745,0,0,0,9.249,4.216Z" transform="translate(31.095 14.848)" fill="#ee0300"/>
            <path id="Path_324-2" data-name="Path 324" d="M.787,6.3a3.94,3.94,0,0,1,3.935,3.935.787.787,0,1,0,1.574,0A3.94,3.94,0,0,1,10.232,6.3a.787.787,0,0,0,0-1.574A3.94,3.94,0,0,1,6.3.787a.787.787,0,1,0-1.574,0A3.94,3.94,0,0,1,.787,4.722a.787.787,0,0,0,0,1.574ZM5.509,3.622A5.554,5.554,0,0,0,7.4,5.509,5.553,5.553,0,0,0,5.509,7.4,5.554,5.554,0,0,0,3.622,5.509,5.554,5.554,0,0,0,5.509,3.622Z" transform="translate(0 0)" fill="#ee0300"/>
            <ellipse id="Ellipse_72-3" data-name="Ellipse 72" cx="0.661" cy="0.661" rx="0.661" ry="0.661" transform="translate(21.138 21.138)" fill="#61b15a"/>
          </g>
          <g id="star-4" data-name="star" transform="translate(6698.348 2606.452) rotate(8)" opacity="0.59">
            <path id="Path_323-4" data-name="Path 323" d="M.925,8.658c4.08,0,7.4,2.825,7.4,6.3a.865.865,0,0,0,.925.787.864.864,0,0,0,.925-.787c0-3.472,3.319-6.3,7.4-6.3a.864.864,0,0,0,.925-.787.865.865,0,0,0-.925-.787c-4.08,0-7.4-2.825-7.4-6.3A.864.864,0,0,0,9.249,0a.865.865,0,0,0-.925.787c0,3.472-3.319,6.3-7.4,6.3A.865.865,0,0,0,0,7.871.864.864,0,0,0,.925,8.658ZM9.249,4.216a8.746,8.746,0,0,0,4.294,3.654,8.746,8.746,0,0,0-4.294,3.654A8.746,8.746,0,0,0,4.955,7.871,8.745,8.745,0,0,0,9.249,4.216Z" transform="translate(21.799 21.251)" fill="#ee0300"/>
            <path id="Path_324-3" data-name="Path 324" d="M.787,6.3a3.94,3.94,0,0,1,3.935,3.935.787.787,0,1,0,1.574,0A3.94,3.94,0,0,1,10.232,6.3a.787.787,0,0,0,0-1.574A3.94,3.94,0,0,1,6.3.787a.787.787,0,1,0-1.574,0A3.94,3.94,0,0,1,.787,4.722a.787.787,0,0,0,0,1.574ZM5.509,3.622A5.554,5.554,0,0,0,7.4,5.509,5.553,5.553,0,0,0,5.509,7.4,5.554,5.554,0,0,0,3.622,5.509,5.554,5.554,0,0,0,5.509,3.622Z" transform="translate(0)" fill="#ee0300"/>
            <ellipse id="Ellipse_72-4" data-name="Ellipse 72" cx="0.661" cy="0.661" rx="0.661" ry="0.661" transform="translate(21.138 21.138)" fill="#ee0300"/>
          </g>
        </g>
      </g>
    </g>
    <g id="search" transform="translate(7595 2844)">
      <path id="Path_344" data-name="Path 344" d="M178.76,41.38a33.38,33.38,0,1,0-38.943,32.914v6.029h-1.854a1.854,1.854,0,0,0-1.854,1.854v34.307a6.5,6.5,0,0,0,6.491,6.491h5.563a6.5,6.5,0,0,0,6.491-6.491V82.178a1.854,1.854,0,0,0-1.854-1.854h-1.854V74.294A33.431,33.431,0,0,0,178.76,41.38Zm-27.817,75.1a2.784,2.784,0,0,1-2.782,2.782H142.6a2.784,2.784,0,0,1-2.782-2.782V84.032h11.127Zm-7.418-36.162V74.76h3.709v5.563Zm1.854-9.272A29.671,29.671,0,1,1,175.051,41.38,29.671,29.671,0,0,1,145.38,71.051Z" fill="#ee0300"/>
      <path id="Path_345" data-name="Path 345" d="M195.643,87.707,186.37,72.872A1.851,1.851,0,0,0,184.8,72H155.128a1.851,1.851,0,0,0-1.572.872l-9.272,14.836a1.852,1.852,0,0,0,.213,2.244L168.6,115.913a1.851,1.851,0,0,0,2.717,0l24.108-25.962A1.852,1.852,0,0,0,195.643,87.707Zm-13.491-12L178.9,84.652l-5.591-8.943Zm-6.261,11.127H164.036l5.927-9.483Zm-9.272-11.127-5.591,8.943-3.252-8.943Zm-11.933,2.353,3.19,8.774H149.2Zm-4.576,12.483h9.115l5.867,16.136Zm19.854,18.681-6.794-18.681h13.588Zm4.873-2.545L180.7,90.544h9.115Zm7.216-19.845,3.19-8.774,5.485,8.774Z" transform="translate(-24.583 -49.164)" fill="#ee0300"/>
    </g>
  </g>
</svg>
