<svg xmlns="http://www.w3.org/2000/svg" width="61" height="61" viewBox="0 0 61 61">
  <g id="Group_828" data-name="Group 828" transform="translate(-314 -660)">
    <g id="Group_825" data-name="Group 825" transform="translate(171 38)">
      <g id="Group_774" data-name="Group 774" transform="translate(79 -2)">
        <circle id="Ellipse_83" data-name="Ellipse 83" cx="30.5" cy="30.5" r="30.5" transform="translate(64 624)" fill="#f5f5f5"/>
      </g>
    </g>
    <g id="Outline" transform="translate(315.471 654)">
      <path id="Path_615" data-name="Path 615" d="M10.633,57.331l5.253-7.223H26.068L27.3,52.155H25.089a.682.682,0,0,0-.585.331l-.62,1.033h-6.3a.682.682,0,0,0-.546.273L14.993,56.52l1.091.819,1.842-2.456h5.139L22.458,55.9l1.17.7,1.848-3.08h4.73l1.842,2.456,1.091-.819-2.046-2.729a.682.682,0,0,0-.546-.273h-1.66l-1.848-3.08a.682.682,0,0,0-.585-.331H24.9l1.949-3.411h8.076l1.553,2.729h-2.52v1.364h7.176l2.524,3.155a.682.682,0,0,0,.533.256h2.378l3.207,4.489,1.11-.793-3.411-4.775a.682.682,0,0,0-.555-.286h-2.4l-2.524-3.155a.682.682,0,0,0-.533-.256H39.415V32.372H40.1a.682.682,0,0,0,.682-.682V28.279A.682.682,0,0,0,40.1,27.6h-.682V22.631l7.72-2.573a.682.682,0,0,0,0-1.294l-8.186-2.729a.682.682,0,0,0-.9.647V27.6H35.088L33.84,26.349a2.711,2.711,0,0,0-1.929-.8H30.547V23.5h.682a.682.682,0,0,0,.656-.87l-.941-3.291c-.021-.072-.045-.144-.071-.213a3.4,3.4,0,0,0,1.038-2.447A.682.682,0,0,0,31.229,16H25.771a2.049,2.049,0,0,0-2.046,2.046v7.5H22.3a2.719,2.719,0,0,0-1.514.458l-.849.566.757,1.135.849-.566a1.36,1.36,0,0,1,.757-.229h4.155v5.457h1.364V26.915h4.093a1.356,1.356,0,0,1,.965.4l1.447,1.447a.682.682,0,0,0,.482.2h1.881v2.046H34.123a1.356,1.356,0,0,1-.965-.4l-2.129-2.129a.682.682,0,0,0-1.165.482v4.775H24.407V28.961a.682.682,0,0,0-.987-.61l-2.729,1.364a.682.682,0,0,0-.377.61v.682H18.268v-.951a1.362,1.362,0,0,1,.607-1.135l.453-.3-.757-1.135-.453.3a2.723,2.723,0,0,0-1.215,2.27v3.68H14.857a.682.682,0,0,0-.682.682v5.457a.682.682,0,0,0,.682.682h8.868a.682.682,0,0,0,.682-.682V35.1h9.55a1.366,1.366,0,0,1,1.364,1.364V41.24H32.593V38.511a.682.682,0,0,0-.682-.682H26.454a.682.682,0,0,0-.589.338l-4.578,7.848H18.063l2.166-3.9-1.193-.663L16.5,46.015h-.963a2.046,2.046,0,0,0-1.1,3.769L9.53,56.528Zm28.781-39.7,5.346,1.782-5.346,1.782Zm-9.55,4.511a.682.682,0,0,0-.682.682v.634a5.121,5.121,0,0,1-1.6-.49l-.144-.072-.61,1.22.144.072a6.5,6.5,0,0,0,2.208.645v.719H25.089V21.14l1.571-1.047H28.5a3.4,3.4,0,0,0,1.179-.21l.645,2.257ZM28.5,18.729H26.454a.682.682,0,0,0-.379.115l-.986.657V18.046a.683.683,0,0,1,.682-.682H30.43A2.05,2.05,0,0,1,28.5,18.729ZM18.268,32.372h2.046v1.364H18.268Zm4.775,6.822h-7.5V37.27l2.962.494a4.8,4.8,0,0,0,1.579,0l2.962-.494Zm0-3.307-3.187.531a3.452,3.452,0,0,1-1.131,0l-3.186-.531V35.1h7.5Zm0-2.151H21.678V30.747l1.364-.682ZM38.05,48.062h0l-1.553-2.729h.191a2.038,2.038,0,0,0,1.364-.523Zm0-19.1h1.364v2.046H38.05Zm-4.093,4.775H31.229V30.608l.965.965a2.711,2.711,0,0,0,1.929.8H38.05v9.391a2.038,2.038,0,0,0-1.364-.523V36.465A2.732,2.732,0,0,0,33.957,33.736ZM32.593,42.6h4.093a.682.682,0,0,1,0,1.364H32.593Zm-5.747-3.411h4.383v4.775H26.454a.682.682,0,0,0-.592.344l-2.532,4.431H21.418ZM15.539,47.379h5.036l-.682,1.364H15.539a.682.682,0,0,1,0-1.364Zm20.806,7.5L34.5,57.339l-1.091-.819,2.046-2.729A.682.682,0,0,1,36,53.519h4.775a.682.682,0,0,1,.546.273l2.046,2.729-1.091.819-1.842-2.456ZM26.454,20.775h1.364v1.364H26.454Z" fill="#24b685"/>
    </g>
  </g>
</svg>
