<svg xmlns="http://www.w3.org/2000/svg" width="61" height="61" viewBox="0 0 61 61">
  <g id="Group_832" data-name="Group 832" transform="translate(-516 -666)">
    <g id="Group_830" data-name="Group 830" transform="translate(146 19)">
      <g id="Group_826" data-name="Group 826" transform="translate(227 25)">
        <g id="Group_774" data-name="Group 774" transform="translate(79 -2)">
          <circle id="Ellipse_83" data-name="Ellipse 83" cx="30.5" cy="30.5" r="30.5" transform="translate(64 624)" fill="#f5f5f5"/>
        </g>
      </g>
    </g>
    <g id="data-scientist" transform="translate(533 678)">
      <path id="Path_639" data-name="Path 639" d="M34.287,19.365V14.2a2.873,2.873,0,0,0-2.87-2.87H16.5a2.833,2.833,0,0,0-1.248.3A7.385,7.385,0,0,0,12.08,9.455a4.592,4.592,0,1,0-4.933.006,7.467,7.467,0,0,0-5,7.035v2.87H1V36.582H36.582V19.365ZM19.939,28.548v-2.3h8.035v2.3ZM16.5,25.1a1.724,1.724,0,0,1-1.722-1.722v-.574H33.139v.574A1.724,1.724,0,0,1,31.417,25.1ZM31.417,12.478A1.724,1.724,0,0,1,33.139,14.2v7.461H14.774V14.2A1.724,1.724,0,0,1,16.5,12.478ZM6.165,5.591A3.443,3.443,0,1,1,9.609,9.035,3.447,3.447,0,0,1,6.165,5.591ZM3.3,16.5a6.32,6.32,0,0,1,6.313-6.313,6.252,6.252,0,0,1,4.73,2.145,2.845,2.845,0,0,0-.713,1.872v5.165H6.165V14.2H5.017v5.165H3.3Zm10.33,4.017v2.87a2.873,2.873,0,0,0,2.87,2.87h2.3v2.3H16.5V29.7H31.417V28.548h-2.3v-2.3h2.3a2.873,2.873,0,0,0,2.87-2.87v-2.87h1.148V31.991H2.148V20.513ZM2.148,35.434v-2.3H35.434v2.3Z" transform="translate(-5)" fill="#24b685"/>
      <path id="Path_640" data-name="Path 640" d="M9.531,45.055c1.531,0,4.531-.608,4.531-2.014V39.014c0-1.406-3-2.014-4.531-2.014S5,37.608,5,39.014v4.028C5,44.447,8,45.055,9.531,45.055Zm0-1.007c-1.731,0-3.426-.683-3.524-1.007v-.772a8.427,8.427,0,0,0,7.05,0v.761C12.957,43.366,11.262,44.049,9.531,44.049Zm0-6.042c1.711,0,3.387.668,3.522,1.007-.134.339-1.81,1.007-3.522,1.007-1.727,0-3.418-.68-3.524-.993v0C6.113,38.687,7.8,38.007,9.531,38.007ZM6.007,40.255a8.428,8.428,0,0,0,7.049,0v.762c-.1.336-1.8,1.017-3.525,1.017s-3.426-.683-3.524-1.007Z" transform="translate(-1.986 -17.875)" fill="#24b685"/>
      <path id="Path_641" data-name="Path 641" d="M27.51,6.035a1.5,1.5,0,0,0,.836-.254L30.1,7.1a1.479,1.479,0,0,0-.076.447,1.51,1.51,0,0,0,3.021,0A1.486,1.486,0,0,0,32.9,6.9l2.021-2.021a1.46,1.46,0,0,0,1.294,0l1.014,1.014a1.5,1.5,0,0,0-.151.647,1.51,1.51,0,1,0,3.021,0,1.486,1.486,0,0,0-.152-.647L41.967,3.87a1.5,1.5,0,0,0,.647.151A1.51,1.51,0,1,0,41.1,2.51a1.486,1.486,0,0,0,.152.647L39.234,5.179a1.46,1.46,0,0,0-1.294,0L36.925,4.165a1.5,1.5,0,0,0,.151-.647,1.51,1.51,0,0,0-3.021,0,1.486,1.486,0,0,0,.152.647L32.186,6.186a1.485,1.485,0,0,0-1.484.1L28.945,4.971a1.479,1.479,0,0,0,.076-.447,1.51,1.51,0,1,0-1.51,1.51Zm15.1-4.028a.5.5,0,1,1-.5.5A.5.5,0,0,1,42.614,2.007ZM39.09,6.538a.5.5,0,1,1-.5-.5A.5.5,0,0,1,39.09,6.538ZM35.566,3.014a.5.5,0,1,1-.5.5A.5.5,0,0,1,35.566,3.014ZM31.538,7.042a.5.5,0,1,1-.5.5A.5.5,0,0,1,31.538,7.042ZM27.51,4.021a.5.5,0,1,1-.5.5A.5.5,0,0,1,27.51,4.021Z" transform="translate(-12.413 0)" fill="#24b685"/>
      <path id="Path_642" data-name="Path 642" d="M41.09,28.035H40.083V23H37.062v5.035H36.055V25.014H33.035v3.021H32.028V24.007H29.007v4.028H28v1.007H41.09Zm-3.021-4.028h1.007v4.028H38.069Zm-4.028,2.014h1.007v2.014H34.042Zm-4.028-1.007h1.007v3.021H30.014Z" transform="translate(-13.406 -10.924)" fill="#24b685"/>
    </g>
  </g>
</svg>
