<svg xmlns="http://www.w3.org/2000/svg" width="61" height="61" viewBox="0 0 61 61">
  <g id="Group_833" data-name="Group 833" transform="translate(-516 -666)">
    <g id="Group_831" data-name="Group 831">
      <g id="Group_830" data-name="Group 830" transform="translate(146 19)">
        <g id="Group_826" data-name="Group 826" transform="translate(227 25)">
          <g id="Group_774" data-name="Group 774" transform="translate(79 -2)">
            <circle id="Ellipse_83" data-name="Ellipse 83" cx="30.5" cy="30.5" r="30.5" transform="translate(64 624)" fill="#f5f5f5"/>
          </g>
        </g>
      </g>
    </g>
    <g id="home" transform="translate(528 678.947)">
      <g id="Group_824" data-name="Group 824" transform="translate(1 0.053)">
        <g id="Group_823" data-name="Group 823">
          <path id="Path_643" data-name="Path 643" d="M49.461,34.4a.842.842,0,0,0-1.1.009l-2.3,2.057V36.2a.571.571,0,1,0-1.142,0v1.292l-.952.852a.571.571,0,0,0,.762.851l4.188-3.749L53.1,39.2a.571.571,0,1,0,.762-.851Z" transform="translate(-40.915 -31.916)" fill="#24b685"/>
          <path id="Path_644" data-name="Path 644" d="M68.212,119.52a.571.571,0,0,0-.571.571v4H61.929v-4a.571.571,0,0,0-1.142,0v4.361a.79.79,0,0,0,.8.78h6.4a.792.792,0,0,0,.8-.781v-4.359A.571.571,0,0,0,68.212,119.52Z" transform="translate(-56.786 -111.524)" fill="#24b685"/>
          <path id="Path_645" data-name="Path 645" d="M64.785,221.92a4,4,0,1,0,4,4A4,4,0,0,0,64.785,221.92Zm-2.856,4a2.861,2.861,0,0,1,2.284-2.8v2.475L62.1,226.861A2.816,2.816,0,0,1,61.929,225.918Zm.76,1.923,2.007-1.2,1.661,1.661A2.828,2.828,0,0,1,62.689,227.841Zm4.476-.351-1.809-1.808v-2.562a2.85,2.85,0,0,1,1.809,4.37Z" transform="translate(-56.786 -207.071)" fill="#24b685"/>
          <path id="Path_646" data-name="Path 646" d="M254.836,42.183V40.228a.9.9,0,0,0-.9-.9H252.31a.9.9,0,0,0-.9.9v1.955h-1.142V38.6a.989.989,0,0,0-.988-.988h-1.451a.989.989,0,0,0-.988.988v3.581H245.7V35.9a1.142,1.142,0,0,0-1.142-1.142h-1.142a1.142,1.142,0,0,0-1.142,1.142v6.282H241.7a.571.571,0,0,1-.571-.571V34.758a.571.571,0,0,0-1.142,0v6.854a1.713,1.713,0,0,0,1.713,1.713h13.136a.571.571,0,1,0,0-1.142Zm-10.28,0h-1.142V35.9h1.142Zm4.569,0h-1.142V38.756h1.142Zm4.569,0h-1.142V40.469h1.142v1.713Z" transform="translate(-223.992 -31.902)" fill="#24b685"/>
          <path id="Path_647" data-name="Path 647" d="M254.836,212.85H241.7a.571.571,0,0,1-.571-.571v-.906l1.881-1.881a.583.583,0,0,1,.808,0l.669.669a1.713,1.713,0,0,0,2.423,0l2.383-2.383a.583.583,0,0,1,.808,0l.669.67a1.717,1.717,0,0,0,2.423,0l2.048-2.048a.571.571,0,0,0-.808-.808l-2.048,2.048a.571.571,0,0,1-.808,0l-.669-.669a1.754,1.754,0,0,0-2.423,0l-2.383,2.383a.571.571,0,0,1-.808,0l-.669-.669a1.755,1.755,0,0,0-2.423,0l-1.073,1.073v-4.333a.571.571,0,0,0-1.142,0v6.854a1.713,1.713,0,0,0,1.713,1.713h13.136a.571.571,0,1,0,0-1.142Z" transform="translate(-223.992 -191.147)" fill="#24b685"/>
          <path id="Path_648" data-name="Path 648" d="M35.271,26.584V3.22A3.027,3.027,0,0,0,32.415.053H3.859A3.027,3.027,0,0,0,1,3.22V26.584a3.027,3.027,0,0,0,2.856,3.167H13v1.142H10.713a2.284,2.284,0,0,0-2.284,2.284v.571A.571.571,0,0,0,9,34.32H27.275a.571.571,0,0,0,.571-.571v-.571a2.284,2.284,0,0,0-2.284-2.284H23.278V29.751h9.138A3.027,3.027,0,0,0,35.271,26.584Zm-9.709,5.452A1.142,1.142,0,0,1,26.7,33.178H9.57a1.142,1.142,0,0,1,1.142-1.142ZM14.14,30.894V29.751h8v1.142Zm18.276-2.284H3.859a1.892,1.892,0,0,1-1.713-2.025v-1.4H34.129v1.4A1.892,1.892,0,0,1,32.415,28.609ZM34.129,3.22V24.04H2.146V3.22A1.891,1.891,0,0,1,3.859,1.2H32.416A1.891,1.891,0,0,1,34.129,3.22Z" transform="translate(-1 -0.053)" fill="#24b685"/>
        </g>
      </g>
    </g>
  </g>
</svg>
