<svg xmlns="http://www.w3.org/2000/svg" width="61" height="61" viewBox="0 0 61 61">
  <g id="Group_835" data-name="Group 835" transform="translate(-585 -666)">
    <g id="Group_834" data-name="Group 834" transform="translate(69)">
      <g id="Group_831" data-name="Group 831">
        <g id="Group_830" data-name="Group 830" transform="translate(146 19)">
          <g id="Group_826" data-name="Group 826" transform="translate(227 25)">
            <g id="Group_774" data-name="Group 774" transform="translate(79 -2)">
              <circle id="Ellipse_83" data-name="Ellipse 83" cx="30.5" cy="30.5" r="30.5" transform="translate(64 624)" fill="#f5f5f5"/>
            </g>
          </g>
        </g>
      </g>
    </g>
    <g id="phone-book" transform="translate(551 677)">
      <path id="Path_649" data-name="Path 649" d="M79.6,0H52.6a1.15,1.15,0,0,0-1.15,1.15V6.212h-1.3a1.15,1.15,0,0,0,0,2.3h1.3v3.834h-1.3a1.15,1.15,0,0,0,0,2.3h1.3v3.834h-1.3a1.15,1.15,0,0,0,0,2.3h1.3v3.834h-1.3a1.15,1.15,0,1,0,0,2.3h1.3v3.834h-1.3a1.15,1.15,0,0,0,0,2.3h1.3v5.061a1.15,1.15,0,0,0,1.15,1.15H79.6a1.15,1.15,0,0,0,1.15-1.15V1.15A1.15,1.15,0,0,0,79.6,0Zm-1.15,36.963H53.755V33.052h1.3a1.15,1.15,0,0,0,0-2.3h-1.3V26.917h1.3a1.15,1.15,0,1,0,0-2.3h-1.3V20.782h1.3a1.15,1.15,0,0,0,0-2.3h-1.3V14.647h1.3a1.15,1.15,0,0,0,0-2.3h-1.3V8.512h1.3a1.15,1.15,0,0,0,0-2.3h-1.3V2.3H78.447Z" fill="#24b685"/>
      <path id="Path_650" data-name="Path 650" d="M177,154.1a1.15,1.15,0,1,0,2.3,0c0-3.053,1.864-6.212,4.985-6.212s4.985,3.158,4.985,6.212a1.15,1.15,0,1,0,2.3,0,8.908,8.908,0,0,0-3.778-7.5,5.445,5.445,0,1,0-7.015,0A8.909,8.909,0,0,0,177,154.1Zm4.141-11.656a3.144,3.144,0,1,1,3.144,3.144A3.148,3.148,0,0,1,181.141,142.445Z" transform="translate(-118.184 -126.494)" fill="#24b685"/>
    </g>
  </g>
</svg>
