<svg xmlns="http://www.w3.org/2000/svg" width="61" height="61" viewBox="0 0 61 61">
  <g id="Group_837" data-name="Group 837" transform="translate(-675 -669)">
    <g id="Group_836" data-name="Group 836" transform="translate(90 3)">
      <g id="Group_834" data-name="Group 834" transform="translate(69)">
        <g id="Group_831" data-name="Group 831">
          <g id="Group_830" data-name="Group 830" transform="translate(146 19)">
            <g id="Group_826" data-name="Group 826" transform="translate(227 25)">
              <g id="Group_774" data-name="Group 774" transform="translate(79 -2)">
                <circle id="Ellipse_83" data-name="Ellipse 83" cx="30.5" cy="30.5" r="30.5" transform="translate(64 624)" fill="#f5f5f5"/>
              </g>
            </g>
          </g>
        </g>
      </g>
    </g>
    <g id="technical-support" transform="translate(685 679.001)">
      <path id="Path_651" data-name="Path 651" d="M7.373,32.418a3.418,3.418,0,0,0-1.652.422A19.331,19.331,0,0,1,24.808,2.02.819.819,0,0,0,25.132.415,21.116,21.116,0,0,0,20.96,0,20.96,20.96,0,0,0,4.51,33.949a3.44,3.44,0,1,0,2.862-1.531ZM8.646,37.13a1.8,1.8,0,1,1,.528-1.274A1.789,1.789,0,0,1,8.646,37.13Zm0,0" fill="#24b685"/>
      <path id="Path_652" data-name="Path 652" d="M218.724,37.4a3.432,3.432,0,1,0-1.21,1.111,19.331,19.331,0,0,1-19.05,30.827.819.819,0,1,0-.321,1.606,21.131,21.131,0,0,0,4.133.407A20.96,20.96,0,0,0,218.724,37.4Zm-4.135-.633a1.8,1.8,0,1,1,1.274.527A1.789,1.789,0,0,1,214.588,36.763Zm0,0" transform="translate(-181.315 -29.427)" fill="#24b685"/>
      <path id="Path_653" data-name="Path 653" d="M85.508,102.984a.819.819,0,0,0,.819.819h5.119a.819.819,0,0,0,.819-.819V101.4a12.821,12.821,0,0,0,3.073-1.274l1.121,1.121a.818.818,0,0,0,1.158,0l3.619-3.621a.819.819,0,0,0,0-1.158l-1.119-1.119a12.822,12.822,0,0,0,1.274-3.073h1.581a.819.819,0,0,0,.819-.819V86.334a.819.819,0,0,0-.819-.819h-1.582a12.824,12.824,0,0,0-1.273-3.073l1.113-1.113a.819.819,0,0,0,0-1.158l-3.621-3.619a.819.819,0,0,0-1.158,0l-1.112,1.112a12.822,12.822,0,0,0-3.073-1.274V74.819A.819.819,0,0,0,91.446,74H86.327a.819.819,0,0,0-.819.819v1.573a12.811,12.811,0,0,0-3.073,1.273l-1.112-1.112a.819.819,0,0,0-1.158,0l-3.621,3.619a.818.818,0,0,0,0,1.158l1.113,1.113a12.82,12.82,0,0,0-1.274,3.073H74.806a.819.819,0,0,0-.819.818l0,5.119a.818.818,0,0,0,.819.819h1.581a12.822,12.822,0,0,0,1.274,3.073l-1.119,1.119a.819.819,0,0,0,0,1.158l3.619,3.621a.819.819,0,0,0,.579.24h0a.819.819,0,0,0,.579-.24l1.12-1.121a12.831,12.831,0,0,0,3.073,1.274ZM82.756,98.4a.819.819,0,0,0-1.023.109l-1,1-2.461-2.463,1-1a.819.819,0,0,0,.109-1.023,11.207,11.207,0,0,1-1.551-3.743.819.819,0,0,0-.8-.647H75.622l0-3.482h1.4a.819.819,0,0,0,.8-.647,11.208,11.208,0,0,1,1.551-3.743.818.818,0,0,0-.109-1.023l-.99-.99,2.463-2.461.989.989a.819.819,0,0,0,1.023.109A11.2,11.2,0,0,1,86.5,77.836a.819.819,0,0,0,.647-.8v-1.4h3.482v1.4a.818.818,0,0,0,.647.8,11.212,11.212,0,0,1,3.743,1.551.818.818,0,0,0,1.023-.109l.989-.989,2.463,2.461-.99.99a.819.819,0,0,0-.109,1.023,11.215,11.215,0,0,1,1.551,3.743.818.818,0,0,0,.8.647h1.407v3.482h-1.407a.819.819,0,0,0-.8.647,11.205,11.205,0,0,1-1.551,3.743.819.819,0,0,0,.109,1.023l1,1-2.461,2.463-1-1a.819.819,0,0,0-1.023-.109,11.214,11.214,0,0,1-3.743,1.551.819.819,0,0,0-.647.8v1.413H87.146v-1.413a.819.819,0,0,0-.647-.8A11.208,11.208,0,0,1,82.756,98.4Zm0,0" transform="translate(-67.927 -67.942)" fill="#24b685"/>
      <path id="Path_654" data-name="Path 654" d="M186.9,180.136a6.765,6.765,0,1,0-6.765,6.765A6.773,6.773,0,0,0,186.9,180.136Zm-11.893,0a5.128,5.128,0,1,1,5.128,5.128A5.133,5.133,0,0,1,175.009,180.136Zm0,0" transform="translate(-159.177 -159.177)" fill="#24b685"/>
      <path id="Path_655" data-name="Path 655" d="M338.9,19.447a.819.819,0,1,0-.579-.24A.825.825,0,0,0,338.9,19.447Zm0,0" transform="translate(-310.398 -16.351)" fill="#24b685"/>
      <path id="Path_656" data-name="Path 656" d="M155.178,474.359a.819.819,0,1,0,.579.24A.825.825,0,0,0,155.178,474.359Zm0,0" transform="translate(-141.721 -435.521)" fill="#24b685"/>
    </g>
  </g>
</svg>
