<svg xmlns="http://www.w3.org/2000/svg" width="256.007" height="250.516" viewBox="0 0 256.007 250.516">
  <g id="Group_272" data-name="Group 272" transform="translate(-8378.814 -2734.484)">
    <g id="Group_271" data-name="Group 271" transform="translate(376 -2)">
      <g id="Group_261" data-name="Group 261" transform="translate(738 210)">
        <g id="Group_242" data-name="Group 242" transform="translate(568)">
          <path id="Path_319" data-name="Path 319" d="M6890.893,2984.676s-84.873,55-75.547,127.362,56.345,116.275,115.1,96.013c16.569-5.713,44.832-15.629,65.915-27.226,52.587-28.922,78.242-48.511,68.78-75.945-10.139-29.544-61.771-19.665-88.129-36.546s-8.512-51.343-9.444-75.464-9.526-30.386-24.449-30.386S6890.893,2984.676,6890.893,2984.676Z" transform="translate(-114.256 -436)" fill="#61b15a" opacity="0.1"/>
          <g id="star" transform="translate(6828.301 2572.072) rotate(77)" opacity="0.59">
            <path id="Path_323" data-name="Path 323" d="M.925,8.658c4.08,0,7.4,2.825,7.4,6.3a.865.865,0,0,0,.925.787.864.864,0,0,0,.925-.787c0-3.472,3.319-6.3,7.4-6.3a.864.864,0,0,0,.925-.787.865.865,0,0,0-.925-.787c-4.08,0-7.4-2.825-7.4-6.3A.864.864,0,0,0,9.249,0a.865.865,0,0,0-.925.787c0,3.472-3.319,6.3-7.4,6.3A.865.865,0,0,0,0,7.871.865.865,0,0,0,.925,8.658ZM9.249,4.216a8.746,8.746,0,0,0,4.294,3.654,8.746,8.746,0,0,0-4.294,3.654A8.746,8.746,0,0,0,4.955,7.871,8.745,8.745,0,0,0,9.249,4.216Z" transform="translate(21.799 21.251)" fill="#61b15a"/>
            <path id="Path_324" data-name="Path 324" d="M.787,6.3a3.94,3.94,0,0,1,3.935,3.935.787.787,0,1,0,1.574,0A3.94,3.94,0,0,1,10.232,6.3a.787.787,0,1,0,0-1.574A3.94,3.94,0,0,1,6.3.787a.787.787,0,0,0-1.574,0A3.94,3.94,0,0,1,.787,4.722a.787.787,0,1,0,0,1.574ZM5.509,3.622A5.554,5.554,0,0,0,7.4,5.509,5.553,5.553,0,0,0,5.509,7.4,5.554,5.554,0,0,0,3.622,5.509,5.554,5.554,0,0,0,5.509,3.622Z" transform="translate(0)" fill="#61b15a"/>
            <ellipse id="Ellipse_72" data-name="Ellipse 72" cx="0.661" cy="0.661" rx="0.661" ry="0.661" transform="translate(21.138 21.138)" fill="#61b15a"/>
          </g>
          <g id="star-2" data-name="star" transform="translate(6849.052 2697.382) rotate(51)" opacity="0.82">
            <path id="Path_323-2" data-name="Path 323" d="M.925,8.658c4.08,0,7.4,2.825,7.4,6.3a.865.865,0,0,0,.925.787.864.864,0,0,0,.925-.787c0-3.472,3.319-6.3,7.4-6.3a.864.864,0,0,0,.925-.787.865.865,0,0,0-.925-.787c-4.08,0-7.4-2.825-7.4-6.3A.864.864,0,0,0,9.249,0a.865.865,0,0,0-.925.787c0,3.472-3.319,6.3-7.4,6.3A.865.865,0,0,0,0,7.871.865.865,0,0,0,.925,8.658ZM9.249,4.216a8.746,8.746,0,0,0,4.294,3.654,8.746,8.746,0,0,0-4.294,3.654A8.746,8.746,0,0,0,4.955,7.871,8.745,8.745,0,0,0,9.249,4.216Z" transform="translate(0.66 0.112)" fill="#61b15a"/>
            <ellipse id="Ellipse_72-2" data-name="Ellipse 72" cx="0.661" cy="0.661" rx="0.661" ry="0.661" transform="translate(0)" fill="#61b15a"/>
          </g>
          <g id="star-3" data-name="star" transform="translate(6733.68 2714.405) rotate(14)" opacity="0.59">
            <path id="Path_323-3" data-name="Path 323" d="M.925,8.658c4.08,0,7.4,2.825,7.4,6.3a.865.865,0,0,0,.925.787.864.864,0,0,0,.925-.787c0-3.472,3.319-6.3,7.4-6.3a.864.864,0,0,0,.925-.787.865.865,0,0,0-.925-.787c-4.08,0-7.4-2.825-7.4-6.3A.864.864,0,0,0,9.249,0a.865.865,0,0,0-.925.787c0,3.472-3.319,6.3-7.4,6.3A.865.865,0,0,0,0,7.871.864.864,0,0,0,.925,8.658ZM9.249,4.216a8.746,8.746,0,0,0,4.294,3.654,8.746,8.746,0,0,0-4.294,3.654A8.746,8.746,0,0,0,4.955,7.871,8.745,8.745,0,0,0,9.249,4.216Z" transform="translate(31.095 14.848)" fill="#61b15a"/>
            <path id="Path_324-2" data-name="Path 324" d="M.787,6.3a3.94,3.94,0,0,1,3.935,3.935.787.787,0,1,0,1.574,0A3.94,3.94,0,0,1,10.232,6.3a.787.787,0,0,0,0-1.574A3.94,3.94,0,0,1,6.3.787a.787.787,0,1,0-1.574,0A3.94,3.94,0,0,1,.787,4.722a.787.787,0,0,0,0,1.574ZM5.509,3.622A5.554,5.554,0,0,0,7.4,5.509,5.553,5.553,0,0,0,5.509,7.4,5.554,5.554,0,0,0,3.622,5.509,5.554,5.554,0,0,0,5.509,3.622Z" transform="translate(0 0)" fill="#61b15a"/>
            <ellipse id="Ellipse_72-3" data-name="Ellipse 72" cx="0.661" cy="0.661" rx="0.661" ry="0.661" transform="translate(21.138 21.138)" fill="#61b15a"/>
          </g>
          <g id="star-4" data-name="star" transform="translate(6698.348 2606.452) rotate(8)" opacity="0.59">
            <path id="Path_323-4" data-name="Path 323" d="M.925,8.658c4.08,0,7.4,2.825,7.4,6.3a.865.865,0,0,0,.925.787.864.864,0,0,0,.925-.787c0-3.472,3.319-6.3,7.4-6.3a.864.864,0,0,0,.925-.787.865.865,0,0,0-.925-.787c-4.08,0-7.4-2.825-7.4-6.3A.864.864,0,0,0,9.249,0a.865.865,0,0,0-.925.787c0,3.472-3.319,6.3-7.4,6.3A.865.865,0,0,0,0,7.871.864.864,0,0,0,.925,8.658ZM9.249,4.216a8.746,8.746,0,0,0,4.294,3.654,8.746,8.746,0,0,0-4.294,3.654A8.746,8.746,0,0,0,4.955,7.871,8.745,8.745,0,0,0,9.249,4.216Z" transform="translate(21.799 21.251)" fill="#61b15a"/>
            <path id="Path_324-3" data-name="Path 324" d="M.787,6.3a3.94,3.94,0,0,1,3.935,3.935.787.787,0,1,0,1.574,0A3.94,3.94,0,0,1,10.232,6.3a.787.787,0,0,0,0-1.574A3.94,3.94,0,0,1,6.3.787a.787.787,0,1,0-1.574,0A3.94,3.94,0,0,1,.787,4.722a.787.787,0,0,0,0,1.574ZM5.509,3.622A5.554,5.554,0,0,0,7.4,5.509,5.553,5.553,0,0,0,5.509,7.4,5.554,5.554,0,0,0,3.622,5.509,5.554,5.554,0,0,0,5.509,3.622Z" transform="translate(0)" fill="#61b15a"/>
            <ellipse id="Ellipse_72-4" data-name="Ellipse 72" cx="0.661" cy="0.661" rx="0.661" ry="0.661" transform="translate(21.138 21.138)" fill="#61b15a"/>
          </g>
        </g>
      </g>
    </g>
    <g id="chart" transform="translate(8430.523 2842.979)">
      <g id="Group_269" data-name="Group 269" transform="translate(0 0.021)">
        <g id="Group_268" data-name="Group 268">
          <path id="Path_346" data-name="Path 346" d="M73.267,75.57H7.451V9.755A1.242,1.242,0,0,0,6.209,8.513H1.242a1.242,1.242,0,1,0,0,2.484H4.967v4.967H3.725a1.242,1.242,0,0,0,0,2.484H4.967v4.967H3.725a1.242,1.242,0,1,0,0,2.484H4.967v4.967H1.242a1.242,1.242,0,0,0,0,2.484H4.967v4.967H3.725a1.242,1.242,0,1,0,0,2.484H4.967v4.967H3.725a1.242,1.242,0,1,0,0,2.484H4.967v4.967H1.242a1.242,1.242,0,1,0,0,2.484H4.967v4.967H3.725a1.242,1.242,0,1,0,0,2.484H4.967v4.967H3.725a1.242,1.242,0,1,0,0,2.484H4.967v4.967H1.242a1.242,1.242,0,1,0,0,2.484H4.967v2.484a1.242,1.242,0,1,0,2.484,0V78.053h4.967v2.484a1.242,1.242,0,1,0,2.484,0V78.053h4.967v2.484a1.242,1.242,0,1,0,2.484,0V78.053h4.967v2.484a1.242,1.242,0,1,0,2.484,0V78.053H34.77v2.484a1.242,1.242,0,1,0,2.484,0V78.053h4.967v2.484a1.242,1.242,0,1,0,2.484,0V78.053h4.967v2.484a1.242,1.242,0,1,0,2.484,0V78.053h4.967v2.484a1.242,1.242,0,1,0,2.484,0V78.053h4.967v2.484a1.242,1.242,0,1,0,2.484,0V78.053h4.967v2.484a1.242,1.242,0,1,0,2.484,0V76.811A1.239,1.239,0,0,0,73.267,75.57Z" transform="translate(0 -7.277)" fill="#61b15a"/>
          <path id="Path_347" data-name="Path 347" d="M69.089,151.956a1.242,1.242,0,0,0,1.208-.339l10.3-10.3,5.331,5.331a1.242,1.242,0,0,0,1.756,0l10.812-10.812h.728a3.726,3.726,0,0,0,3.725-3.725v-.728l1.242-1.242,4.71,4.71a1.242,1.242,0,0,0,1.756,0l21.732-21.732a1.242,1.242,0,0,0-1.756-1.756L109.778,132.22l-4.71-4.71a1.242,1.242,0,0,0-1.756,0l-1.034,1.034a1.209,1.209,0,0,0-.571-.156H91.771a1.242,1.242,0,0,0-1.242,1.242v2.484a3.725,3.725,0,0,0,3.725,3.725h.728L86.8,144.017l-5.331-5.331a1.242,1.242,0,0,0-1.756,0L68.541,149.862a1.242,1.242,0,0,0,.548,2.095Zm25.166-18.6a1.242,1.242,0,0,1-1.242-1.242v-1.242h7.451v1.242a1.242,1.242,0,0,1-1.242,1.242Z" transform="translate(-58.243 -94.865)" fill="#61b15a"/>
          <path id="Path_348" data-name="Path 348" d="M174.724,22.162c1.783,2.491,3.468,4.848,3.522,7.681a1.242,1.242,0,0,0,1.242,1.218h9.934a1.242,1.242,0,0,0,1.242-1.218c.053-2.833,1.739-5.19,3.522-7.687a29.887,29.887,0,0,0,2.821-4.489A11.843,11.843,0,0,0,193.694,3.51a13.979,13.979,0,0,0-18.478,0A11.843,11.843,0,0,0,171.9,17.673,29.876,29.876,0,0,0,174.724,22.162Zm2.13-16.791a11.494,11.494,0,0,1,15.2,0A9.413,9.413,0,0,1,194.763,16.6a27.62,27.62,0,0,1-2.6,4.108c-1.7,2.384-3.456,4.843-3.886,7.866h-7.647c-.43-3.026-2.183-5.481-3.886-7.866a27.642,27.642,0,0,1-2.6-4.108A9.413,9.413,0,0,1,176.854,5.371Z" transform="translate(-145.959 -0.021)" fill="#61b15a"/>
          <path id="Path_349" data-name="Path 349" d="M265.776,358.379a1.242,1.242,0,0,0-1.242,1.242V370.8a1.242,1.242,0,0,0,2.483,0v-1.242L270,371.79a1.242,1.242,0,1,0,1.49-1.987l-3.642-2.732,3.642-2.732a1.242,1.242,0,1,0-1.49-1.987l-2.98,2.235v-4.967A1.242,1.242,0,0,0,265.776,358.379Z" transform="translate(-226.038 -306.229)" fill="#61b15a"/>
          <path id="Path_350" data-name="Path 350" d="M336.73,359.218l-2.547,7.642-1.305-3.917a1.242,1.242,0,0,0-2.359,0l-1.3,3.917-2.547-7.642a1.243,1.243,0,0,0-2.359.785l3.725,11.176a1.244,1.244,0,0,0,2.359,0l1.305-3.917,1.305,3.917a1.242,1.242,0,0,0,2.36,0L339.09,360a1.243,1.243,0,0,0-2.36-.785Z" transform="translate(-277.06 -306.219)" fill="#61b15a"/>
          <path id="Path_351" data-name="Path 351" d="M441.409,372.04a1.242,1.242,0,0,0,1.242-1.242v-3.725a2.484,2.484,0,0,0-2.484-2.484h-2.484v-4.967a1.242,1.242,0,1,0-2.483,0V370.8a1.242,1.242,0,0,0,2.483,0v-3.725h2.484V370.8A1.242,1.242,0,0,0,441.409,372.04Z" transform="translate(-371.868 -306.23)" fill="#61b15a"/>
        </g>
      </g>
    </g>
  </g>
</svg>
