<svg xmlns="http://www.w3.org/2000/svg" width="256.007" height="250.516" viewBox="0 0 256.007 250.516">
  <g id="Group_277" data-name="Group 277" transform="translate(-8143.814 -3000.484)">
    <g id="Group_276" data-name="Group 276">
      <g id="Group_273" data-name="Group 273" transform="translate(-235 266)">
        <g id="Group_271" data-name="Group 271" transform="translate(376 -2)">
          <g id="Group_261" data-name="Group 261" transform="translate(738 210)">
            <g id="Group_242" data-name="Group 242" transform="translate(568)">
              <path id="Path_319" data-name="Path 319" d="M6890.893,2984.676s-84.873,55-75.547,127.362,56.345,116.275,115.1,96.013c16.569-5.713,44.832-15.629,65.915-27.226,52.587-28.922,78.242-48.511,68.78-75.945-10.139-29.544-61.771-19.665-88.129-36.546s-8.512-51.343-9.444-75.464-9.526-30.386-24.449-30.386S6890.893,2984.676,6890.893,2984.676Z" transform="translate(-114.256 -436)" fill="#61b15a" opacity="0.1"/>
              <g id="star" transform="translate(6828.301 2572.072) rotate(77)" opacity="0.59">
                <path id="Path_323" data-name="Path 323" d="M.925,8.658c4.08,0,7.4,2.825,7.4,6.3a.865.865,0,0,0,.925.787.864.864,0,0,0,.925-.787c0-3.472,3.319-6.3,7.4-6.3a.864.864,0,0,0,.925-.787.865.865,0,0,0-.925-.787c-4.08,0-7.4-2.825-7.4-6.3A.864.864,0,0,0,9.249,0a.865.865,0,0,0-.925.787c0,3.472-3.319,6.3-7.4,6.3A.865.865,0,0,0,0,7.871.865.865,0,0,0,.925,8.658ZM9.249,4.216a8.746,8.746,0,0,0,4.294,3.654,8.746,8.746,0,0,0-4.294,3.654A8.746,8.746,0,0,0,4.955,7.871,8.745,8.745,0,0,0,9.249,4.216Z" transform="translate(21.799 21.251)" fill="#61b15a"/>
                <path id="Path_324" data-name="Path 324" d="M.787,6.3a3.94,3.94,0,0,1,3.935,3.935.787.787,0,1,0,1.574,0A3.94,3.94,0,0,1,10.232,6.3a.787.787,0,1,0,0-1.574A3.94,3.94,0,0,1,6.3.787a.787.787,0,0,0-1.574,0A3.94,3.94,0,0,1,.787,4.722a.787.787,0,1,0,0,1.574ZM5.509,3.622A5.554,5.554,0,0,0,7.4,5.509,5.553,5.553,0,0,0,5.509,7.4,5.554,5.554,0,0,0,3.622,5.509,5.554,5.554,0,0,0,5.509,3.622Z" transform="translate(0)" fill="#61b15a"/>
                <ellipse id="Ellipse_72" data-name="Ellipse 72" cx="0.661" cy="0.661" rx="0.661" ry="0.661" transform="translate(21.138 21.138)" fill="#61b15a"/>
              </g>
              <g id="star-2" data-name="star" transform="translate(6849.052 2697.382) rotate(51)" opacity="0.82">
                <path id="Path_323-2" data-name="Path 323" d="M.925,8.658c4.08,0,7.4,2.825,7.4,6.3a.865.865,0,0,0,.925.787.864.864,0,0,0,.925-.787c0-3.472,3.319-6.3,7.4-6.3a.864.864,0,0,0,.925-.787.865.865,0,0,0-.925-.787c-4.08,0-7.4-2.825-7.4-6.3A.864.864,0,0,0,9.249,0a.865.865,0,0,0-.925.787c0,3.472-3.319,6.3-7.4,6.3A.865.865,0,0,0,0,7.871.865.865,0,0,0,.925,8.658ZM9.249,4.216a8.746,8.746,0,0,0,4.294,3.654,8.746,8.746,0,0,0-4.294,3.654A8.746,8.746,0,0,0,4.955,7.871,8.745,8.745,0,0,0,9.249,4.216Z" transform="translate(0.66 0.112)" fill="#61b15a"/>
                <ellipse id="Ellipse_72-2" data-name="Ellipse 72" cx="0.661" cy="0.661" rx="0.661" ry="0.661" transform="translate(0)" fill="#61b15a"/>
              </g>
              <g id="star-3" data-name="star" transform="translate(6733.68 2714.405) rotate(14)" opacity="0.59">
                <path id="Path_323-3" data-name="Path 323" d="M.925,8.658c4.08,0,7.4,2.825,7.4,6.3a.865.865,0,0,0,.925.787.864.864,0,0,0,.925-.787c0-3.472,3.319-6.3,7.4-6.3a.864.864,0,0,0,.925-.787.865.865,0,0,0-.925-.787c-4.08,0-7.4-2.825-7.4-6.3A.864.864,0,0,0,9.249,0a.865.865,0,0,0-.925.787c0,3.472-3.319,6.3-7.4,6.3A.865.865,0,0,0,0,7.871.864.864,0,0,0,.925,8.658ZM9.249,4.216a8.746,8.746,0,0,0,4.294,3.654,8.746,8.746,0,0,0-4.294,3.654A8.746,8.746,0,0,0,4.955,7.871,8.745,8.745,0,0,0,9.249,4.216Z" transform="translate(31.095 14.848)" fill="#61b15a"/>
                <path id="Path_324-2" data-name="Path 324" d="M.787,6.3a3.94,3.94,0,0,1,3.935,3.935.787.787,0,1,0,1.574,0A3.94,3.94,0,0,1,10.232,6.3a.787.787,0,0,0,0-1.574A3.94,3.94,0,0,1,6.3.787a.787.787,0,1,0-1.574,0A3.94,3.94,0,0,1,.787,4.722a.787.787,0,0,0,0,1.574ZM5.509,3.622A5.554,5.554,0,0,0,7.4,5.509,5.553,5.553,0,0,0,5.509,7.4,5.554,5.554,0,0,0,3.622,5.509,5.554,5.554,0,0,0,5.509,3.622Z" transform="translate(0 0)" fill="#61b15a"/>
                <ellipse id="Ellipse_72-3" data-name="Ellipse 72" cx="0.661" cy="0.661" rx="0.661" ry="0.661" transform="translate(21.138 21.138)" fill="#61b15a"/>
              </g>
              <g id="star-4" data-name="star" transform="translate(6698.348 2606.452) rotate(8)" opacity="0.59">
                <path id="Path_323-4" data-name="Path 323" d="M.925,8.658c4.08,0,7.4,2.825,7.4,6.3a.865.865,0,0,0,.925.787.864.864,0,0,0,.925-.787c0-3.472,3.319-6.3,7.4-6.3a.864.864,0,0,0,.925-.787.865.865,0,0,0-.925-.787c-4.08,0-7.4-2.825-7.4-6.3A.864.864,0,0,0,9.249,0a.865.865,0,0,0-.925.787c0,3.472-3.319,6.3-7.4,6.3A.865.865,0,0,0,0,7.871.864.864,0,0,0,.925,8.658ZM9.249,4.216a8.746,8.746,0,0,0,4.294,3.654,8.746,8.746,0,0,0-4.294,3.654A8.746,8.746,0,0,0,4.955,7.871,8.745,8.745,0,0,0,9.249,4.216Z" transform="translate(21.799 21.251)" fill="#61b15a"/>
                <path id="Path_324-3" data-name="Path 324" d="M.787,6.3a3.94,3.94,0,0,1,3.935,3.935.787.787,0,1,0,1.574,0A3.94,3.94,0,0,1,10.232,6.3a.787.787,0,0,0,0-1.574A3.94,3.94,0,0,1,6.3.787a.787.787,0,1,0-1.574,0A3.94,3.94,0,0,1,.787,4.722a.787.787,0,0,0,0,1.574ZM5.509,3.622A5.554,5.554,0,0,0,7.4,5.509,5.553,5.553,0,0,0,5.509,7.4,5.554,5.554,0,0,0,3.622,5.509,5.554,5.554,0,0,0,5.509,3.622Z" transform="translate(0)" fill="#61b15a"/>
                <ellipse id="Ellipse_72-4" data-name="Ellipse 72" cx="0.661" cy="0.661" rx="0.661" ry="0.661" transform="translate(21.138 21.138)" fill="#61b15a"/>
              </g>
            </g>
          </g>
        </g>
      </g>
      <g id="save-money" transform="translate(8198.641 3083)">
        <path id="Path_361" data-name="Path 361" d="M193.812,173.6a1.7,1.7,0,0,0-.612-.021,4.059,4.059,0,0,1-3.59-4.025,1.786,1.786,0,1,0-3.571,0,7.639,7.639,0,0,0,5.616,7.355v1.786a1.786,1.786,0,0,0,3.571,0v-1.677a7.625,7.625,0,0,0-1.562-15.087,4.054,4.054,0,1,1,4.054-4.054,1.786,1.786,0,0,0,3.571,0,7.639,7.639,0,0,0-6.063-7.464v-1.625a1.786,1.786,0,0,0-3.571,0v1.734a7.624,7.624,0,0,0,2.009,14.979,4.051,4.051,0,0,1,.148,8.1Zm0,0" transform="translate(-144.237 -114.191)" fill="#61b15a"/>
        <path id="Path_362" data-name="Path 362" d="M104.195,132.384a25.892,25.892,0,1,0,25.892-25.892A25.892,25.892,0,0,0,104.195,132.384Zm25.892-22.321a22.321,22.321,0,1,1-22.321,22.321A22.32,22.32,0,0,1,130.087,110.063Zm0,0" transform="translate(-80.66 -82.724)" fill="#61b15a"/>
        <path id="Path_363" data-name="Path 363" d="M84.12,333.47l-13.987,6.609a11.392,11.392,0,0,0-9.712-5.993l-12.912-.355a13.637,13.637,0,0,1-5.868-1.515l-1.314-.681a23.175,23.175,0,0,0-21.466.023l.082-2.976a1.786,1.786,0,0,0-1.736-1.834l-14.159-.39a1.785,1.785,0,0,0-1.833,1.736L.36,359.163A1.786,1.786,0,0,0,2.1,361l14.159.39H16.3a1.785,1.785,0,0,0,1.786-1.737l.041-1.486,3.678-1.97a6.309,6.309,0,0,1,4.709-.515l21.965,6.165c.038.011.077.02.116.029a23.513,23.513,0,0,0,4.827.5,23.823,23.823,0,0,0,9.952-2.172,1.659,1.659,0,0,0,.221-.122l31.847-20.6a1.786,1.786,0,0,0,.585-2.378A9.019,9.019,0,0,0,84.12,333.47ZM3.979,357.477l.757-27.5,10.588.291-.757,27.5Zm57.79-.467a20.244,20.244,0,0,1-12.38,1.382l-21.906-6.149a9.873,9.873,0,0,0-7.36.8l-1.88,1.007.5-18.285a19.627,19.627,0,0,1,19.939-1.064l1.314.681a17.245,17.245,0,0,0,7.412,1.915l12.913.355a7.832,7.832,0,0,1,7.443,6.241l-19.234-.531a1.786,1.786,0,0,0-.1,3.57l21.226.584h.05a1.786,1.786,0,0,0,1.784-1.737,11.332,11.332,0,0,0-.173-2.316l14.346-6.779.042-.02a5.455,5.455,0,0,1,6.169.864Zm0,0" transform="translate(0 -253.516)" fill="#61b15a"/>
        <path id="Path_364" data-name="Path 364" d="M215.774,18.748V1.786a1.786,1.786,0,1,0-3.571,0V18.748a1.786,1.786,0,1,0,3.571,0Zm0,0" transform="translate(-164.562)" fill="#61b15a"/>
        <path id="Path_365" data-name="Path 365" d="M275.774,49.82V41.786a1.786,1.786,0,1,0-3.571,0V49.82a1.786,1.786,0,1,0,3.571,0Zm0,0" transform="translate(-211.171 -31.072)" fill="#61b15a"/>
        <path id="Path_366" data-name="Path 366" d="M155.774,49.82V41.786a1.786,1.786,0,1,0-3.571,0V49.82a1.786,1.786,0,1,0,3.571,0Zm0,0" transform="translate(-117.953 -31.072)" fill="#61b15a"/>
      </g>
    </g>
  </g>
</svg>
