<svg xmlns="http://www.w3.org/2000/svg" width="256.007" height="250.516" viewBox="0 0 256.007 250.516">
  <g id="Group_278" data-name="Group 278" transform="translate(-8456.814 -3032.484)">
    <g id="Group_275" data-name="Group 275" transform="translate(62 -313)">
      <g id="simulation" transform="translate(8447 3435)">
        <path id="Path_367" data-name="Path 367" d="M118.751,194.141l-16.981-3.184v-3.49h-.009a16.741,16.741,0,0,0,1.355-1.129,16.079,16.079,0,0,0,3.749-5.332,8.036,8.036,0,0,0,7.772-8.014V153.556a9.8,9.8,0,0,0-6.757-9.306l-.175-.221a21.4,21.4,0,0,0-38.1,13.365v15.6a8.044,8.044,0,0,0,7.918,8.029,16.6,16.6,0,0,0,5.068,6.446h-.119v3.49l-16.981,3.184a14.479,14.479,0,0,0-11.064,9.649l-1.53,4.586h78.448l-1.53-4.586a14.48,14.48,0,0,0-11.062-9.649ZM104.986,164.95H79.253a1.609,1.609,0,0,1,1.608-1.608h6.433a13.166,13.166,0,0,0,9.374-3.883l.276-.276.276.276a13.248,13.248,0,0,0,6.5,3.569,1.59,1.59,0,0,1,1.261,1.558ZM79.253,174.1v-5.936h25.734V174.6H79.275c0-.166-.023-.33-.023-.5Zm28.651,3.511a15.97,15.97,0,0,0,.3-3.014v-6.137a4.8,4.8,0,0,1-.3,9.151ZM91,139.216a18.092,18.092,0,0,1,14.194,6.821l.824,1.03.513.137a6.576,6.576,0,0,1,4.893,6.352V166.6a7.962,7.962,0,0,0-3.217-1.486v-.526a4.793,4.793,0,0,0-3.783-4.7,9.994,9.994,0,0,1-4.925-2.7l-2.551-2.551-2.551,2.551a9.974,9.974,0,0,1-7.1,2.94H80.861a4.831,4.831,0,0,0-4.825,4.825v.163a7.983,7.983,0,0,0-3.217,1.486v-9.206A18.2,18.2,0,0,1,91,139.216ZM72.819,172.992a4.818,4.818,0,0,1,3.217-4.529v5.64a17.091,17.091,0,0,0,.381,3.536,4.819,4.819,0,0,1-3.6-4.647Zm6.941,4.825h24.808a12.845,12.845,0,0,1-13.31,9.623,12.962,12.962,0,0,1-11.5-9.623ZM91.053,190.65c.362.023.724.034,1.082.034a15.955,15.955,0,0,0,6.418-1.348v2.647c-.349.767-1.92,3.525-6.433,3.525-4.48,0-6.067-2.738-6.433-3.532v-2.683A15.479,15.479,0,0,0,91.053,190.65ZM57.36,205.159l.115-.35a11.27,11.27,0,0,1,8.608-7.506l17.1-3.207c1.048,1.747,3.582,4.63,8.935,4.63s7.887-2.884,8.935-4.629l17.1,3.207a11.272,11.272,0,0,1,8.608,7.506l.115.349Zm0,0" transform="translate(-42.261 -108.658)" fill="#ee0300"/>
        <path id="Path_368" data-name="Path 368" d="M22.517,240H0v35.384H22.517ZM19.3,272.167H3.217v-28.95H19.3Zm0,0" transform="translate(0 -191.75)" fill="#ee0300"/>
        <path id="Path_369" data-name="Path 369" d="M32,272h9.65v3.217H32Zm0,0" transform="translate(-25.567 -217.316)" fill="#ee0300"/>
        <path id="Path_370" data-name="Path 370" d="M32,304h9.65v3.217H32Zm0,0" transform="translate(-25.567 -242.883)" fill="#ee0300"/>
        <path id="Path_371" data-name="Path 371" d="M32,336h9.65v3.217H32Zm0,0" transform="translate(-25.567 -268.449)" fill="#ee0300"/>
        <path id="Path_372" data-name="Path 372" d="M32,368h9.65v3.217H32Zm0,0" transform="translate(-25.567 -294.016)" fill="#ee0300"/>
        <path id="Path_373" data-name="Path 373" d="M41.817,20.909H38.6v-9.65H28.95v9.65H25.734V4.825h-9.65V20.909H12.867V0H3.217V20.909H0v3.217H41.817Zm-9.65-6.433h3.217v6.433H32.167ZM19.3,8.042h3.217V20.909H19.3ZM6.433,3.217H9.65V20.909H6.433Zm0,0" fill="#ee0300"/>
        <path id="Path_374" data-name="Path 374" d="M303.724,0l-21.38,21.38,2.274,2.274L305.056,3.217H325.3V0Zm0,0" transform="translate(-225.581)" fill="#ee0300"/>
        <path id="Path_375" data-name="Path 375" d="M400,32h19.3v3.217H400Zm0,0" transform="translate(-319.583 -25.567)" fill="#ee0300"/>
        <path id="Path_376" data-name="Path 376" d="M400,64h19.3v3.217H400Zm0,0" transform="translate(-319.583 -51.133)" fill="#ee0300"/>
        <path id="Path_377" data-name="Path 377" d="M480,96h3.217v3.217H480Zm0,0" transform="translate(-383.499 -76.7)" fill="#ee0300"/>
        <path id="Path_378" data-name="Path 378" d="M400,96h12.867v3.217H400Zm0,0" transform="translate(-319.583 -76.7)" fill="#ee0300"/>
        <path id="Path_379" data-name="Path 379" d="M440,184h3.217v4.825H440Zm0,0" transform="translate(-351.541 -147.008)" fill="#ee0300"/>
        <path id="Path_380" data-name="Path 380" d="M408.4,194.686l2.274-2.275,3.412,3.412-2.275,2.274Zm0,0" transform="translate(-326.295 -153.728)" fill="#ee0300"/>
        <path id="Path_381" data-name="Path 381" d="M400,224h4.825v3.217H400Zm0,0" transform="translate(-319.583 -178.966)" fill="#ee0300"/>
        <path id="Path_382" data-name="Path 382" d="M408.406,246.724l3.411-3.411,2.275,2.274L410.68,249Zm0,0" transform="translate(-326.299 -194.396)" fill="#ee0300"/>
        <path id="Path_383" data-name="Path 383" d="M440,256h3.217v4.825H440Zm0,0" transform="translate(-351.541 -204.533)" fill="#ee0300"/>
        <path id="Path_384" data-name="Path 384" d="M459.309,245.587l2.275-2.274L465,246.724,462.721,249Zm0,0" transform="translate(-366.968 -194.396)" fill="#ee0300"/>
        <path id="Path_385" data-name="Path 385" d="M472,224h4.825v3.217H472Zm0,0" transform="translate(-377.107 -178.966)" fill="#ee0300"/>
        <path id="Path_386" data-name="Path 386" d="M459.309,195.815l3.411-3.412,2.274,2.274-3.411,3.412Zm0,0" transform="translate(-366.968 -153.721)" fill="#ee0300"/>
        <path id="Path_387" data-name="Path 387" d="M440,296h3.217v11.258H440Zm0,0" transform="translate(-351.541 -236.491)" fill="#ee0300"/>
        <path id="Path_388" data-name="Path 388" d="M440,368h3.217v3.217H440Zm0,0" transform="translate(-351.541 -294.016)" fill="#ee0300"/>
      </g>
      <g id="Group_274" data-name="Group 274" transform="translate(747 585)">
        <g id="Group_266" data-name="Group 266" transform="translate(-20 359)">
          <g id="Group_258" data-name="Group 258" transform="translate(702 -125)">
            <g id="Group_240" data-name="Group 240" transform="translate(269)">
              <path id="Path_319" data-name="Path 319" d="M6890.893,2984.676s-84.873,55-75.547,127.362,56.345,116.275,115.1,96.013c16.569-5.713,44.832-15.629,65.915-27.226,52.587-28.922,78.242-48.511,68.78-75.945-10.139-29.544-61.771-19.665-88.129-36.546s-8.512-51.343-9.444-75.464-9.526-30.386-24.449-30.386S6890.893,2984.676,6890.893,2984.676Z" transform="translate(-114.256 -436)" fill="#ee0300" opacity="0.1"/>
              <g id="star" transform="translate(6828.301 2572.072) rotate(77)" opacity="0.59">
                <path id="Path_323" data-name="Path 323" d="M.925,8.658c4.08,0,7.4,2.825,7.4,6.3a.865.865,0,0,0,.925.787.864.864,0,0,0,.925-.787c0-3.472,3.319-6.3,7.4-6.3a.864.864,0,0,0,.925-.787.865.865,0,0,0-.925-.787c-4.08,0-7.4-2.825-7.4-6.3A.864.864,0,0,0,9.249,0a.865.865,0,0,0-.925.787c0,3.472-3.319,6.3-7.4,6.3A.865.865,0,0,0,0,7.871.865.865,0,0,0,.925,8.658ZM9.249,4.216a8.746,8.746,0,0,0,4.294,3.654,8.746,8.746,0,0,0-4.294,3.654A8.746,8.746,0,0,0,4.955,7.871,8.745,8.745,0,0,0,9.249,4.216Z" transform="translate(21.799 21.251)" fill="#ee0300"/>
                <path id="Path_324" data-name="Path 324" d="M.787,6.3a3.94,3.94,0,0,1,3.935,3.935.787.787,0,1,0,1.574,0A3.94,3.94,0,0,1,10.232,6.3a.787.787,0,1,0,0-1.574A3.94,3.94,0,0,1,6.3.787a.787.787,0,0,0-1.574,0A3.94,3.94,0,0,1,.787,4.722a.787.787,0,1,0,0,1.574ZM5.509,3.622A5.554,5.554,0,0,0,7.4,5.509,5.553,5.553,0,0,0,5.509,7.4,5.554,5.554,0,0,0,3.622,5.509,5.554,5.554,0,0,0,5.509,3.622Z" transform="translate(0)" fill="#ee0300"/>
                <ellipse id="Ellipse_72" data-name="Ellipse 72" cx="0.661" cy="0.661" rx="0.661" ry="0.661" transform="translate(21.138 21.138)" fill="#61b15a"/>
              </g>
              <g id="star-2" data-name="star" transform="translate(6849.052 2697.382) rotate(51)" opacity="0.82">
                <path id="Path_323-2" data-name="Path 323" d="M.925,8.658c4.08,0,7.4,2.825,7.4,6.3a.865.865,0,0,0,.925.787.864.864,0,0,0,.925-.787c0-3.472,3.319-6.3,7.4-6.3a.864.864,0,0,0,.925-.787.865.865,0,0,0-.925-.787c-4.08,0-7.4-2.825-7.4-6.3A.864.864,0,0,0,9.249,0a.865.865,0,0,0-.925.787c0,3.472-3.319,6.3-7.4,6.3A.865.865,0,0,0,0,7.871.865.865,0,0,0,.925,8.658ZM9.249,4.216a8.746,8.746,0,0,0,4.294,3.654,8.746,8.746,0,0,0-4.294,3.654A8.746,8.746,0,0,0,4.955,7.871,8.745,8.745,0,0,0,9.249,4.216Z" transform="translate(0.66 0.112)" fill="#ee0300"/>
                <ellipse id="Ellipse_72-2" data-name="Ellipse 72" cx="0.661" cy="0.661" rx="0.661" ry="0.661" transform="translate(0)" fill="#61b15a"/>
              </g>
              <g id="star-3" data-name="star" transform="translate(6733.68 2714.405) rotate(14)" opacity="0.59">
                <path id="Path_323-3" data-name="Path 323" d="M.925,8.658c4.08,0,7.4,2.825,7.4,6.3a.865.865,0,0,0,.925.787.864.864,0,0,0,.925-.787c0-3.472,3.319-6.3,7.4-6.3a.864.864,0,0,0,.925-.787.865.865,0,0,0-.925-.787c-4.08,0-7.4-2.825-7.4-6.3A.864.864,0,0,0,9.249,0a.865.865,0,0,0-.925.787c0,3.472-3.319,6.3-7.4,6.3A.865.865,0,0,0,0,7.871.864.864,0,0,0,.925,8.658ZM9.249,4.216a8.746,8.746,0,0,0,4.294,3.654,8.746,8.746,0,0,0-4.294,3.654A8.746,8.746,0,0,0,4.955,7.871,8.745,8.745,0,0,0,9.249,4.216Z" transform="translate(31.095 14.848)" fill="#ee0300"/>
                <path id="Path_324-2" data-name="Path 324" d="M.787,6.3a3.94,3.94,0,0,1,3.935,3.935.787.787,0,1,0,1.574,0A3.94,3.94,0,0,1,10.232,6.3a.787.787,0,0,0,0-1.574A3.94,3.94,0,0,1,6.3.787a.787.787,0,1,0-1.574,0A3.94,3.94,0,0,1,.787,4.722a.787.787,0,0,0,0,1.574ZM5.509,3.622A5.554,5.554,0,0,0,7.4,5.509,5.553,5.553,0,0,0,5.509,7.4,5.554,5.554,0,0,0,3.622,5.509,5.554,5.554,0,0,0,5.509,3.622Z" transform="translate(0 0)" fill="#ee0300"/>
                <ellipse id="Ellipse_72-3" data-name="Ellipse 72" cx="0.661" cy="0.661" rx="0.661" ry="0.661" transform="translate(21.138 21.138)" fill="#61b15a"/>
              </g>
              <g id="star-4" data-name="star" transform="translate(6698.348 2606.452) rotate(8)" opacity="0.59">
                <path id="Path_323-4" data-name="Path 323" d="M.925,8.658c4.08,0,7.4,2.825,7.4,6.3a.865.865,0,0,0,.925.787.864.864,0,0,0,.925-.787c0-3.472,3.319-6.3,7.4-6.3a.864.864,0,0,0,.925-.787.865.865,0,0,0-.925-.787c-4.08,0-7.4-2.825-7.4-6.3A.864.864,0,0,0,9.249,0a.865.865,0,0,0-.925.787c0,3.472-3.319,6.3-7.4,6.3A.865.865,0,0,0,0,7.871.864.864,0,0,0,.925,8.658ZM9.249,4.216a8.746,8.746,0,0,0,4.294,3.654,8.746,8.746,0,0,0-4.294,3.654A8.746,8.746,0,0,0,4.955,7.871,8.745,8.745,0,0,0,9.249,4.216Z" transform="translate(21.799 21.251)" fill="#ee0300"/>
                <path id="Path_324-3" data-name="Path 324" d="M.787,6.3a3.94,3.94,0,0,1,3.935,3.935.787.787,0,1,0,1.574,0A3.94,3.94,0,0,1,10.232,6.3a.787.787,0,0,0,0-1.574A3.94,3.94,0,0,1,6.3.787a.787.787,0,1,0-1.574,0A3.94,3.94,0,0,1,.787,4.722a.787.787,0,0,0,0,1.574ZM5.509,3.622A5.554,5.554,0,0,0,7.4,5.509,5.553,5.553,0,0,0,5.509,7.4,5.554,5.554,0,0,0,3.622,5.509,5.554,5.554,0,0,0,5.509,3.622Z" transform="translate(0)" fill="#ee0300"/>
                <ellipse id="Ellipse_72-4" data-name="Ellipse 72" cx="0.661" cy="0.661" rx="0.661" ry="0.661" transform="translate(21.138 21.138)" fill="#ee0300"/>
              </g>
            </g>
          </g>
        </g>
      </g>
    </g>
  </g>
</svg>
