<svg xmlns="http://www.w3.org/2000/svg" width="256.007" height="250.516" viewBox="0 0 256.007 250.516">
  <g id="Group_279" data-name="Group 279" transform="translate(-8368.814 -3502.484)">
    <g id="responsible-energy-use" transform="translate(8363.305 3576)">
      <g id="Group_270" data-name="Group 270" transform="translate(53.696)">
        <path id="Path_352" data-name="Path 352" d="M313.856,162.175l5.451,3.816a2.593,2.593,0,0,0,2.974-4.248l-5.453-3.817a2.593,2.593,0,0,0-2.972,4.249Z" transform="translate(-240.286 -113.413)" fill="#ed2826"/>
        <path id="Path_353" data-name="Path 353" d="M109.218,166.46a2.577,2.577,0,0,0,1.485-.468l5.451-3.816a2.592,2.592,0,1,0-2.972-4.248l-5.453,3.816a2.592,2.592,0,0,0,1.488,4.716Z" transform="translate(-91.819 -113.413)" fill="#ed2826"/>
        <path id="Path_354" data-name="Path 354" d="M315.344,73.629a2.576,2.576,0,0,0,1.484-.469l5.453-3.817a2.592,2.592,0,1,0-2.974-4.247l-5.451,3.816a2.592,2.592,0,0,0,1.488,4.716Z" transform="translate(-240.286 -46.55)" fill="#ed2826"/>
        <path id="Path_355" data-name="Path 355" d="M107.729,69.344l5.452,3.816a2.592,2.592,0,1,0,2.973-4.247L110.7,65.1a2.592,2.592,0,1,0-2.973,4.247Z" transform="translate(-91.819 -46.55)" fill="#ed2826"/>
        <path id="Path_356" data-name="Path 356" d="M222.021,11.036a2.6,2.6,0,0,0,2.592-2.593V2.592a2.592,2.592,0,1,0-5.184,0V8.444A2.6,2.6,0,0,0,222.021,11.036Z" transform="translate(-173.069)" fill="#ed2826"/>
        <path id="Path_357" data-name="Path 357" d="M216.185,176.289l4.56-29.424-4.785.924a1.5,1.5,0,0,1-.564,0l-4.748-.905,4.589,29.408Z" transform="translate(-166.744 -105.783)" fill="#ed2826"/>
        <path id="Path_358" data-name="Path 358" d="M161.479,110.177a2,2,0,0,0,.046.426,2.132,2.132,0,0,0-.859,1.71c0,.8,1.119,1.148,1.092,1.862s-2.314,1.111-2.314,2.409c0,1.334,2.452,1.591,2.452,2.416s-1.23,1.077-1.23,1.932a2.136,2.136,0,0,0,2.137,2.137h14.443a2.136,2.136,0,0,0,2.137-2.137c0-2.46-11.405-1.932-11.405-1.932s12.626-.03,12.626-2.416-13.3-2.409-13.3-2.409,12.075.023,12.075-1.862a2.131,2.131,0,0,0-.859-1.71,1.985,1.985,0,0,0,.046-.426c0-6.931,3.292-12.238,6.777-17.856,3.67-5.917,7.465-12.034,7.465-20.286a22.787,22.787,0,0,0-45.574,0c0,8.261,3.8,14.4,7.477,20.333C158.193,97.985,161.479,103.29,161.479,110.177Zm.654-36.563a1.5,1.5,0,0,1,1.325-.39l6.576,1.261,6.568-1.263a1.5,1.5,0,0,1,1.756,1.7l-5.08,32.783a1.5,1.5,0,0,1-1.479,1.267h-3.512a1.5,1.5,0,0,1-1.479-1.265l-5.116-32.783A1.5,1.5,0,0,1,162.133,73.614Z" transform="translate(-121.072 -35.472)" fill="#ed2826"/>
        <path id="Path_359" data-name="Path 359" d="M93.554,231.777c-.444-1.088-.942-2.164-1.479-3.2-3.514-6.79-8.34-11.321-13.008-15.7-1.315-1.234-2.991-3.165-4.765-5.21-2.59-2.984-5.268-6.069-7.067-7.245-1.631-1.065-2.963-1.095-3.961-.087-1.455,1.471-1.026,4.21,1.392,8.881,1.616,3.123,3.959,6.8,6.44,10.694.4.625.8,1.262,1.211,1.9A63.641,63.641,0,0,1,62.71,208.8c-2.28-4.405-2.744-7.809-1.305-9.584,1.016-1.253,2.95-1.565,5.445-.877l.37.1-.089-.374c-.046-.193-4.657-19.4-5.631-23.038a11.413,11.413,0,0,0-.887-2.3c-1.343-2.595-3.465-4.17-5.047-3.746-.763.205-2.02,1.073-1.855,4.587l2.4,30.323c.123.99.21,2.027.3,3.126.28,3.36.57,6.834,1.945,9.489a16.621,16.621,0,0,0,2.025,3.051c1.424,1.707,5.385,5.828,9.578,10.191,4.082,4.247,8.3,8.639,9.845,10.472a26.048,26.048,0,0,1,3.2,4.849,39.427,39.427,0,0,1,1.969,4.536H99.73l-.222-.753A176.158,176.158,0,0,0,93.554,231.777Z" transform="translate(-53.696 -121.664)" fill="#ed2826"/>
        <path id="Path_360" data-name="Path 360" d="M283.291,168.985c-1.582-.424-3.7,1.151-5.047,3.746a11.4,11.4,0,0,0-.887,2.3c-.974,3.636-5.585,22.845-5.631,23.038l-.089.373.37-.1c2.5-.688,4.429-.377,5.445.877,1.439,1.775.975,5.179-1.305,9.583a63.674,63.674,0,0,1-9.607,13.013l1.211-1.9c2.481-3.894,4.824-7.572,6.44-10.694,2.418-4.672,2.848-7.411,1.392-8.881-1-1.008-2.331-.978-3.961.087-1.8,1.177-4.478,4.262-7.067,7.246-1.774,2.045-3.45,3.975-4.765,5.21-4.668,4.382-9.494,8.913-13.008,15.7-.537,1.037-1.034,2.113-1.479,3.2a176.282,176.282,0,0,0-5.955,17.079l-.222.753h14.754a39.376,39.376,0,0,1,1.969-4.536,26.047,26.047,0,0,1,3.2-4.849c1.542-1.834,5.763-6.226,9.845-10.473,4.194-4.363,8.154-8.484,9.578-10.191a16.632,16.632,0,0,0,2.025-3.051c1.375-2.656,1.665-6.129,1.945-9.489.092-1.1.178-2.136.3-3.126l2.4-30.323C285.312,170.058,284.055,169.191,283.291,168.985Z" transform="translate(-187.257 -121.666)" fill="#ed2826"/>
      </g>
    </g>
    <g id="Group_274" data-name="Group 274" transform="translate(940 807)">
      <g id="Group_266" data-name="Group 266" transform="translate(-19 359)">
        <g id="Group_258" data-name="Group 258" transform="translate(482 -190)">
          <g id="Group_240" data-name="Group 240" transform="translate(269)">
            <path id="Path_319" data-name="Path 319" d="M6890.893,2984.676s-84.873,55-75.547,127.362,56.345,116.275,115.1,96.013c16.569-5.713,44.832-15.629,65.915-27.226,52.587-28.922,78.242-48.511,68.78-75.945-10.139-29.544-61.771-19.665-88.129-36.546s-8.512-51.343-9.444-75.464-9.526-30.386-24.449-30.386S6890.893,2984.676,6890.893,2984.676Z" transform="translate(-114.256 -436)" fill="#ee0300" opacity="0.1"/>
            <g id="star" transform="translate(6828.301 2572.072) rotate(77)" opacity="0.59">
              <path id="Path_323" data-name="Path 323" d="M.925,8.658c4.08,0,7.4,2.825,7.4,6.3a.865.865,0,0,0,.925.787.864.864,0,0,0,.925-.787c0-3.472,3.319-6.3,7.4-6.3a.864.864,0,0,0,.925-.787.865.865,0,0,0-.925-.787c-4.08,0-7.4-2.825-7.4-6.3A.864.864,0,0,0,9.249,0a.865.865,0,0,0-.925.787c0,3.472-3.319,6.3-7.4,6.3A.865.865,0,0,0,0,7.871.865.865,0,0,0,.925,8.658ZM9.249,4.216a8.746,8.746,0,0,0,4.294,3.654,8.746,8.746,0,0,0-4.294,3.654A8.746,8.746,0,0,0,4.955,7.871,8.745,8.745,0,0,0,9.249,4.216Z" transform="translate(21.799 21.251)" fill="#ee0300"/>
              <path id="Path_324" data-name="Path 324" d="M.787,6.3a3.94,3.94,0,0,1,3.935,3.935.787.787,0,1,0,1.574,0A3.94,3.94,0,0,1,10.232,6.3a.787.787,0,1,0,0-1.574A3.94,3.94,0,0,1,6.3.787a.787.787,0,0,0-1.574,0A3.94,3.94,0,0,1,.787,4.722a.787.787,0,1,0,0,1.574ZM5.509,3.622A5.554,5.554,0,0,0,7.4,5.509,5.553,5.553,0,0,0,5.509,7.4,5.554,5.554,0,0,0,3.622,5.509,5.554,5.554,0,0,0,5.509,3.622Z" transform="translate(0)" fill="#ee0300"/>
              <ellipse id="Ellipse_72" data-name="Ellipse 72" cx="0.661" cy="0.661" rx="0.661" ry="0.661" transform="translate(21.138 21.138)" fill="#61b15a"/>
            </g>
            <g id="star-2" data-name="star" transform="translate(6849.052 2697.382) rotate(51)" opacity="0.82">
              <path id="Path_323-2" data-name="Path 323" d="M.925,8.658c4.08,0,7.4,2.825,7.4,6.3a.865.865,0,0,0,.925.787.864.864,0,0,0,.925-.787c0-3.472,3.319-6.3,7.4-6.3a.864.864,0,0,0,.925-.787.865.865,0,0,0-.925-.787c-4.08,0-7.4-2.825-7.4-6.3A.864.864,0,0,0,9.249,0a.865.865,0,0,0-.925.787c0,3.472-3.319,6.3-7.4,6.3A.865.865,0,0,0,0,7.871.865.865,0,0,0,.925,8.658ZM9.249,4.216a8.746,8.746,0,0,0,4.294,3.654,8.746,8.746,0,0,0-4.294,3.654A8.746,8.746,0,0,0,4.955,7.871,8.745,8.745,0,0,0,9.249,4.216Z" transform="translate(0.66 0.112)" fill="#ee0300"/>
              <ellipse id="Ellipse_72-2" data-name="Ellipse 72" cx="0.661" cy="0.661" rx="0.661" ry="0.661" transform="translate(0)" fill="#61b15a"/>
            </g>
            <g id="star-3" data-name="star" transform="translate(6733.68 2714.405) rotate(14)" opacity="0.59">
              <path id="Path_323-3" data-name="Path 323" d="M.925,8.658c4.08,0,7.4,2.825,7.4,6.3a.865.865,0,0,0,.925.787.864.864,0,0,0,.925-.787c0-3.472,3.319-6.3,7.4-6.3a.864.864,0,0,0,.925-.787.865.865,0,0,0-.925-.787c-4.08,0-7.4-2.825-7.4-6.3A.864.864,0,0,0,9.249,0a.865.865,0,0,0-.925.787c0,3.472-3.319,6.3-7.4,6.3A.865.865,0,0,0,0,7.871.864.864,0,0,0,.925,8.658ZM9.249,4.216a8.746,8.746,0,0,0,4.294,3.654,8.746,8.746,0,0,0-4.294,3.654A8.746,8.746,0,0,0,4.955,7.871,8.745,8.745,0,0,0,9.249,4.216Z" transform="translate(31.095 14.848)" fill="#ee0300"/>
              <path id="Path_324-2" data-name="Path 324" d="M.787,6.3a3.94,3.94,0,0,1,3.935,3.935.787.787,0,1,0,1.574,0A3.94,3.94,0,0,1,10.232,6.3a.787.787,0,0,0,0-1.574A3.94,3.94,0,0,1,6.3.787a.787.787,0,1,0-1.574,0A3.94,3.94,0,0,1,.787,4.722a.787.787,0,0,0,0,1.574ZM5.509,3.622A5.554,5.554,0,0,0,7.4,5.509,5.553,5.553,0,0,0,5.509,7.4,5.554,5.554,0,0,0,3.622,5.509,5.554,5.554,0,0,0,5.509,3.622Z" transform="translate(0 0)" fill="#ee0300"/>
              <ellipse id="Ellipse_72-3" data-name="Ellipse 72" cx="0.661" cy="0.661" rx="0.661" ry="0.661" transform="translate(21.138 21.138)" fill="#61b15a"/>
            </g>
            <g id="star-4" data-name="star" transform="translate(6698.348 2606.452) rotate(8)" opacity="0.59">
              <path id="Path_323-4" data-name="Path 323" d="M.925,8.658c4.08,0,7.4,2.825,7.4,6.3a.865.865,0,0,0,.925.787.864.864,0,0,0,.925-.787c0-3.472,3.319-6.3,7.4-6.3a.864.864,0,0,0,.925-.787.865.865,0,0,0-.925-.787c-4.08,0-7.4-2.825-7.4-6.3A.864.864,0,0,0,9.249,0a.865.865,0,0,0-.925.787c0,3.472-3.319,6.3-7.4,6.3A.865.865,0,0,0,0,7.871.864.864,0,0,0,.925,8.658ZM9.249,4.216a8.746,8.746,0,0,0,4.294,3.654,8.746,8.746,0,0,0-4.294,3.654A8.746,8.746,0,0,0,4.955,7.871,8.745,8.745,0,0,0,9.249,4.216Z" transform="translate(21.799 21.251)" fill="#ee0300"/>
              <path id="Path_324-3" data-name="Path 324" d="M.787,6.3a3.94,3.94,0,0,1,3.935,3.935.787.787,0,1,0,1.574,0A3.94,3.94,0,0,1,10.232,6.3a.787.787,0,0,0,0-1.574A3.94,3.94,0,0,1,6.3.787a.787.787,0,1,0-1.574,0A3.94,3.94,0,0,1,.787,4.722a.787.787,0,0,0,0,1.574ZM5.509,3.622A5.554,5.554,0,0,0,7.4,5.509,5.553,5.553,0,0,0,5.509,7.4,5.554,5.554,0,0,0,3.622,5.509,5.554,5.554,0,0,0,5.509,3.622Z" transform="translate(0)" fill="#ee0300"/>
              <ellipse id="Ellipse_72-4" data-name="Ellipse 72" cx="0.661" cy="0.661" rx="0.661" ry="0.661" transform="translate(21.138 21.138)" fill="#ee0300"/>
            </g>
          </g>
        </g>
      </g>
    </g>
  </g>
</svg>
