<svg xmlns="http://www.w3.org/2000/svg" width="100" height="100" viewBox="0 0 100 100">
  <g id="Group_872" data-name="Group 872" transform="translate(-12156 -5281)">
    <circle id="Ellipse_96" data-name="Ellipse 96" cx="50" cy="50" r="50" transform="translate(12156 5281)" fill="#e6ffd7"/>
    <g id="simulation_1_" data-name="simulation (1)" transform="translate(12174 5299)">
      <path id="Path_193" data-name="Path 193" d="M34,23.764a2.236,2.236,0,0,1-4,0l-.1-.211-1.789.9.1.211a4.236,4.236,0,0,0,7.578,0l.1-.211-1.789-.9Z" fill="#24b685"/>
      <path id="Path_194" data-name="Path 194" d="M37,17h2v2H37Z" fill="#24b685"/>
      <path id="Path_195" data-name="Path 195" d="M29,17h6v2H29Z" fill="#24b685"/>
      <path id="Path_196" data-name="Path 196" d="M25,17h2v2H25Z" fill="#24b685"/>
      <path id="Path_197" data-name="Path 197" d="M58,41a5.006,5.006,0,0,0,5-5V10a5.006,5.006,0,0,0-5-5H45V4a3,3,0,0,0-3-3H32.325a9.756,9.756,0,0,0-7.881,4H6a5.006,5.006,0,0,0-5,5V36a5.006,5.006,0,0,0,5,5H9V33H21.911a8.624,8.624,0,0,0-3.4,2.076A8.516,8.516,0,0,0,16,41.135v2.783C8.953,44.794,1,46.547,1,50v4c0,3.453,7.954,5.208,15,6.084v3.721L26.887,57l-9.6-6H48V49.936C57.776,51.185,61,53.191,61,54h2V50c0-3.453-7.953-5.206-15-6.082V41.135a8.518,8.518,0,0,0-2.509-6.059A8.624,8.624,0,0,0,42.089,33H55v8Zm3-5a3,3,0,0,1-3,3H57V15h1a4.98,4.98,0,0,0,3-1ZM43,13.123a5.772,5.772,0,0,1-.134,1.174,1.992,1.992,0,0,0-1.63-1.273,9.5,9.5,0,0,0,1.482-1.412A4.294,4.294,0,0,1,43,13.123ZM41,15v6H23V15ZM36.877,34.135l-.642,4.24L33.613,36.8l2.741-2.741Zm-9.231-.074L30.387,36.8l-2.622,1.574-.642-4.24Zm7.247-1.368L32,35.586l-2.893-2.893.506-2.025a8.756,8.756,0,0,0,4.773,0ZM32,29a7,7,0,0,1-6.92-6H38.92A7,7,0,0,1,32,29ZM26.633,13a5.357,5.357,0,0,1,1.939-1.738A8.191,8.191,0,0,0,30.1,13ZM32.325,3H42a1,1,0,0,1,1,1V5.317a7.845,7.845,0,0,1-1.32,4.361A7.447,7.447,0,0,1,35.472,13a6.2,6.2,0,0,1-5.578-3.447l-.388-.776-.823.274A7.364,7.364,0,0,0,24.325,13H23a2,2,0,0,0-1.866,1.3A5.772,5.772,0,0,1,21,13.123,4.275,4.275,0,0,1,24.243,8.97l.532-.133.174-.521A7.765,7.765,0,0,1,32.325,3ZM7,39H6a3,3,0,0,1-3-3V14a4.98,4.98,0,0,0,3,1H7ZM6,13A3,3,0,1,1,6,7H23.314c-.026.063-.056.122-.081.186A6.27,6.27,0,0,0,19,13.123a7.774,7.774,0,0,0,1.108,4L21,18.61V21a2,2,0,0,0,2,2h.059a9.017,9.017,0,0,0,4.679,6.924L27.469,31H9V13ZM16,45.936V48.12c-5.351.67-9.577,1.67-12.074,2.855C3.287,50.58,3,50.237,3,50,3,49.192,6.224,47.185,16,45.936ZM18,53.8,23.113,57,18,60.195V58.306l-.885-.1C6.45,56.971,3,54.839,3,54V52.729c2.979,1.825,8.777,2.871,13.885,3.462L18,56.319ZM16,51v3.068a50.49,50.49,0,0,1-9.527-1.973A51.7,51.7,0,0,1,16,50.134V51Zm45-1v1.271c-2.808-1.721-8.121-2.748-13-3.355v-1.98C57.776,47.185,61,49.192,61,50ZM46,41.135V49H42V43H40v6H24V43H22v6H18V41.135a6.531,6.531,0,0,1,1.923-4.645,6.607,6.607,0,0,1,3.715-1.856l1.5-.215,1.092,7.206L31,38.766V43h2V38.766l4.765,2.859,1.092-7.206,1.505.215a6.6,6.6,0,0,1,3.714,1.856A6.526,6.526,0,0,1,46,41.135ZM36.531,31l-.269-1.076A9.015,9.015,0,0,0,40.941,23H41a2,2,0,0,0,2-2V18.61l.892-1.486a7.78,7.78,0,0,0,1.108-4A6.281,6.281,0,0,0,43.959,9.7,9.828,9.828,0,0,0,44.842,7H58a3,3,0,0,1,0,6H55V31Z" fill="#24b685"/>
      <path id="Path_198" data-name="Path 198" d="M11,27h2v2H11Z" fill="#24b685"/>
      <path id="Path_199" data-name="Path 199" d="M15,27h2v2H15Z" fill="#24b685"/>
      <path id="Path_200" data-name="Path 200" d="M11,23h8v2H11Z" fill="#24b685"/>
      <path id="Path_201" data-name="Path 201" d="M11,19h8v2H11Z" fill="#24b685"/>
      <path id="Path_202" data-name="Path 202" d="M51,21h2v2H51Z" fill="#24b685"/>
      <path id="Path_203" data-name="Path 203" d="M47,21h2v2H47Z" fill="#24b685"/>
      <path id="Path_204" data-name="Path 204" d="M47,17h6v2H47Z" fill="#24b685"/>
      <path id="Path_205" data-name="Path 205" d="M47,13h6v2H47Z" fill="#24b685"/>
      <path id="Path_206" data-name="Path 206" d="M50,55c-3.932,0-18.146.017-18.98,0L30,54.98v6l.98.02c.865.017,15.048,0,19.02,0v2.617L61.236,58,50,52.382Zm2,2V55.618L56.764,58,52,60.382V59H51c-.169,0-14.945.015-19,.005v-2c4.047.012,18.316,0,19-.005Z" fill="#24b685"/>
    </g>
  </g>
</svg>
