<svg xmlns="http://www.w3.org/2000/svg" width="100" height="100" viewBox="0 0 100 100">
  <g id="Group_876" data-name="Group 876" transform="translate(-12414 -5308)">
    <g id="Group_875" data-name="Group 875" transform="translate(106 26)">
      <g id="Group_873" data-name="Group 873" transform="translate(152 1)">
        <circle id="Ellipse_96" data-name="Ellipse 96" cx="50" cy="50" r="50" transform="translate(12156 5281)" fill="#e6ffd7"/>
      </g>
    </g>
    <g id="online-library" transform="translate(12396.634 5302.355)">
      <path id="Path_172" data-name="Path 172" d="M287.789,298H286.4a.857.857,0,0,0,0,1.713h1.391a.857.857,0,1,0,0-1.713Z" transform="translate(-213.603 -236.044)" fill="#24b685"/>
      <path id="Path_173" data-name="Path 173" d="M228.4,298h-6.684a.857.857,0,0,0,0,1.713H228.4a.857.857,0,0,0,0-1.713Z" transform="translate(-158.155 -236.044)" fill="#24b685"/>
      <path id="Path_174" data-name="Path 174" d="M257.5,281H251.07a.857.857,0,1,0,0,1.713H257.5a.857.857,0,1,0,0-1.713Z" transform="translate(-183.317 -221.471)" fill="#24b685"/>
      <path id="Path_175" data-name="Path 175" d="M221.717,282.713h1.64a.857.857,0,1,0,0-1.713h-1.64a.857.857,0,0,0,0,1.713Z" transform="translate(-158.155 -221.471)" fill="#24b685"/>
      <path id="Path_176" data-name="Path 176" d="M221.857,202.709h10.565a.857.857,0,0,0,.857-.857v-6a.857.857,0,0,0-.857-.857H221.857a.857.857,0,0,0-.857.857v6A.857.857,0,0,0,221.857,202.709Zm.857-6h8.851V201h-8.851Z" transform="translate(-158.275 -147.749)" fill="#24b685"/>
      <path id="Path_177" data-name="Path 177" d="M137.687,53.909a13.924,13.924,0,0,0-7.169,6.313,2.7,2.7,0,0,1-2.184,1.409,8.867,8.867,0,0,0-5.162,2.135.857.857,0,1,0,1.116,1.3,7.167,7.167,0,0,1,4.171-1.726,4.408,4.408,0,0,0,3.565-2.3,12.208,12.208,0,0,1,6.285-5.535.857.857,0,1,0-.621-1.6Z" transform="translate(-74.157 -26.75)" fill="#24b685"/>
      <path id="Path_178" data-name="Path 178" d="M247.72,47.642a13.985,13.985,0,0,0-1.606.093.857.857,0,0,0,.1,1.708.846.846,0,0,0,.1-.006,12.264,12.264,0,0,1,1.41-.082.857.857,0,0,0,0-1.713Z" transform="translate(-179.151 -21.428)" fill="#24b685"/>
      <path id="Path_179" data-name="Path 179" d="M197.995,422.494l-1.666,1.64v-6.594a.857.857,0,0,0-1.713,0v6.594L193,422.494a.842.842,0,0,0-1.2,0,.857.857,0,0,0,.006,1.211l3.106,3.1a.86.86,0,0,0,1.213,0l3.1-3.1a.857.857,0,0,0-.013-1.211A.872.872,0,0,0,197.995,422.494Z" transform="translate(-133.032 -337.784)" fill="#24b685"/>
      <path id="Path_180" data-name="Path 180" d="M213.857,379.588a.857.857,0,0,0,.857-.857v-.09a.857.857,0,0,0-1.713,0v.09A.857.857,0,0,0,213.857,379.588Z" transform="translate(-151.417 -304.438)" fill="#24b685"/>
      <path id="Path_181" data-name="Path 181" d="M213,397.544a.857.857,0,1,0,1.713,0V397.5a.857.857,0,1,0-1.713,0Z" transform="translate(-151.417 -320.607)" fill="#24b685"/>
      <path id="Path_182" data-name="Path 182" d="M115.605,422.494l-1.643,1.64v-6.594a.857.857,0,0,0-1.713,0v6.594l-1.638-1.64a.857.857,0,1,0-1.209,1.211l3.1,3.1a.857.857,0,0,0,1.212,0l3.1-3.1a.857.857,0,1,0-1.214-1.212Z" transform="translate(-62.373 -337.784)" fill="#24b685"/>
      <path id="Path_183" data-name="Path 183" d="M131.857,379.588a.857.857,0,0,0,.857-.857v-.09a.857.857,0,0,0-1.713,0v.09A.857.857,0,0,0,131.857,379.588Z" transform="translate(-81.124 -304.438)" fill="#24b685"/>
      <path id="Path_184" data-name="Path 184" d="M131,397.544a.857.857,0,1,0,1.713,0V397.5a.857.857,0,1,0-1.713,0Z" transform="translate(-81.124 -320.607)" fill="#24b685"/>
      <path id="Path_185" data-name="Path 185" d="M280.479,422.494l-1.618,1.64v-6.594a.857.857,0,0,0-1.713,0v6.594l-1.663-1.64a.871.871,0,0,0-1.223,0,.857.857,0,0,0-.006,1.211l3.1,3.1a.854.854,0,0,0,1.209,0l3.1-3.1a.857.857,0,0,0,.011-1.211.844.844,0,0,0-1.2,0Z" transform="translate(-203.716 -337.784)" fill="#24b685"/>
      <path id="Path_186" data-name="Path 186" d="M296.857,379.588a.857.857,0,0,0,.857-.857v-.09a.857.857,0,0,0-1.713,0v.09A.857.857,0,0,0,296.857,379.588Z" transform="translate(-222.567 -304.438)" fill="#24b685"/>
      <path id="Path_187" data-name="Path 187" d="M296,397.544a.857.857,0,1,0,1.713,0V397.5a.857.857,0,1,0-1.713,0Z" transform="translate(-222.567 -320.607)" fill="#24b685"/>
      <path id="Path_188" data-name="Path 188" d="M353.7,422.494l-1.638,1.64v-6.594a.857.857,0,0,0-1.713,0v6.594l-1.643-1.64a.857.857,0,1,0-1.214,1.211l3.1,3.1a.857.857,0,0,0,1.211,0l3.1-3.1a.856.856,0,1,0-1.209-1.211Z" transform="translate(-266.49 -337.784)" fill="#24b685"/>
      <path id="Path_189" data-name="Path 189" d="M369.857,379.588a.857.857,0,0,0,.857-.857v-.09a.857.857,0,0,0-1.713,0v.09A.857.857,0,0,0,369.857,379.588Z" transform="translate(-285.146 -304.438)" fill="#24b685"/>
      <path id="Path_190" data-name="Path 190" d="M369,397.544a.857.857,0,1,0,1.713,0V397.5a.857.857,0,1,0-1.713,0Z" transform="translate(-285.146 -320.607)" fill="#24b685"/>
      <path id="Path_191" data-name="Path 191" d="M84.732,33.491a17.466,17.466,0,0,0-31.28-2.127A12.549,12.549,0,0,0,42.3,43.835c0,.265.008.529.025.791A9.34,9.34,0,0,0,45.695,62.67h11.32v4.5a2.39,2.39,0,0,0,2.347,2.352H75.705a2.358,2.358,0,0,0,2.333-2.316l.068-4.537H84.5a14.59,14.59,0,1,0,.235-29.18ZM76.325,67.172a.647.647,0,0,1-.62.638H61.583V43.825H76.047a.608.608,0,0,1,.442.177.638.638,0,0,1,.178.454Zm8-6.215H78.132l.248-16.483a2.309,2.309,0,0,0-.658-1.656A2.4,2.4,0,0,0,76,42.112H59.3A2.29,2.29,0,0,0,57.015,44.4V49.25a.857.857,0,0,0,1.713,0V44.4a.57.57,0,0,1,.57-.57h.572V67.809h-.508a.636.636,0,0,1-.634-.634V55.246a.857.857,0,1,0-1.713,0v5.711H45.695A7.624,7.624,0,0,1,43.483,46.04a.852.852,0,0,0,.6-.918A10.84,10.84,0,0,1,54.041,33.03a.857.857,0,0,0,.689-.445,15.752,15.752,0,0,1,28.61,2.056.861.861,0,0,0,.831.566c.107,0,.216,0,.325,0a12.878,12.878,0,1,1-.172,25.754Z" transform="translate(0 0)" fill="#24b685"/>
    </g>
  </g>
</svg>
