<svg xmlns="http://www.w3.org/2000/svg" width="100" height="100" viewBox="0 0 100 100">
  <g id="Group_874" data-name="Group 874" transform="translate(-12308 -5282)">
    <g id="Group_873" data-name="Group 873" transform="translate(152 1)">
      <circle id="Ellipse_96" data-name="Ellipse 96" cx="50" cy="50" r="50" transform="translate(12156 5281)" fill="#e6ffd7"/>
    </g>
    <g id="scientist" transform="translate(12289.037 5297)">
      <path id="Path_192" data-name="Path 192" d="M97.4,64.391a1.024,1.024,0,1,0-1.712,1.125c.106.242.817.86.357,1.712a1.206,1.206,0,0,1-1.076.642H80.885a1.222,1.222,0,0,1-1.022-1.895l3.33-5.065a2.6,2.6,0,0,0,1.252.291,2.714,2.714,0,0,0,1.324-.321.824.824,0,0,1,.834,0,2.865,2.865,0,0,0,2.647,0,.825.825,0,0,1,.834,0,2.713,2.713,0,0,0,1.324.321,2.6,2.6,0,0,0,1.252-.291l.391.595a1.024,1.024,0,1,0,1.712-1.125L91.9,56.022a.833.833,0,0,1-.137-.459V53.905A1.923,1.923,0,0,0,93.04,52.1V50.35a1.923,1.923,0,0,0-1.921-1.921H86.212a9.676,9.676,0,0,0-3.047-2.134,28.461,28.461,0,0,0-5.647-1.616,3.285,3.285,0,0,0-.954-1.022l-5.312-3.677V38.8a11.3,11.3,0,0,0,2.922-2.964,2.445,2.445,0,0,0,.29-.113A35.136,35.136,0,0,1,81,33.121a2.5,2.5,0,0,0,1.611-2.98L82.1,28.078c.447-.311,1.328-.908,3.061-2.049a2.449,2.449,0,0,0-.363-4.286l-2.714-1.19a.4.4,0,0,1-.122-.649l2.47-2.47a2.449,2.449,0,0,0-1.244-4.13l-3.806-.772a.4.4,0,0,1-.316-.45l.609-4.155a2.448,2.448,0,0,0-3.111-2.7l-3.479,1.02a.4.4,0,0,1-.511-.349l-.322-3.656A2.447,2.447,0,0,0,68.358.482L64.195,3.556a.4.4,0,0,1-.475,0L59.557.482a2.447,2.447,0,0,0-3.893,1.755l-.322,3.657a.4.4,0,0,1-.511.348l-3.478-1.02a2.448,2.448,0,0,0-3.111,2.7l.609,4.155a.4.4,0,0,1-.316.45l-3.806.772a2.449,2.449,0,0,0-1.244,4.13l2.47,2.47a.4.4,0,0,1-.122.649l-2.714,1.19a2.449,2.449,0,0,0-.363,4.286c1.733,1.141,2.614,1.738,3.061,2.049L45.3,30.141a2.5,2.5,0,0,0,1.611,2.98,35.458,35.458,0,0,1,6.54,2.606,2.459,2.459,0,0,0,.29.113A11.3,11.3,0,0,0,56.663,38.8v1.148l-5.347,3.7a3.285,3.285,0,0,0-.959,1.03A28.335,28.335,0,0,0,44.75,46.3a9.764,9.764,0,0,0-5.787,8.911V65.9a4.027,4.027,0,0,0,4.023,4.023H94.97A3.267,3.267,0,0,0,97.849,68.2,3.563,3.563,0,0,0,97.4,64.391Zm-6.409-5.345a2.865,2.865,0,0,0-2.647,0,.824.824,0,0,1-.834,0,2.865,2.865,0,0,0-2.647,0,.768.768,0,0,1-.512.106l1.318-2a2.876,2.876,0,0,0,.474-1.584V54.017h3.567v1.546a2.876,2.876,0,0,0,.474,1.584l1.318,2a.775.775,0,0,1-.512-.106Zm0-7.077H84.864V50.478h6.128Zm-7.446-3.124a1.917,1.917,0,0,0-.73,1.5V52.1A1.923,1.923,0,0,0,84.1,53.905v1.658a.833.833,0,0,1-.137.459l-2.074,3.155v0l-3.731,5.673a3.266,3.266,0,0,0-.3,3.02H71.826V64.818c.119-.226,3.691-7.03,3.912-7.279l1.349-1.514a4.262,4.262,0,0,0,.33-5.261,2.237,2.237,0,0,1,0-2.513,3.285,3.285,0,0,0,.541-1.387,23.773,23.773,0,0,1,4.378,1.3,7.73,7.73,0,0,1,1.214.679Zm-8.148-3.5a1.268,1.268,0,0,1,.324,1.754,4.3,4.3,0,0,0,.007,4.83,2.218,2.218,0,0,1-.172,2.738l-1.349,1.514c-.413.464-.311.336-2.388,4.285l-.018-14.5a8.179,8.179,0,0,0-.508-2.695.766.766,0,0,1-.044-.257V42.47Zm-6.134-1.764a10.26,10.26,0,0,1-10.608,0,2.629,2.629,0,0,0,.056-.574V40.476h0v-.464a12.5,12.5,0,0,0,5.234,1.182h.023A12.5,12.5,0,0,0,69.2,40.011v2.994a2.826,2.826,0,0,0,.061.571ZM47.584,31.186a.46.46,0,0,1-.3-.549l.679-2.716c.175-.7-.346-1.072-.727-1.345-.757-.543-2.578-1.744-3.359-2.258a.4.4,0,0,1,.06-.7l2.714-1.19a2.449,2.449,0,0,0,.748-3.973l-2.47-2.47a.4.4,0,0,1,.2-.674l3.806-.772a2.449,2.449,0,0,0,1.935-2.754l-.609-4.155a.4.4,0,0,1,.508-.442l3.479,1.02a2.448,2.448,0,0,0,3.127-2.134L57.7,2.417a.4.4,0,0,1,.635-.287L62.5,5.2a2.436,2.436,0,0,0,2.908,0L69.575,2.13a.4.4,0,0,1,.636.287l.322,3.656A2.448,2.448,0,0,0,73.66,8.208l3.479-1.02a.4.4,0,0,1,.508.442l-.609,4.155a2.448,2.448,0,0,0,1.935,2.754l3.806.772a.4.4,0,0,1,.2.674l-2.47,2.47a2.449,2.449,0,0,0,.748,3.973l2.714,1.19a.4.4,0,0,1,.06.7c-.782.515-2.6,1.714-3.359,2.258-.38.272-.9.646-.727,1.345l.679,2.716a.46.46,0,0,1-.3.549C75.983,32.7,76.452,32.5,75.56,32.94a11.862,11.862,0,0,0,.48-2.316,3.042,3.042,0,0,0,2.838-3.031V25.361a3.042,3.042,0,0,0-2.772-3.026V20.328c0-6.941-5.757-11.751-12.138-11.822h-.023c-6.363.071-12.138,4.864-12.138,11.822v2.007a3.042,3.042,0,0,0-2.772,3.026v2.231a3.042,3.042,0,0,0,2.838,3.031,11.872,11.872,0,0,0,.48,2.316C51.386,32.471,52.082,32.756,47.584,31.186Zm6.272-8.225a2.285,2.285,0,0,1,2.283-2.282h15.64a2.285,2.285,0,0,1,2.283,2.282v.617a2.285,2.285,0,0,1-2.283,2.282h-4c-.861,0-1.021-.869-1.593-1.612a2.642,2.642,0,0,0-4.454,0c-.573.744-.732,1.612-1.593,1.612h-4a2.285,2.285,0,0,1-2.283-2.282v-.617Zm.059-3.715a10.146,10.146,0,0,1,20.083,0,4.3,4.3,0,0,0-2.22-.614H56.139a4.3,4.3,0,0,0-2.223.616Zm-.02,11a1.818,1.818,0,0,0-1.822-1.666.99.99,0,0,1-.989-.989V25.362a.991.991,0,0,1,.8-.971,4.337,4.337,0,0,0,4.253,3.519h4c2.251,0,2.872-2.053,3.319-2.558a.594.594,0,0,1,1,0c.44.5,1.065,2.558,3.319,2.558h4a4.337,4.337,0,0,0,4.253-3.518.991.991,0,0,1,.8.97v2.231a.99.99,0,0,1-.989.989,1.818,1.818,0,0,0-1.822,1.666,10.138,10.138,0,0,1-20.124,0ZM52.483,45.34l4.181-2.9v.562a11.579,11.579,0,0,0-.587,2.953l-.005,4.193a1.024,1.024,0,0,0,1.023,1.025h0a1.024,1.024,0,0,0,1.024-1.023l.005-4.192c0-.108.006-.215.014-.323a12.231,12.231,0,0,0,11.6.017c.007.1.012.2.012.3l.023,18.6v3.308H58.1V64.564l.012-9.6a1.024,1.024,0,0,0-1.023-1.025h0a1.024,1.024,0,0,0-1.024,1.023l-.007,5.5c-2.057-3.913-1.972-3.819-2.388-4.285l-1.348-1.514a2.218,2.218,0,0,1-.172-2.738,4.3,4.3,0,0,0,.007-4.83,1.269,1.269,0,0,1,.325-1.754ZM41.011,65.9V55.206a7.713,7.713,0,0,1,4.572-7.04,23.665,23.665,0,0,1,4.344-1.3,3.286,3.286,0,0,0,.539,1.38,2.236,2.236,0,0,1,0,2.513,4.262,4.262,0,0,0,.33,5.261l1.349,1.514c.222.249,3.776,7.02,3.912,7.279v3.054H42.986A1.976,1.976,0,0,1,41.011,65.9Z" transform="translate(0 0)" fill="#24b685"/>
    </g>
  </g>
</svg>
