<svg xmlns="http://www.w3.org/2000/svg" width="100" height="100" viewBox="0 0 100 100">
  <g id="Group_877" data-name="Group 877" transform="translate(-12442 -5270)">
    <circle id="Ellipse_96" data-name="Ellipse 96" cx="50" cy="50" r="50" transform="translate(12442 5270)" fill="#e6ffd7"/>
    <g id="business-report_1_" data-name="business-report (1)" transform="translate(12402.33 5289)">
      <g id="Group_132" data-name="Group 132" transform="translate(66.67)">
        <path id="Path_81" data-name="Path 81" d="M111.713,0H67.58a.91.91,0,0,0-.91.91V44.145a.91.91,0,0,0,1.82,0V1.82H110.8V7.542a.91.91,0,1,0,1.82,0V.91A.91.91,0,0,0,111.713,0Z" transform="translate(-66.67)" fill="#24b685"/>
        <path id="Path_82" data-name="Path 82" d="M111.713,89.65a.91.91,0,0,0-.91.91v48.525H68.49V127.163a.91.91,0,0,0-1.82,0V140a.91.91,0,0,0,.91.91h44.133a.91.91,0,0,0,.91-.91V90.56A.91.91,0,0,0,111.713,89.65Z" transform="translate(-66.67 -78.77)" fill="#24b685"/>
        <path id="Path_83" data-name="Path 83" d="M99,105.026a7.04,7.04,0,1,0,7.04-7.04A7.048,7.048,0,0,0,99,105.026Zm7.04,5.219a5.219,5.219,0,0,1-.91-10.358v5.138a.91.91,0,0,0,.91.91h5.138A5.227,5.227,0,0,1,106.036,110.245Zm5.138-6.13h-4.228V99.887A5.231,5.231,0,0,1,111.174,104.116Z" transform="translate(-95.073 -86.095)" fill="#24b685"/>
        <path id="Path_84" data-name="Path 84" d="M103.946,432.35a.91.91,0,0,0-.91.91v3.923a.91.91,0,0,0,.91.91h5.884a.91.91,0,0,0,.91-.91V433.26a.91.91,0,0,0-.91-.91Zm4.974,3.923h-4.064v-2.1h4.064Z" transform="translate(-98.623 -379.881)" fill="#24b685"/>
        <path id="Path_85" data-name="Path 85" d="M184.76,395.49h5.884a.91.91,0,0,0,.91-.91v-9.807a.91.91,0,0,0-.91-.91H184.76a.91.91,0,0,0-.91.91v9.807A.91.91,0,0,0,184.76,395.49Zm.91-9.807h4.064v7.987H185.67Z" transform="translate(-169.629 -337.277)" fill="#24b685"/>
        <path id="Path_86" data-name="Path 86" d="M265.573,323.252a.91.91,0,0,0-.91.91v17.163a.91.91,0,0,0,.91.91h5.884a.91.91,0,0,0,.91-.91V324.162a.91.91,0,0,0-.91-.91Zm4.974,17.163h-4.064V325.072h4.064Z" transform="translate(-240.635 -284.023)" fill="#24b685"/>
        <path id="Path_87" data-name="Path 87" d="M352.274,287.88a.91.91,0,0,0,.91-.91v-3.21a.91.91,0,0,0-.91-.91H346.39a.91.91,0,0,0-.91.91v22.065a.91.91,0,0,0,.91.91h5.883a.91.91,0,0,0,.91-.91V291.218a.91.91,0,1,0-1.82,0v13.7H347.3V284.67h4.063v2.3A.91.91,0,0,0,352.274,287.88Z" transform="translate(-311.644 -248.524)" fill="#24b685"/>
        <path id="Path_88" data-name="Path 88" d="M188.212,32.325H168.6a.91.91,0,0,0-.91.91v3.923a.91.91,0,0,0,.91.91h19.615a.91.91,0,0,0,.91-.91V33.235A.91.91,0,0,0,188.212,32.325Zm-.91,3.923H169.507v-2.1H187.3v2.1Z" transform="translate(-155.428 -28.402)" fill="#24b685"/>
        <path id="Path_89" data-name="Path 89" d="M267.554,97.986H249.41a.91.91,0,1,0,0,1.82h18.143a.91.91,0,1,0,0-1.82Z" transform="translate(-226.433 -86.095)" fill="#24b685"/>
        <path id="Path_90" data-name="Path 90" d="M267.554,131.658H249.41a.91.91,0,1,0,0,1.82h18.143a.91.91,0,1,0,0-1.82Z" transform="translate(-226.433 -115.68)" fill="#24b685"/>
        <path id="Path_91" data-name="Path 91" d="M268.464,166.24a.91.91,0,0,0-.91-.91H249.41a.91.91,0,0,0,0,1.82h18.143A.91.91,0,0,0,268.464,166.24Z" transform="translate(-226.433 -145.266)" fill="#24b685"/>
        <path id="Path_92" data-name="Path 92" d="M261.108,199.912a.91.91,0,0,0-.91-.91H249.41a.91.91,0,1,0,0,1.82H260.2A.91.91,0,0,0,261.108,199.912Z" transform="translate(-226.433 -174.852)" fill="#24b685"/>
        <path id="Path_93" data-name="Path 93" d="M129.588,248.5h-16.55a.91.91,0,1,0,0,1.82h16.55a.91.91,0,1,0,0-1.82Z" transform="translate(-106.611 -218.343)" fill="#24b685"/>
        <path id="Path_94" data-name="Path 94" d="M130.5,283.082a.91.91,0,0,0-.91-.91h-16.55a.91.91,0,0,0,0,1.82h16.55A.91.91,0,0,0,130.5,283.082Z" transform="translate(-106.611 -247.928)" fill="#24b685"/>
        <path id="Path_95" data-name="Path 95" d="M123.143,316.754a.91.91,0,0,0-.91-.91h-9.194a.91.91,0,1,0,0,1.82h9.194A.91.91,0,0,0,123.143,316.754Z" transform="translate(-106.611 -277.514)" fill="#24b685"/>
      </g>
    </g>
  </g>
</svg>
