<svg xmlns="http://www.w3.org/2000/svg" width="61" height="61" viewBox="0 0 61 61">
  <g id="Group_118" data-name="Group 118" transform="translate(-10396 -1611)">
    <circle id="Ellipse_49" data-name="Ellipse 49" cx="30.5" cy="30.5" r="30.5" transform="translate(10396 1611)" fill="#d2fcbd"/>
    <g id="certificate" transform="translate(10406.206 1624)">
      <g id="Group_117" data-name="Group 117" transform="translate(2.794 0)">
        <path id="Path_163" data-name="Path 163" d="M74.559,181.506h-14.7a.574.574,0,1,0,0,1.148h14.7a.574.574,0,1,0,0-1.148Z" transform="translate(-54.966 -168.94)" fill="#50c893"/>
        <path id="Path_164" data-name="Path 164" d="M74.559,234.2h-14.7a.574.574,0,0,0,0,1.148h14.7a.574.574,0,1,0,0-1.148Z" transform="translate(-54.966 -217.988)" fill="#50c893"/>
        <path id="Path_165" data-name="Path 165" d="M74.559,286.9h-14.7a.574.574,0,0,0,0,1.148h14.7a.574.574,0,1,0,0-1.148Z" transform="translate(-54.966 -267.034)" fill="#50c893"/>
        <path id="Path_166" data-name="Path 166" d="M75.133,340.168a.574.574,0,0,0-.574-.574h-14.7a.574.574,0,1,0,0,1.148h14.7A.574.574,0,0,0,75.133,340.168Z" transform="translate(-54.966 -316.083)" fill="#50c893"/>
        <path id="Path_167" data-name="Path 167" d="M59.864,416.821a.574.574,0,1,0,0,1.148h7.367a.574.574,0,1,0,0-1.148Z" transform="translate(-54.966 -388.55)" fill="#50c893"/>
        <path id="Path_168" data-name="Path 168" d="M171.963,54.857V52.994a1.288,1.288,0,0,0-1.287-1.287H158.891a1.288,1.288,0,0,0-1.287,1.287v1.863a1.288,1.288,0,0,0,1.287,1.287h1a.574.574,0,0,0,0-1.148h-1a.139.139,0,0,1-.139-.139V52.994a.139.139,0,0,1,.139-.139h11.785a.139.139,0,0,1,.139.139v1.863a.139.139,0,0,1-.139.139H162.57a.574.574,0,0,0,0,1.148h8.107A1.288,1.288,0,0,0,171.963,54.857Z" transform="translate(-147.331 -47.749)" fill="#50c893"/>
        <path id="Path_169" data-name="Path 169" d="M30.108,31.758a.517.517,0,0,0-.514.521v.7a1.527,1.527,0,0,1-1.515,1.535H5.337A1.527,1.527,0,0,1,3.822,32.98V7.947a1.565,1.565,0,0,1,.036-.331H8.539a1.786,1.786,0,0,0,1.772-1.8V1.078a1.506,1.506,0,0,1,.326-.037H28.079a1.527,1.527,0,0,1,1.515,1.535V9.511a.514.514,0,1,0,1.028,0V2.577A2.563,2.563,0,0,0,28.079,0H10.638a2.511,2.511,0,0,0-1.8.755l-5.3,5.37a2.577,2.577,0,0,0-.745,1.822V32.98a2.563,2.563,0,0,0,2.543,2.577H28.079a2.563,2.563,0,0,0,2.544-2.577v-.7A.517.517,0,0,0,30.108,31.758ZM9.283,1.778V5.82a.75.75,0,0,1-.744.754H4.549Z" transform="translate(-2.794 0)" fill="#50c893"/>
        <path id="Path_170" data-name="Path 170" d="M309.455,172.429a2.3,2.3,0,0,0-1.122-3.453,1.141,1.141,0,0,1-.759-1.045,2.3,2.3,0,0,0-2.937-2.134,1.141,1.141,0,0,1-1.229-.4,2.3,2.3,0,0,0-3.631,0,1.141,1.141,0,0,1-1.229.4,2.3,2.3,0,0,0-2.937,2.134,1.141,1.141,0,0,1-.759,1.045,2.3,2.3,0,0,0-1.122,3.453,1.141,1.141,0,0,1,0,1.292,2.3,2.3,0,0,0,1.122,3.453,1.141,1.141,0,0,1,.759,1.045,2.3,2.3,0,0,0,1.982,2.2v5.226a1.218,1.218,0,0,0,1.857,1.037l2.105-1.3a.06.06,0,0,1,.074,0l2.105,1.3a1.218,1.218,0,0,0,1.857-1.038v-5.226a2.3,2.3,0,0,0,1.982-2.2,1.141,1.141,0,0,1,.759-1.045,2.3,2.3,0,0,0,1.122-3.453A1.14,1.14,0,0,1,309.455,172.429Zm-5.118,13.28-2.105-1.3a1.218,1.218,0,0,0-1.277,0l-2.105,1.3a.07.07,0,0,1-.107-.06v-5.335a1.139,1.139,0,0,1,1.036.438,2.3,2.3,0,0,0,3.631,0,1.139,1.139,0,0,1,1.036-.438v5.335a.07.07,0,0,1-.107.06Zm4.17-11.342a1.147,1.147,0,0,1-.561,1.726,2.282,2.282,0,0,0-1.519,2.091,1.147,1.147,0,0,1-1.468,1.067,2.283,2.283,0,0,0-2.458.8,1.147,1.147,0,0,1-1.815,0,2.281,2.281,0,0,0-1.808-.892,2.317,2.317,0,0,0-.65.093,1.142,1.142,0,0,1-1.055-.219,1.131,1.131,0,0,1-.413-.847,2.282,2.282,0,0,0-1.519-2.091,1.147,1.147,0,0,1-.561-1.726,2.282,2.282,0,0,0,0-2.585,1.147,1.147,0,0,1,.561-1.726,2.282,2.282,0,0,0,1.519-2.091,1.147,1.147,0,0,1,1.468-1.067,2.282,2.282,0,0,0,2.458-.8,1.147,1.147,0,0,1,1.815,0,2.282,2.282,0,0,0,2.458.8,1.147,1.147,0,0,1,1.468,1.066,2.282,2.282,0,0,0,1.519,2.091,1.147,1.147,0,0,1,.561,1.726A2.282,2.282,0,0,0,308.506,174.367Z" transform="translate(-274.338 -155.549)" fill="#50c893"/>
        <path id="Path_171" data-name="Path 171" d="M343.225,213.583a4.811,4.811,0,1,0,4.811,4.811A4.817,4.817,0,0,0,343.225,213.583Zm0,8.474a3.663,3.663,0,1,1,3.663-3.663A3.667,3.667,0,0,1,343.225,222.057Z" transform="translate(-315.971 -199.244)" fill="#50c893"/>
      </g>
    </g>
  </g>
</svg>
