<svg xmlns="http://www.w3.org/2000/svg" width="61" height="61" viewBox="0 0 61 61">
  <g id="Group_880" data-name="Group 880" transform="translate(-12367 -5538)">
    <g id="Group_875" data-name="Group 875" transform="translate(59 256)">
      <g id="Group_873" data-name="Group 873" transform="translate(12308 5282)">
        <circle id="Ellipse_96" data-name="Ellipse 96" cx="30.5" cy="30.5" r="30.5" fill="#f5f5f5"/>
      </g>
    </g>
    <path id="ceo-office" d="M17.477,13.661h2.393c0,1.089-1.2,1.358-1.2,1.358S17.477,14.749,17.477,13.661Zm-2.05-5.292c-.536-.435-.6-1.615-.6-1.966a.476.476,0,0,1,.476-.484h2.856a.475.475,0,0,1,.361.166c.009.01.01.023.018.034h.35c.008-.01.01-.024.018-.034a.476.476,0,0,1,.361-.166h2.856a.475.475,0,0,1,.476.484c-.007.351-.068,1.53-.6,1.965a2.259,2.259,0,0,1-1.367.444,1.553,1.553,0,0,1-1.171-.447,3.2,3.2,0,0,1-.542-1.3h-.4a3.19,3.19,0,0,1-.542,1.3,1.553,1.553,0,0,1-1.171.447A2.257,2.257,0,0,1,15.428,8.368Zm4.415-1.5a2.625,2.625,0,0,0,.312.854.673.673,0,0,0,.468.137,1.329,1.329,0,0,0,.767-.231,1.763,1.763,0,0,0,.216-.761H19.842Zm-4.03,0a1.758,1.758,0,0,0,.217.761,1.274,1.274,0,0,0,1.235.092,2.619,2.619,0,0,0,.312-.854ZM36.028,27.534v3.119a.475.475,0,0,1-.476.476H33.958v4.4a.476.476,0,0,1-.951,0v-4.4h-.825v4.4a.476.476,0,0,1-.951,0v-4.4l-25.906.011v4.386a.476.476,0,0,1-.951,0V31.141H3.549v4.386a.476.476,0,0,1-.951,0V31.142H1a.476.476,0,0,1-.476-.476V27.533a.476.476,0,0,1,.085-.271l4.518-6.51a.475.475,0,0,1,.39-.2H7.147V10.106c0-3.265,3.066-4.46,4.688-4.636a.476.476,0,0,1,.1.946c-.157.018-3.84.467-3.84,3.69v.717H14.61a5.906,5.906,0,0,1-.817-2.394A2.5,2.5,0,0,1,12.553,6.1c.008-.254.03-1.027.615-1.248A.758.758,0,0,1,13.4,4.8,5.638,5.638,0,0,1,18.708,0h0a5.637,5.637,0,0,1,5.3,4.8.751.751,0,0,1,.234.046c.585.221.607.994.615,1.248a2.5,2.5,0,0,1-1.24,2.331,5.9,5.9,0,0,1-.817,2.394h6.564v-.717c0-3.223-3.683-3.673-3.84-3.69a.476.476,0,0,1,.1-.946c1.621.176,4.688,1.37,4.688,4.636v8.918h3.161a.475.475,0,0,1,.463.582l-.812,3.533,2.809,4.126A.472.472,0,0,1,36.028,27.534Zm-3.141-7.558H24.13l-1.043,5.172H31.7Zm-10.681,4.73.362-1.8H20.235Zm7.167-10.854H25.361a8,8,0,0,1,1.258,1.125h2.753V13.851Zm-2.024,2.076a7.427,7.427,0,0,1,.6,1.125h1.428V15.927Zm2.024,3.1V18H28.28a8.441,8.441,0,0,1,.216,1.021ZM14.714,8.084a4.358,4.358,0,0,0,4,4.268,4.358,4.358,0,0,0,4-4.268.475.475,0,0,1,.307-.406,1.571,1.571,0,0,0,.9-1.552,1.752,1.752,0,0,0-.033-.32,1.173,1.173,0,0,0-.184.154A.476.476,0,0,1,23,5.309c.02-.022.061-.062.112-.107A4.684,4.684,0,0,0,18.71.951h0A4.684,4.684,0,0,0,14.3,5.2c.05.046.092.086.112.108a.476.476,0,0,1-.695.65,1.162,1.162,0,0,0-.183-.152,1.71,1.71,0,0,0-.033.32,1.572,1.572,0,0,0,.906,1.554A.48.48,0,0,1,14.714,8.084ZM8.1,11.775V12.9h5.729a5.977,5.977,0,0,1,.551-.246c.006,0,.012,0,.018,0l-.015-.283a.475.475,0,1,1,.949-.052l.1,1.78,1.08-.507a.476.476,0,1,1,.4.861l-1.718.806a.478.478,0,0,1-.2.045.476.476,0,0,1-.475-.45l-.066-1.2a7.893,7.893,0,0,0-4.729,6.9h2.829V19.74a.476.476,0,0,1,.951,0v.808h3.469c.224-1.3.9-5.34.968-5.438a1.76,1.76,0,0,0,.734.313,1.76,1.76,0,0,0,.734-.313c.066.1.745,4.14.968,5.438h2.668l.23-1.142a.473.473,0,0,1,.465-.381h3.781a6.922,6.922,0,0,0-4.61-5.4l-.067,1.226a.475.475,0,0,1-.677.4l-1.718-.806a.476.476,0,1,1,.4-.861l1.08.507.1-1.78a.475.475,0,1,1,.949.052l-.015.279a6.252,6.252,0,0,1,.7.253h5.7V11.775h-7.3A4.919,4.919,0,0,1,18.709,13.3a4.921,4.921,0,0,1-3.364-1.528H8.1Zm4.2,2.077H8.1v1.125H11.06A9.574,9.574,0,0,1,12.3,13.851Zm-4.2,3.2H9.635a8.456,8.456,0,0,1,.66-1.125H8.1Zm0,3.5h.673A9.079,9.079,0,0,1,9.245,18H8.1Zm-6.186,6.51H34.654L32.846,24.4l-.3,1.327a.476.476,0,0,1-.464.369H22.507a.39.39,0,0,1-.242-.076.431.431,0,0,1-.078-.049l-3.5-3.192a.476.476,0,0,1,.321-.827h3.753l.092-.456H5.771Zm33.164,3.119V28.009H1.48v2.182H3.073Z" transform="translate(12379.472 5550)" fill="#24b685"/>
  </g>
</svg>
