<svg xmlns="http://www.w3.org/2000/svg" width="710.07" height="547.18" viewBox="0 0 710.07 547.18">
  <g id="Group_854" data-name="Group 854" transform="translate(-609 -110)">
    <path id="Path_680" data-name="Path 680" d="M817.712,825.81a6.647,6.647,0,1,1-6.64-6.688A6.679,6.679,0,0,1,817.712,825.81Z" transform="translate(-123.422 -376.41)" fill="#12b390" opacity="0.933"/>
    <path id="Path_684" data-name="Path 684" d="M947.864,537.712a6.648,6.648,0,1,1-6.642-6.7A6.678,6.678,0,0,1,947.864,537.712Z" transform="translate(-247.422 -366.41)" fill="#08b196" opacity="0.785"/>
    <path id="Path_689" data-name="Path 689" d="M1520.544,992.607a6.653,6.653,0,1,1-6.665-6.69A6.685,6.685,0,0,1,1520.544,992.607Z" transform="translate(-247.422 -366.41)" fill="#08b195" opacity="0.534"/>
    <g id="Group_853" data-name="Group 853">
      <g id="Group_841" data-name="Group 841" transform="translate(-247.422 -366.41)">
        <path id="Path_664" data-name="Path 664" d="M1253.577,871.952l-26.588-15.477V825.492l.293-.145,26.3-15.332,26.587,15.477v30.983l-.27.147Zm-25.465-16.137,25.465,14.845,25.487-14.845V826.153l-25.487-14.843-25.465,14.843Z" fill="#e4e4e4" opacity="0.565"/>
      </g>
      <g id="Group_842" data-name="Group 842" transform="translate(-123.422 -376.41)">
        <path id="Path_665" data-name="Path 665" d="M837.1,962.945l-.28-.173-104.4-60.815V780.01l.28-.17L837.1,719.022l.28.173L941.772,780.01V901.957l-.28.173ZM733.532,901.322,837.1,961.65l103.565-60.328V780.645L837.1,720.317,733.532,780.645Z" fill="#e4e4e4" opacity="0.766"/>
      </g>
      <g id="Group_843" data-name="Group 843" transform="translate(-123.422 -376.41)">
        <path id="Path_666" data-name="Path 666" d="M837.1,871.952l-26.588-15.477V825.492l.283-.145,26.3-15.332,26.587,15.477v30.983l-.28.147Zm-25.475-16.137L837.1,870.66l25.477-14.845V826.153L837.1,811.31l-25.475,14.843Z" fill="#e4e4e4" opacity="0.579"/>
      </g>
      <g id="Group_844" data-name="Group 844" transform="translate(-247.422 -366.41)">
        <path id="Path_667" data-name="Path 667" d="M1253.577,962.945l-.27-.173-208.52-121.459V598.04l.282-.16,208.508-121.47.292.157,208.52,121.473V841.313l-.292.147ZM1045.9,840.655,1253.577,961.65l207.69-120.995V598.687L1253.577,477.7,1045.9,598.687Z" fill="#e4e4e4"/>
      </g>
      <g id="Group_845" data-name="Group 845" transform="translate(-247.422 -366.41)">
        <path id="Path_668" data-name="Path 668" d="M1045.337,720.317l-.268-.17L940.662,659.332V537.382l.28-.157,104.4-60.815.28.157,104.4,60.815v121.95l-.268.17ZM941.772,658.7l103.565,60.325L1148.914,658.7V538.03L1045.337,477.7,941.772,538.03Z" fill="#e4e4e4" opacity="0.62"/>
      </g>
      <g id="Group_846" data-name="Group 846" transform="translate(-247.422 -366.41)">
        <path id="Path_669" data-name="Path 669" d="M1461.829,962.945l-.27-.173-104.4-60.815V780.01l.27-.17,104.4-60.818.268.173,104.395,60.815V901.957l-.27.173Zm-103.565-61.623,103.565,60.328,103.563-60.328V780.645l-103.563-60.328-103.565,60.328Z" fill="#e4e4e4"/>
      </g>
      <g id="Group_847" data-name="Group 847" transform="translate(-247.422 -366.41)">
        <path id="Path_670" data-name="Path 670" d="M1253.577,1023.59l-52.613-30.64v-61.3l.293-.17,52.32-30.493,52.612,30.663v61.3l-.27.145Zm-51.49-31.3,51.49,30.005,51.512-30.005V932.28l-51.512-30.005-51.49,30.005Z" fill="#e4e4e4" opacity="0.778"/>
      </g>
      <g id="Group_848" data-name="Group 848" transform="translate(-247.422 -366.41)">
        <path id="Path_671" data-name="Path 671" d="M1045.337,871.952l-26.575-15.477V825.492l.27-.145,26.305-15.332,26.587,15.477v30.983l-.282.147Zm-25.475-16.137,25.475,14.845,25.475-14.845V826.153l-25.475-14.843-25.475,14.843Z" fill="#e4e4e4" opacity="0.612"/>
      </g>
      <g id="Group_849" data-name="Group 849" transform="translate(-247.422 -366.41)">
        <path id="Path_672" data-name="Path 672" d="M1461.829,902.275l-52.612-30.64v-61.3l.267-.147,52.345-30.493,52.613,30.64v61.3l-.27.172Zm-51.515-31.3,51.515,30.005,51.513-30.005v-60.01l-51.513-29.98-51.515,29.98Z" fill="#e4e4e4" opacity="0.698"/>
      </g>
      <g id="Group_850" data-name="Group 850" transform="translate(-247.422 -366.41)">
        <path id="Path_673" data-name="Path 673" d="M1253.577,629.337l-26.588-15.49v-30.97l.293-.157,26.3-15.333,26.587,15.49v30.97l-.27.173ZM1228.112,613.2l25.465,14.845,25.487-14.845V583.525l-25.487-14.843-25.465,14.843Z" fill="#e4e4e4"/>
      </g>
      <g id="Group_851" data-name="Group 851" transform="translate(-247.422 -366.41)">
        <path id="Path_674" data-name="Path 674" d="M1461.829,1023.59l-52.612-30.64v-61.3l.267-.17,52.345-30.493,52.613,30.663v61.3l-.27.145Zm-51.515-31.3,51.515,30.005,51.513-30.005V932.28l-51.513-30.005-51.515,30.005Z" fill="#e4e4e4" opacity="0.665"/>
      </g>
      <g id="Group_852" data-name="Group 852" transform="translate(-247.422 -366.41)">
        <path id="Path_675" data-name="Path 675" d="M1253.577,871.952l-26.588-15.477V825.492l.293-.145,26.3-15.332,26.587,15.477v30.983l-.27.147Zm-25.465-16.137,25.465,14.845,25.487-14.845V826.153l-25.487-14.843-25.465,14.843Z" fill="#e4e4e4" opacity="0.626"/>
      </g>
      <path id="Path_676" data-name="Path 676" d="M1234.192,856.157a6.642,6.642,0,1,1-6.64-6.715A6.673,6.673,0,0,1,1234.192,856.157Z" transform="translate(-247.422 -366.41)" fill="#e4e4e4" opacity="0.814"/>
      <path id="Path_677" data-name="Path 677" d="M1260.217,871.317a6.64,6.64,0,1,1-6.64-6.712A6.658,6.658,0,0,1,1260.217,871.317Z" transform="translate(-247.422 -366.41)" fill="#e9ffdb" opacity="0.728"/>
      <path id="Path_678" data-name="Path 678" d="M1286.267,856.157a6.653,6.653,0,1,1-6.665-6.715A6.678,6.678,0,0,1,1286.267,856.157Z" transform="translate(-247.422 -366.41)" fill="#08b195" opacity="0.759"/>
      <path id="Path_679" data-name="Path 679" d="M843.737,962.285a6.64,6.64,0,1,1-6.64-6.69A6.671,6.671,0,0,1,843.737,962.285Z" transform="translate(-123.422 -376.41)" fill="#12b390" opacity="0.765"/>
      <path id="Path_681" data-name="Path 681" d="M1051.989,840.972a6.646,6.646,0,1,1-6.652-6.69A6.68,6.68,0,0,1,1051.989,840.972Z" transform="translate(-247.422 -366.41)" fill="#08b195" opacity="0.733"/>
      <path id="Path_682" data-name="Path 682" d="M1051.989,598.37a6.646,6.646,0,1,1-6.652-6.715A6.677,6.677,0,0,1,1051.989,598.37Z" transform="translate(-247.422 -366.41)" fill="#08b196" opacity="0.63"/>
      <path id="Path_683" data-name="Path 683" d="M1156.1,659.015a6.641,6.641,0,1,1-6.642-6.69A6.671,6.671,0,0,1,1156.1,659.015Z" transform="translate(-247.422 -366.41)" fill="#1eb588" opacity="0.523"/>
      <path id="Path_685" data-name="Path 685" d="M1312.292,931.962a6.653,6.653,0,1,1-6.64-6.712A6.678,6.678,0,0,1,1312.292,931.962Z" transform="translate(-247.422 -366.41)" fill="#08b195" opacity="0.835"/>
      <path id="Path_686" data-name="Path 686" d="M1208.167,931.962a6.642,6.642,0,1,1-6.64-6.712A6.68,6.68,0,0,1,1208.167,931.962Z" transform="translate(-247.422 -366.41)" fill="#08b195" opacity="0.64"/>
      <path id="Path_687" data-name="Path 687" d="M1416.419,871.317a6.654,6.654,0,1,1-6.642-6.712A6.674,6.674,0,0,1,1416.419,871.317Z" transform="translate(-247.422 -366.41)" fill="#08b195" opacity="0.894"/>
      <path id="Path_688" data-name="Path 688" d="M1468.469,901.64a6.641,6.641,0,1,1-6.64-6.713A6.657,6.657,0,0,1,1468.469,901.64Z" transform="translate(-247.422 -366.41)" fill="#08b195" opacity="0.846"/>
      <ellipse id="Ellipse_87" data-name="Ellipse 87" cx="6.64" cy="6.702" rx="6.64" ry="6.702" transform="translate(999.516 194.922)" fill="#08b196" opacity="0.783"/>
      <path id="Path_690" data-name="Path 690" d="M1416.419,931.962a6.654,6.654,0,1,1-6.642-6.712A6.68,6.68,0,0,1,1416.419,931.962Z" transform="translate(-247.422 -366.41)" fill="#08b195" opacity="0.992"/>
      <path id="Path_691" data-name="Path 691" d="M1234.192,856.157a6.642,6.642,0,1,1-6.64-6.715A6.673,6.673,0,0,1,1234.192,856.157Z" transform="translate(-247.422 -366.41)" fill="#e9ffdb" opacity="0.63"/>
    </g>
  </g>
</svg>
