<svg xmlns="http://www.w3.org/2000/svg" width="501.473" height="480.586" viewBox="0 0 501.473 480.586">
  <g id="Group_764" data-name="Group 764" transform="translate(-20.954 -30.951)" opacity="0.86">
    <g id="Background_Complete" data-name="Background Complete" transform="translate(48.104 52.152)">
      <g id="Group_312" data-name="Group 312" transform="translate(0 360.784)">
        <g id="Group_310" data-name="Group 310" transform="translate(6.381 7.037)">
          <path id="Path_398" data-name="Path 398" d="M78.514,393.211V367.067a26.144,26.144,0,1,1-26.136,26.749Z" transform="translate(-52.378 -367.067)" fill="#e0e0e0"/>
        </g>
        <g id="Group_311" data-name="Group 311">
          <path id="Path_399" data-name="Path 399" d="M70.347,384.185l-26.144.591a27.574,27.574,0,0,1,7.407-18.823,26.88,26.88,0,0,1,18.331-7.9Z" transform="translate(-44.203 -358.051)" fill="#e2ffd0"/>
        </g>
      </g>
      <g id="Group_317" data-name="Group 317" transform="translate(428.516)">
        <g id="Group_314" data-name="Group 314">
          <g id="Group_313" data-name="Group 313">
            <path id="Path_400" data-name="Path 400" d="M433.463,71.423l22.061-3.371a22.317,22.317,0,1,1-19.611-18.811Z" transform="translate(-411.147 -49.106)" fill="#e0e0e0"/>
          </g>
        </g>
        <g id="Group_316" data-name="Group 316" transform="translate(26.795 0.206)">
          <g id="Group_315" data-name="Group 315" transform="translate(0 0)">
            <path id="Path_401" data-name="Path 401" d="M444.32,49.34l-2.678,17.1,16.786-3.153S455.96,53.7,444.32,49.34Z" transform="translate(-441.642 -49.34)" fill="#e2ffd0"/>
          </g>
        </g>
      </g>
      <g id="Group_318" data-name="Group 318" transform="translate(8.502 13.115)">
        <rect id="Rectangle_86" data-name="Rectangle 86" width="11.566" height="46.203" fill="#0eb393" opacity="0.8"/>
        <rect id="Rectangle_87" data-name="Rectangle 87" width="11.566" height="36.125" transform="translate(17.011 10.078)" fill="#e2ffd0" opacity="0.8"/>
        <rect id="Rectangle_88" data-name="Rectangle 88" width="11.566" height="27.873" transform="translate(34.28 18.33)" fill="#0eb393" opacity="0.8"/>
        <rect id="Rectangle_89" data-name="Rectangle 89" width="11.566" height="16.552" transform="translate(50.269 29.651)" fill="#e2ffd0" opacity="0.8"/>
      </g>
      <g id="Group_322" data-name="Group 322" transform="translate(275.561 237.695)">
        <g id="Group_319" data-name="Group 319" transform="translate(0 2.457)">
          <path id="Path_402" data-name="Path 402" d="M292.163,262.26a30.461,30.461,0,1,1,30.947,30.106A30.572,30.572,0,0,1,292.163,262.26Zm45.02-.727A14.565,14.565,0,1,0,322.854,276.4,14.613,14.613,0,0,0,337.183,261.533Z" transform="translate(-292.159 -231.166)" fill="#e0e0e0"/>
        </g>
        <g id="Group_320" data-name="Group 320" transform="translate(0.001 2.461)">
          <path id="Path_403" data-name="Path 403" d="M292.164,262.26a30.572,30.572,0,0,1,29.967-31.09l.255,15.968a14.632,14.632,0,0,0,.468,29.26l.256,15.967A30.56,30.56,0,0,1,292.164,262.26Z" transform="translate(-292.16 -231.17)" fill="#e0e0e0"/>
        </g>
        <g id="Group_321" data-name="Group 321" transform="translate(27.238)">
          <path id="Path_404" data-name="Path 404" d="M319.82,228.676a34.805,34.805,0,0,1,35.637,34.67l-18.6.3c-.151-9.437-7.332-15.379-16.726-15.227Z" transform="translate(-319.82 -228.671)" fill="#e6ffd6"/>
        </g>
      </g>
    </g>
    <g id="Data" transform="translate(20.954 30.951)" opacity="0.67">
      <g id="Group_681" data-name="Group 681">
        <g id="Group_620" data-name="Group 620" transform="translate(5.491)">
          <g id="Group_613" data-name="Group 613">
            <g id="Group_608" data-name="Group 608" transform="translate(0 81.286)">
              <path id="Path_506" data-name="Path 506" d="M25.656,372.755s.154-.132.472-.373l1.421-1.059,5.538-4.067L53.9,352.086,126.078,299.7l-.1.332a162.321,162.321,0,0,1-9.481-54.635,167.758,167.758,0,0,1,.98-18.385,165.824,165.824,0,0,1,2.986-17.629A156.341,156.341,0,0,1,131.3,177.422a162.914,162.914,0,0,1,63.192-70.188l5.249-3.008c1.527-.857,2.872-1.488,3.933-2.044l2.434-1.226c.549-.273.837-.4.837-.4s-.27.163-.81.454q-.836.445-2.4,1.28c-1.051.573-2.385,1.22-3.9,2.093l-5.214,3.054a163.994,163.994,0,0,0-62.806,70.222,156.265,156.265,0,0,0-10.768,31.856,165.625,165.625,0,0,0-2.966,17.566A167.713,167.713,0,0,0,117.1,245.4a162.266,162.266,0,0,0,9.417,54.439l.074.206-.176.127-72.3,52.206L33.2,367.412,27.606,371.4l-1.449,1.019C25.83,372.65,25.656,372.755,25.656,372.755Z" transform="translate(-25.656 -100.557)" fill="#e0e0e0"/>
            </g>
            <g id="Group_609" data-name="Group 609" transform="translate(36.54 48.66)">
              <path id="Path_507" data-name="Path 507" d="M154.681,72.619s-.22.127-.66.348l-1.962.967-3.2,1.552c-1.266.607-2.658,1.442-4.265,2.305a146.436,146.436,0,0,0-25.2,17.753,160.556,160.556,0,0,0-15.037,15.091,177.077,177.077,0,0,0-14.71,19.524,188.423,188.423,0,0,0-22.874,50.963,245.715,245.715,0,0,0-8.916,55.264,303.879,303.879,0,0,0,1.1,45.766,155.6,155.6,0,0,0,5.95,30.256c1.088,3.48,2.074,6.138,2.768,7.928.349.878.617,1.553.806,2.031.179.46.256.7.256.7s-.116-.224-.313-.676l-.862-2.01c-.731-1.779-1.755-4.426-2.88-7.9A151.789,151.789,0,0,1,58.54,282.2a299.488,299.488,0,0,1-1.232-45.841,244.452,244.452,0,0,1,8.89-55.4,187.9,187.9,0,0,1,22.989-51.1,176.173,176.173,0,0,1,14.8-19.552,159.431,159.431,0,0,1,15.133-15.083,143.193,143.193,0,0,1,25.365-17.636c1.617-.849,3.021-1.669,4.3-2.259l3.225-1.5L154,72.911C154.445,72.708,154.681,72.619,154.681,72.619Z" transform="translate(-56.946 -72.619)" fill="#e0e0e0"/>
            </g>
            <g id="Group_610" data-name="Group 610" transform="translate(172.152)">
              <path id="Path_508" data-name="Path 508" d="M173.073,30.951a.941.941,0,0,1,.149.2l.4.6q.545.848,1.523,2.365l5.663,8.95,19.7,31.446-.311-.123A212.179,212.179,0,0,1,267.1,67.213a204.33,204.33,0,0,1,27.038,3.248l2.792.511,2.631.575,4.817,1.067c2.98.779,5.559,1.4,7.641,2l4.777,1.448,1.238.391a2.258,2.258,0,0,1,.415.153,2.553,2.553,0,0,1-.433-.093l-1.254-.334-4.805-1.336c-2.089-.564-4.673-1.155-7.656-1.9l-4.818-1.019-2.631-.551-2.79-.49a210.334,210.334,0,0,0-26.99-3.111,215.522,215.522,0,0,0-66.73,7.153l-.2.055-.11-.176c-7.957-12.874-14.719-23.811-19.512-31.563L175,34.208l-1.449-2.41-.363-.627A1.043,1.043,0,0,1,173.073,30.951Z" transform="translate(-173.072 -30.951)" fill="#e0e0e0"/>
            </g>
            <g id="Group_611" data-name="Group 611" transform="translate(391.011 48.004)">
              <path id="Path_509" data-name="Path 509" d="M438.086,180.477a1.467,1.467,0,0,1-.127-.33l-.314-.984c-.274-.91-.659-2.181-1.148-3.8-.49-1.651-1.063-3.681-1.894-5.984q-.6-1.739-1.268-3.708l-.693-2.025-.823-2.1c-1.133-2.863-2.295-6.032-3.832-9.312-.753-1.645-1.457-3.382-2.318-5.107L423,141.815a187.368,187.368,0,0,0-13.915-22.494,198.167,198.167,0,0,0-17.1-20.2l-4.195-4.218c-1.372-1.355-2.776-2.6-4.094-3.837-2.616-2.506-5.221-4.651-7.549-6.667l-1.71-1.469L372.766,81.6q-1.624-1.3-3.061-2.448c-1.892-1.553-3.594-2.8-4.974-3.83l-3.166-2.394-.815-.635a1.516,1.516,0,0,1-.265-.234,1.576,1.576,0,0,1,.3.183l.85.586,3.235,2.3c1.4,1,3.127,2.222,5.041,3.753l3.1,2.414,1.69,1.32,1.726,1.455c2.35,2,4.977,4.13,7.614,6.626,1.329,1.237,2.743,2.472,4.125,3.825l4.225,4.211a193.337,193.337,0,0,1,17.189,20.229A183.256,183.256,0,0,1,423.5,141.557l2.653,5.343c.855,1.734,1.552,3.48,2.3,5.135,1.519,3.3,2.663,6.484,3.772,9.363q.413,1.079.806,2.109l.673,2.037q.65,1.978,1.226,3.73c.8,2.317,1.342,4.359,1.8,6.023.444,1.633.792,2.916,1.04,3.834l.255,1A1.562,1.562,0,0,1,438.086,180.477Z" transform="translate(-360.485 -72.057)" fill="#e0e0e0"/>
            </g>
            <g id="Group_612" data-name="Group 612" transform="translate(391.372 293.35)">
              <path id="Path_510" data-name="Path 510" d="M394.159,469.387a2.24,2.24,0,0,1-.182-.328c-.121-.243-.284-.568-.494-.986l-1.87-3.847-6.924-14.451c-5.887-12.393-14.168-29.824-23.795-50.088l-.1-.213.189-.142a226.8,226.8,0,0,0,25.384-22.385c1.374-1.336,2.659-2.743,3.934-4.142l3.815-4.151,3.6-4.236c1.185-1.4,2.389-2.775,3.478-4.218,2.214-2.855,4.463-5.605,6.446-8.463q1.524-2.116,3.016-4.185c.965-1.4,1.873-2.814,2.8-4.2a229.416,229.416,0,0,0,17.14-30.809c2.153-4.542,3.8-8.779,5.317-12.473,1.415-3.731,2.56-6.975,3.51-9.619.853-2.657,1.517-4.73,1.978-6.165.225-.683.4-1.215.529-1.6.123-.36.2-.54.2-.54s-.037.191-.14.556c-.113.389-.27.926-.472,1.617-.436,1.445-1.064,3.53-1.87,6.2-.918,2.659-2.031,5.918-3.418,9.667-1.488,3.711-3.111,7.967-5.243,12.529a225.268,225.268,0,0,1-17.064,30.94c-.921,1.386-1.831,2.806-2.795,4.211l-3.016,4.2c-1.983,2.868-4.233,5.629-6.451,8.495-1.09,1.448-2.295,2.823-3.482,4.232l-3.6,4.25-3.825,4.164c-1.279,1.4-2.566,2.813-3.944,4.154a224.62,224.62,0,0,1-25.473,22.423l.089-.355,23.6,50.181c2.886,6.187,5.183,11.115,6.772,14.523l1.784,3.886.45,1.008A2.047,2.047,0,0,1,394.159,469.387Z" transform="translate(-360.794 -282.151)" fill="#e0e0e0"/>
            </g>
          </g>
          <g id="Group_619" data-name="Group 619" opacity="0.8">
            <g id="Group_614" data-name="Group 614" transform="translate(0 81.286)">
              <path id="Path_511" data-name="Path 511" d="M25.656,372.755s.154-.132.472-.373l1.421-1.059,5.538-4.067L53.9,352.086,126.078,299.7l-.1.332a162.321,162.321,0,0,1-9.481-54.635,167.758,167.758,0,0,1,.98-18.385,165.824,165.824,0,0,1,2.986-17.629A156.341,156.341,0,0,1,131.3,177.422a162.914,162.914,0,0,1,63.192-70.188l5.249-3.008c1.527-.857,2.872-1.488,3.933-2.044l2.434-1.226c.549-.273.837-.4.837-.4s-.27.163-.81.454q-.836.445-2.4,1.28c-1.051.573-2.385,1.22-3.9,2.093l-5.214,3.054a163.994,163.994,0,0,0-62.806,70.222,156.265,156.265,0,0,0-10.768,31.856,165.625,165.625,0,0,0-2.966,17.566A167.713,167.713,0,0,0,117.1,245.4a162.266,162.266,0,0,0,9.417,54.439l.074.206-.176.127-72.3,52.206L33.2,367.412,27.606,371.4l-1.449,1.019C25.83,372.65,25.656,372.755,25.656,372.755Z" transform="translate(-25.656 -100.557)" fill="#e0e0e0"/>
            </g>
            <g id="Group_615" data-name="Group 615" transform="translate(36.54 48.66)">
              <path id="Path_512" data-name="Path 512" d="M154.681,72.619s-.22.127-.66.348l-1.962.967-3.2,1.552c-1.266.607-2.658,1.442-4.265,2.305a146.436,146.436,0,0,0-25.2,17.753,160.556,160.556,0,0,0-15.037,15.091,177.077,177.077,0,0,0-14.71,19.524,188.423,188.423,0,0,0-22.874,50.963,245.715,245.715,0,0,0-8.916,55.264,303.879,303.879,0,0,0,1.1,45.766,155.6,155.6,0,0,0,5.95,30.256c1.088,3.48,2.074,6.138,2.768,7.928.349.878.617,1.553.806,2.031.179.46.256.7.256.7s-.116-.224-.313-.676l-.862-2.01c-.731-1.779-1.755-4.426-2.88-7.9A151.789,151.789,0,0,1,58.54,282.2a299.488,299.488,0,0,1-1.232-45.841,244.452,244.452,0,0,1,8.89-55.4,187.9,187.9,0,0,1,22.989-51.1,176.173,176.173,0,0,1,14.8-19.552,159.431,159.431,0,0,1,15.133-15.083,143.193,143.193,0,0,1,25.365-17.636c1.617-.849,3.021-1.669,4.3-2.259l3.225-1.5L154,72.911C154.445,72.708,154.681,72.619,154.681,72.619Z" transform="translate(-56.946 -72.619)" fill="#e0e0e0"/>
            </g>
            <g id="Group_616" data-name="Group 616" transform="translate(172.152)">
              <path id="Path_513" data-name="Path 513" d="M173.073,30.951a.941.941,0,0,1,.149.2l.4.6q.545.848,1.523,2.365l5.663,8.95,19.7,31.446-.311-.123A212.179,212.179,0,0,1,267.1,67.213a204.33,204.33,0,0,1,27.038,3.248l2.792.511,2.631.575,4.817,1.067c2.98.779,5.559,1.4,7.641,2l4.777,1.448,1.238.391a2.258,2.258,0,0,1,.415.153,2.553,2.553,0,0,1-.433-.093l-1.254-.334-4.805-1.336c-2.089-.564-4.673-1.155-7.656-1.9l-4.818-1.019-2.631-.551-2.79-.49a210.334,210.334,0,0,0-26.99-3.111,215.522,215.522,0,0,0-66.73,7.153l-.2.055-.11-.176c-7.957-12.874-14.719-23.811-19.512-31.563L175,34.208l-1.449-2.41-.363-.627A1.043,1.043,0,0,1,173.073,30.951Z" transform="translate(-173.072 -30.951)" fill="#e0e0e0"/>
            </g>
            <g id="Group_617" data-name="Group 617" transform="translate(391.011 48.004)">
              <path id="Path_514" data-name="Path 514" d="M438.086,180.477a1.467,1.467,0,0,1-.127-.33l-.314-.984c-.274-.91-.659-2.181-1.148-3.8-.49-1.651-1.063-3.681-1.894-5.984q-.6-1.739-1.268-3.708l-.693-2.025-.823-2.1c-1.133-2.863-2.295-6.032-3.832-9.312-.753-1.645-1.457-3.382-2.318-5.107L423,141.815a187.368,187.368,0,0,0-13.915-22.494,198.167,198.167,0,0,0-17.1-20.2l-4.195-4.218c-1.372-1.355-2.776-2.6-4.094-3.837-2.616-2.506-5.221-4.651-7.549-6.667l-1.71-1.469L372.766,81.6q-1.624-1.3-3.061-2.448c-1.892-1.553-3.594-2.8-4.974-3.83l-3.166-2.394-.815-.635a1.516,1.516,0,0,1-.265-.234,1.576,1.576,0,0,1,.3.183l.85.586,3.235,2.3c1.4,1,3.127,2.222,5.041,3.753l3.1,2.414,1.69,1.32,1.726,1.455c2.35,2,4.977,4.13,7.614,6.626,1.329,1.237,2.743,2.472,4.125,3.825l4.225,4.211a193.337,193.337,0,0,1,17.189,20.229A183.256,183.256,0,0,1,423.5,141.557l2.653,5.343c.855,1.734,1.552,3.48,2.3,5.135,1.519,3.3,2.663,6.484,3.772,9.363q.413,1.079.806,2.109l.673,2.037q.65,1.978,1.226,3.73c.8,2.317,1.342,4.359,1.8,6.023.444,1.633.792,2.916,1.04,3.834l.255,1A1.562,1.562,0,0,1,438.086,180.477Z" transform="translate(-360.485 -72.057)" fill="#e0e0e0"/>
            </g>
            <g id="Group_618" data-name="Group 618" transform="translate(391.372 293.35)">
              <path id="Path_515" data-name="Path 515" d="M394.159,469.387a2.24,2.24,0,0,1-.182-.328c-.121-.243-.284-.568-.494-.986l-1.87-3.847-6.924-14.451c-5.887-12.393-14.168-29.824-23.795-50.088l-.1-.213.189-.142a226.8,226.8,0,0,0,25.384-22.385c1.374-1.336,2.659-2.743,3.934-4.142l3.815-4.151,3.6-4.236c1.185-1.4,2.389-2.775,3.478-4.218,2.214-2.855,4.463-5.605,6.446-8.463q1.524-2.116,3.016-4.185c.965-1.4,1.873-2.814,2.8-4.2a229.416,229.416,0,0,0,17.14-30.809c2.153-4.542,3.8-8.779,5.317-12.473,1.415-3.731,2.56-6.975,3.51-9.619.853-2.657,1.517-4.73,1.978-6.165.225-.683.4-1.215.529-1.6.123-.36.2-.54.2-.54s-.037.191-.14.556c-.113.389-.27.926-.472,1.617-.436,1.445-1.064,3.53-1.87,6.2-.918,2.659-2.031,5.918-3.418,9.667-1.488,3.711-3.111,7.967-5.243,12.529a225.268,225.268,0,0,1-17.064,30.94c-.921,1.386-1.831,2.806-2.795,4.211l-3.016,4.2c-1.983,2.868-4.233,5.629-6.451,8.495-1.09,1.448-2.295,2.823-3.482,4.232l-3.6,4.25-3.825,4.164c-1.279,1.4-2.566,2.813-3.944,4.154a224.62,224.62,0,0,1-25.473,22.423l.089-.355,23.6,50.181c2.886,6.187,5.183,11.115,6.772,14.523l1.784,3.886.45,1.008A2.047,2.047,0,0,1,394.159,469.387Z" transform="translate(-360.794 -282.151)" fill="#e0e0e0"/>
            </g>
          </g>
        </g>
        <g id="Group_680" data-name="Group 680" transform="translate(0 2.233)">
          <circle id="Ellipse_77" data-name="Ellipse 77" cx="5.012" cy="5.012" r="5.012" transform="translate(348.983 133.542)" fill="#e0e0e0"/>
          <path id="Path_516" data-name="Path 516" d="M303.857,70.855a5.012,5.012,0,1,1-5.011-5.011A5.011,5.011,0,0,1,303.857,70.855Z" transform="translate(24.834 -27.329)" fill="#e0e0e0"/>
          <path id="Path_517" data-name="Path 517" d="M432.267,165.79a5.012,5.012,0,1,1-5.011-5.012A5.011,5.011,0,0,1,432.267,165.79Z" transform="translate(46.38 -11.4)" fill="#e0e0e0"/>
          <path id="Path_518" data-name="Path 518" d="M210.342,366.456a5.012,5.012,0,1,1-5.012-5.012A5.013,5.013,0,0,1,210.342,366.456Z" transform="translate(9.143 22.271)" fill="#e0e0e0"/>
          <circle id="Ellipse_78" data-name="Ellipse 78" cx="5.012" cy="5.012" r="5.012" transform="translate(145.411 380.083)" fill="#e0e0e0"/>
          <circle id="Ellipse_79" data-name="Ellipse 79" cx="5.012" cy="5.012" r="5.012" transform="translate(420.205 274.59)" fill="#e0e0e0"/>
          <path id="Path_519" data-name="Path 519" d="M68.972,168.011A5.012,5.012,0,1,1,63.961,163,5.011,5.011,0,0,1,68.972,168.011Z" transform="translate(-14.578 -11.027)" fill="#e0e0e0"/>
          <path id="Path_520" data-name="Path 520" d="M309.862,202.316a5.012,5.012,0,1,1-5.012-5.012A5.012,5.012,0,0,1,309.862,202.316Z" transform="translate(25.841 -5.271)" fill="#e0e0e0"/>
          <circle id="Ellipse_80" data-name="Ellipse 80" cx="5.012" cy="5.012" r="5.012" transform="translate(427.599 189.997)" fill="#e0e0e0"/>
          <path id="Path_521" data-name="Path 521" d="M115.522,184.224a5.012,5.012,0,1,1-5.012-5.012A5.011,5.011,0,0,1,115.522,184.224Z" transform="translate(-6.768 -8.307)" fill="#e0e0e0"/>
          <circle id="Ellipse_81" data-name="Ellipse 81" cx="5.012" cy="5.012" r="5.012" transform="translate(102.648 104.53)" fill="#e0e0e0"/>
          <path id="Path_522" data-name="Path 522" d="M69.917,289.588a2.506,2.506,0,1,1-2.506-2.506A2.506,2.506,0,0,1,69.917,289.588Z" transform="translate(-13.579 9.793)" fill="#e0e0e0"/>
          <path id="Path_523" data-name="Path 523" d="M106.219,227.339a2.506,2.506,0,1,1-2.506-2.506A2.505,2.505,0,0,1,106.219,227.339Z" transform="translate(-7.488 -0.652)" fill="#e0e0e0"/>
          <path id="Path_524" data-name="Path 524" d="M147.85,302.586a2.506,2.506,0,1,1-2.506-2.5A2.506,2.506,0,0,1,147.85,302.586Z" transform="translate(-0.502 11.974)" fill="#e0e0e0"/>
          <path id="Path_525" data-name="Path 525" d="M125.938,226.349a2.506,2.506,0,1,1-2.506-2.506A2.505,2.505,0,0,1,125.938,226.349Z" transform="translate(-4.179 -0.818)" fill="#e0e0e0"/>
          <path id="Path_526" data-name="Path 526" d="M156.618,178.064a2.506,2.506,0,1,1-2.506-2.506A2.506,2.506,0,0,1,156.618,178.064Z" transform="translate(0.969 -8.92)" fill="#e0e0e0"/>
          <circle id="Ellipse_82" data-name="Ellipse 82" cx="2.506" cy="2.506" r="2.506" transform="translate(66.022 224.181)" fill="#e0e0e0"/>
          <path id="Path_527" data-name="Path 527" d="M368.561,312a2.506,2.506,0,1,1-2.506-2.506A2.505,2.505,0,0,1,368.561,312Z" transform="translate(36.532 13.554)" fill="#e0e0e0"/>
          <path id="Path_528" data-name="Path 528" d="M353.591,300.759a2.506,2.506,0,1,1-2.5-2.506A2.505,2.505,0,0,1,353.591,300.759Z" transform="translate(34.02 11.668)" fill="#e0e0e0"/>
          <path id="Path_529" data-name="Path 529" d="M384.62,322.127a2.505,2.505,0,1,1-2.5-2.506A2.505,2.505,0,0,1,384.62,322.127Z" transform="translate(39.226 15.253)" fill="#e0e0e0"/>
          <path id="Path_530" data-name="Path 530" d="M300.1,324.14a2.506,2.506,0,1,1-2.506-2.5A2.506,2.506,0,0,1,300.1,324.14Z" transform="translate(25.044 15.591)" fill="#e0e0e0"/>
          <path id="Path_531" data-name="Path 531" d="M313.671,357.14a2.505,2.505,0,1,1-2.506-2.506A2.506,2.506,0,0,1,313.671,357.14Z" transform="translate(27.322 21.128)" fill="#e0e0e0"/>
          <path id="Path_532" data-name="Path 532" d="M289.883,347.161a2.506,2.506,0,1,1-2.506-2.506A2.506,2.506,0,0,1,289.883,347.161Z" transform="translate(23.33 19.454)" fill="#e0e0e0"/>
          <path id="Path_533" data-name="Path 533" d="M150.988,154.015a2.506,2.506,0,1,1-2.506-2.506A2.505,2.505,0,0,1,150.988,154.015Z" transform="translate(0.024 -12.955)" fill="#e0e0e0"/>
          <path id="Path_534" data-name="Path 534" d="M201.716,129.073a2.506,2.506,0,1,1-2.506-2.506A2.505,2.505,0,0,1,201.716,129.073Z" transform="translate(8.536 -17.14)" fill="#e0e0e0"/>
          <path id="Path_535" data-name="Path 535" d="M264.508,123.169a2.505,2.505,0,1,1-2.506-2.5A2.506,2.506,0,0,1,264.508,123.169Z" transform="translate(19.072 -18.131)" fill="#e0e0e0"/>
          <path id="Path_536" data-name="Path 536" d="M363.3,71.693a2.506,2.506,0,1,1-2.5-2.506A2.505,2.505,0,0,1,363.3,71.693Z" transform="translate(35.649 -26.768)" fill="#e0e0e0"/>
          <path id="Path_537" data-name="Path 537" d="M198.335,68.2a2.506,2.506,0,1,1-2.5-2.5A2.505,2.505,0,0,1,198.335,68.2Z" transform="translate(7.969 -27.354)" fill="#e0e0e0"/>
          <g id="Group_621" data-name="Group 621" transform="translate(140.154 170.046)">
            <path id="Path_538" data-name="Path 538" d="M178.46,325.2a2.132,2.132,0,0,1-.3-.286c-.208-.221-.48-.512-.824-.879l-3.129-3.424c-.666-.754-1.453-1.556-2.227-2.5s-1.608-1.992-2.5-3.1-1.881-2.289-2.854-3.589l-2.991-4.181a131.227,131.227,0,0,1-12.514-21.977,117.964,117.964,0,0,1-8.728-29.688c-.508-2.709-.681-5.43-1.005-8.09q-.123-2.007-.243-3.985-.058-.988-.113-1.969-.014-.981-.026-1.955-.018-1.946-.035-3.858l.139-3.781c.028-1.248.112-2.48.225-3.7s.2-2.42.306-3.607a129.344,129.344,0,0,1,5.157-24.761,117.334,117.334,0,0,1,6.2-15.887c.878-1.814,1.607-3.2,2.131-4.12.258-.464.466-.81.61-1.042a1.927,1.927,0,0,1,.232-.34,2.291,2.291,0,0,1-.179.371l-.555,1.069c-.489.939-1.183,2.338-2.026,4.162a125.454,125.454,0,0,0-6.007,15.912,131.765,131.765,0,0,0-5.011,24.693q-.145,1.774-.293,3.591c-.11,1.211-.19,2.438-.215,3.681q-.065,1.862-.131,3.764.021,1.9.042,3.84c.009.645.019,1.294.028,1.944q.058.976.116,1.958.123,1.967.245,3.964c.326,2.647.5,5.354,1,8.05a118.858,118.858,0,0,0,8.639,29.556,133.7,133.7,0,0,0,12.355,21.957l2.948,4.195c.958,1.306,1.936,2.479,2.81,3.608l2.462,3.127c.759.96,1.531,1.77,2.183,2.536l3.04,3.5.78.92A1.937,1.937,0,0,1,178.46,325.2Z" transform="translate(-140.97 -178.476)" fill="#e0e0e0"/>
          </g>
          <g id="Group_622" data-name="Group 622" transform="translate(68.434 109.541)">
            <path id="Path_539" data-name="Path 539" d="M79.575,250.047a1.394,1.394,0,0,1-.02-.34c0-.258,0-.586.006-.995.02-.918.046-2.2.081-3.826q.032-1.252.072-2.765c.044-1.009.131-2.1.2-3.283.171-2.354.286-5.044.642-7.995q.233-2.219.489-4.641c.178-1.613.455-3.278.693-5.01.44-3.469,1.154-7.136,1.854-11.005a223.12,223.12,0,0,1,15.46-48.655c1.661-3.563,3.2-6.969,4.839-10.058.806-1.551,1.54-3.071,2.327-4.49l2.278-4.072c1.413-2.616,2.87-4.878,4.091-6.9.62-1,1.182-1.949,1.728-2.8l1.537-2.3c.912-1.348,1.629-2.408,2.143-3.169.234-.335.422-.6.57-.815a1.349,1.349,0,0,1,.211-.266,1.468,1.468,0,0,1-.16.3l-.52.849c-.49.775-1.176,1.856-2.046,3.23l-1.49,2.325-1.683,2.821c-1.191,2.034-2.621,4.307-4.007,6.931q-1.07,1.953-2.24,4.083c-.773,1.422-1.5,2.945-2.291,4.5-1.62,3.091-3.134,6.5-4.777,10.058A230.263,230.263,0,0,0,84.144,210.3c-.714,3.855-1.443,7.511-1.9,10.969-.248,1.726-.536,3.387-.725,4.995l-.528,4.627c-.383,2.943-.528,5.624-.73,7.973q-.137,1.76-.253,3.277c-.046,1-.088,1.926-.126,2.758-.083,1.624-.147,2.9-.194,3.82-.027.408-.049.735-.065.993A1.461,1.461,0,0,1,79.575,250.047Z" transform="translate(-79.555 -126.665)" fill="#e0e0e0"/>
          </g>
          <g id="Group_623" data-name="Group 623" transform="translate(219.812 80.727)">
            <path id="Path_540" data-name="Path 540" d="M296.945,109.733a5.134,5.134,0,0,1-.884-.231l-2.491-.775c-1.076-.355-2.4-.771-3.954-1.175s-3.3-.955-5.285-1.373l-3.094-.715c-1.077-.244-2.212-.423-3.38-.65-2.33-.482-4.852-.8-7.5-1.182a129.845,129.845,0,0,0-34.689.265c-2.639.422-5.157.779-7.48,1.3-1.163.245-2.3.44-3.369.7l-3.083.763c-1.975.447-3.716,1.016-5.263,1.454s-2.865.863-3.934,1.234l-2.479.813a5.146,5.146,0,0,1-.879.245,5.05,5.05,0,0,1,.836-.36l2.444-.923c1.06-.406,2.367-.876,3.912-1.336s3.281-1.069,5.255-1.545l3.084-.8c1.074-.274,2.209-.482,3.375-.739,2.327-.542,4.852-.92,7.5-1.358a125.312,125.312,0,0,1,34.841-.266c2.656.4,5.185.737,7.521,1.243,1.169.239,2.308.43,3.385.688l3.1.756c1.982.446,3.729,1.017,5.278,1.464s2.866.885,3.932,1.275l2.458.885A5.074,5.074,0,0,1,296.945,109.733Z" transform="translate(-209.182 -101.991)" fill="#e0e0e0"/>
          </g>
          <g id="Group_624" data-name="Group 624" transform="translate(280.488 104.902)">
            <path id="Path_541" data-name="Path 541" d="M333.774,159.448a4.585,4.585,0,0,1-.587-.626l-1.587-1.865-1.135-1.356c-.427-.486-.919-.989-1.431-1.543-1.04-1.093-2.163-2.4-3.565-3.68l-2.148-2.066c-.75-.715-1.593-1.39-2.43-2.127-1.656-1.5-3.575-2.918-5.558-4.453a96.735,96.735,0,0,0-29-14.664c-2.413-.688-4.692-1.393-6.882-1.837-1.09-.238-2.132-.517-3.153-.7l-2.936-.5c-1.865-.369-3.58-.5-5.078-.691-.75-.083-1.446-.181-2.089-.237l-1.765-.111-2.444-.173a4.606,4.606,0,0,1-.851-.1,4.44,4.44,0,0,1,.855-.021l2.454.06,1.773.058c.648.039,1.348.12,2.1.188,1.505.159,3.231.262,5.109.6l2.958.468c1.028.171,2.079.439,3.176.668,2.206.425,4.5,1.115,6.936,1.793a94.175,94.175,0,0,1,29.166,14.749c1.986,1.557,3.9,3,5.554,4.523.835.749,1.673,1.436,2.42,2.163l2.13,2.1c1.39,1.31,2.5,2.639,3.516,3.758.5.568.982,1.083,1.4,1.581l1.1,1.394c.622.8,1.122,1.449,1.5,1.941A4.561,4.561,0,0,1,333.774,159.448Z" transform="translate(-261.14 -122.693)" fill="#e0e0e0"/>
          </g>
          <g id="Group_625" data-name="Group 625" transform="translate(266.137 62.339)">
            <path id="Path_542" data-name="Path 542" d="M360.824,133.829a1.319,1.319,0,0,1-.25-.209c-.18-.172-.405-.388-.687-.655l-2.6-2.559-1.866-1.858c-.7-.663-1.49-1.346-2.322-2.1-1.685-1.487-3.526-3.267-5.764-5l-3.449-2.795c-1.2-.965-2.533-1.867-3.867-2.859-2.643-2.021-5.654-3.909-8.779-5.957A153.233,153.233,0,0,0,286.66,90.921c-3.645-.824-7.1-1.678-10.385-2.174-1.64-.27-3.214-.6-4.745-.794l-4.4-.537c-2.8-.406-5.361-.493-7.6-.671-1.121-.072-2.164-.168-3.125-.209l-2.632-.05-3.645-.09-.948-.039a1.349,1.349,0,0,1-.323-.034,1.285,1.285,0,0,1,.322-.028l.948-.022,3.649-.025,2.638,0c.965.023,2.01.1,3.134.159,2.247.147,4.816.2,7.628.584l4.424.5c1.537.183,3.118.5,4.765.763,3.3.475,6.772,1.314,10.434,2.127a150.131,150.131,0,0,1,44.748,18.986c3.13,2.068,6.14,3.979,8.779,6.023,1.331,1,2.659,1.919,3.858,2.9l3.433,2.833c2.228,1.759,4.055,3.566,5.721,5.08.822.77,1.606,1.467,2.292,2.143l1.831,1.9,2.519,2.642.643.7A1.285,1.285,0,0,1,360.824,133.829Z" transform="translate(-248.851 -86.245)" fill="#e0e0e0"/>
          </g>
          <g id="Group_626" data-name="Group 626" transform="translate(423.804 112.136)">
            <path id="Path_543" data-name="Path 543" d="M419.242,242.008a1.209,1.209,0,0,1-.032-.312l-.031-.914c-.014-.849-.034-2.023-.06-3.512q-.014-1.149-.029-2.536-.065-1.394-.141-3.014c-.123-2.162-.174-4.627-.46-7.338-.119-1.357-.244-2.779-.374-4.259s-.371-3.011-.562-4.6c-.348-3.186-.962-6.554-1.553-10.1A190.561,190.561,0,0,0,402.049,160.8c-1.539-3.256-2.953-6.374-4.482-9.191-.749-1.414-1.427-2.806-2.159-4.1s-1.445-2.529-2.12-3.714c-1.31-2.39-2.672-4.447-3.8-6.293l-1.6-2.557-1.421-2.1c-.827-1.238-1.478-2.214-1.951-2.921-.2-.313-.364-.565-.5-.768a1.251,1.251,0,0,1-.152-.273,148.962,148.962,0,0,1,9.794,14.7q1.033,1.771,2.159,3.7c.745,1.292,1.435,2.681,2.2,4.094,1.552,2.814,2.987,5.932,4.545,9.192a185.041,185.041,0,0,1,13.993,44.745c.578,3.565,1.175,6.946,1.5,10.142.181,1.6.405,3.131.529,4.616s.229,2.911.335,4.273A149.147,149.147,0,0,1,419.242,242.008Z" transform="translate(-383.863 -128.887)" fill="#e0e0e0"/>
          </g>
          <g id="Group_627" data-name="Group 627" transform="translate(338.487 195.009)">
            <path id="Path_544" data-name="Path 544" d="M405.768,199.852s.042.189.093.563c.051.4.121.949.211,1.657.147,1.462.507,3.6.68,6.393a185.38,185.38,0,0,1,.49,23.633c-.172,4.991-.631,10.446-1.267,16.284-.779,5.82-1.65,12.043-3.1,18.491-.327,1.619-.683,3.252-1.114,4.888q-.62,2.459-1.253,4.976c-.968,3.319-1.9,6.727-3.1,10.118a143.174,143.174,0,0,1-8.61,20.509,160.494,160.494,0,0,1-11.672,18.943A182.576,182.576,0,0,1,364.067,342.4a192.035,192.035,0,0,1-25.879,23.636,173.42,173.42,0,0,1-19.719,13.029c-2.4,1.434-4.369,2.345-5.658,3.048l-1.489.761c-.336.168-.516.241-.516.241s.161-.11.488-.3l1.46-.814c1.269-.737,3.223-1.68,5.6-3.145a182.351,182.351,0,0,0,19.577-13.166,194.8,194.8,0,0,0,25.725-23.671,183.971,183.971,0,0,0,12.988-16.061,161.205,161.205,0,0,0,11.617-18.875,143.684,143.684,0,0,0,8.584-20.421c1.2-3.377,2.135-6.772,3.106-10.079q.636-2.507,1.259-4.958c.432-1.63.792-3.258,1.121-4.872,1.46-6.425,2.348-12.63,3.146-18.432.657-5.821,1.14-11.261,1.338-16.242a195.4,195.4,0,0,0-.3-23.6c-.137-2.786-.458-4.932-.565-6.4-.065-.711-.116-1.265-.152-1.665C405.769,200.047,405.768,199.852,405.768,199.852Z" transform="translate(-310.805 -199.852)" fill="#e0e0e0"/>
          </g>
          <g id="Group_628" data-name="Group 628" transform="translate(380.333 144.685)">
            <path id="Path_545" data-name="Path 545" d="M346.639,156.759a2.651,2.651,0,0,1,.318.347c.218.26.513.61.886,1.057.752.949,1.956,2.281,3.315,4.141a130.421,130.421,0,0,1,10.623,16.357c2.02,3.594,3.971,7.674,5.93,12.108a141.424,141.424,0,0,1,5.261,14.554,135.988,135.988,0,0,1,5.72,34.918,144.787,144.787,0,0,1-.666,18.354,141.732,141.732,0,0,1-2.9,16.858,129.675,129.675,0,0,1-19.869,43.931c-1.286,1.913-2.43,3.293-3.144,4.272-.355.462-.634.823-.841,1.093a2.769,2.769,0,0,1-.3.36,2.718,2.718,0,0,1,.253-.4c.2-.278.458-.652.793-1.128.681-1,1.794-2.4,3.047-4.334a136.322,136.322,0,0,0,9.778-16.82,130.14,130.14,0,0,0,9.741-27.107,143.047,143.047,0,0,0,2.856-16.791,145.975,145.975,0,0,0,.65-18.274,136.953,136.953,0,0,0-5.649-34.777,143.45,143.45,0,0,0-5.189-14.517c-1.934-4.427-3.854-8.5-5.844-12.1a138.068,138.068,0,0,0-10.435-16.423c-1.329-1.879-2.5-3.231-3.221-4.205l-.84-1.094A2.809,2.809,0,0,1,346.639,156.759Z" transform="translate(-346.639 -156.759)" fill="#e0e0e0"/>
          </g>
          <g id="Group_629" data-name="Group 629" transform="translate(107.42 342.237)">
            <path id="Path_546" data-name="Path 546" d="M336.211,400.469s-.209.062-.626.153l-1.849.388c-1.628.33-4.024.848-7.139,1.36a257.333,257.333,0,0,1-26.525,3.238,268.8,268.8,0,0,1-39.626-.079c-7.444-.558-15.24-1.428-23.254-2.758a240.083,240.083,0,0,1-24.583-5.275,154.933,154.933,0,0,1-23.678-8.471,156.593,156.593,0,0,1-20.538-11.266,189.356,189.356,0,0,1-17.061-12.577c-5.146-4.2-9.7-8.392-13.765-12.305-8.11-7.857-14.2-14.676-18.339-19.437-2.078-2.375-3.639-4.262-4.7-5.542-.516-.627-.914-1.113-1.2-1.461-.267-.331-.392-.51-.392-.51s.156.153.44.471l1.245,1.421c1.088,1.254,2.678,3.116,4.782,5.465,4.189,4.711,10.323,11.478,18.458,19.283,4.078,3.888,8.639,8.055,13.787,12.226a190.746,190.746,0,0,0,17.047,12.5,157.137,157.137,0,0,0,20.477,11.192,155.461,155.461,0,0,0,23.594,8.428,241.979,241.979,0,0,0,24.518,5.274c8,1.335,15.775,2.215,23.2,2.788a273.427,273.427,0,0,0,39.553.209c11.249-.74,20.3-2.023,26.516-3.043,3.118-.476,5.52-.956,7.155-1.247l1.86-.328C335.992,400.49,336.211,400.469,336.211,400.469Z" transform="translate(-112.939 -325.926)" fill="#e0e0e0"/>
          </g>
          <g id="Group_630" data-name="Group 630" transform="translate(165.06 362.938)">
            <path id="Path_547" data-name="Path 547" d="M263.346,377.783a121.744,121.744,0,0,1-15.951-.193l-3.861-.3c-1.342-.112-2.728-.325-4.168-.493-2.888-.3-5.937-.874-9.153-1.422a152.161,152.161,0,0,1-40.107-13.546c-2.891-1.513-5.661-2.909-8.142-4.419-1.247-.74-2.478-1.412-3.613-2.136l-3.255-2.1a121.794,121.794,0,0,1-12.8-9.518.981.981,0,0,1,.242.147l.671.481,2.542,1.9,1.828,1.38c.677.493,1.435,1,2.236,1.556,1.616,1.1,3.408,2.423,5.514,3.7l3.265,2.06c1.139.712,2.372,1.371,3.62,2.1,2.484,1.485,5.253,2.86,8.141,4.355a156.609,156.609,0,0,0,39.962,13.5c3.2.562,6.237,1.149,9.112,1.473,1.435.178,2.816.4,4.151.525l3.846.342c2.448.265,4.675.3,6.627.405.976.041,1.885.1,2.722.119l2.29.009,3.172.034.826.025A.951.951,0,0,1,263.346,377.783Z" transform="translate(-162.297 -343.652)" fill="#e0e0e0"/>
          </g>
          <g id="Group_631" data-name="Group 631" transform="translate(144.295 312.22)">
            <path id="Path_548" data-name="Path 548" d="M226.564,354.12a6.451,6.451,0,0,1-1.017-.139l-2.9-.517-2.093-.389c-.76-.16-1.578-.377-2.461-.589-1.76-.447-3.788-.874-5.963-1.588L208.7,349.85c-1.192-.373-2.4-.856-3.667-1.3-2.55-.864-5.178-2.034-7.963-3.216A122.758,122.758,0,0,1,164.3,323.8c-2.191-2.088-4.308-4.034-6.115-6.032-.916-.986-1.838-1.9-2.653-2.847s-1.584-1.864-2.326-2.736c-1.518-1.711-2.715-3.4-3.826-4.84-.544-.726-1.067-1.391-1.517-2.025l-1.186-1.766q-1.025-1.545-1.626-2.454a6.488,6.488,0,0,1-.531-.878,6.528,6.528,0,0,1,.634.81q.634.883,1.717,2.385.557.788,1.227,1.732c.462.622,1,1.275,1.553,1.99,1.133,1.413,2.348,3.081,3.884,4.769l2.346,2.7c.821.934,1.749,1.838,2.668,2.812,1.814,1.975,3.937,3.9,6.126,5.966A126,126,0,0,0,197.3,344.819c2.767,1.19,5.374,2.373,7.907,3.253,1.259.457,2.457.951,3.64,1.332l3.41,1.081c2.158.739,4.173,1.192,5.92,1.671.876.227,1.687.459,2.443.635q1.132.24,2.076.439l2.872.628A6.5,6.5,0,0,1,226.564,354.12Z" transform="translate(-144.516 -300.222)" fill="#e0e0e0"/>
          </g>
          <g id="Group_632" data-name="Group 632" transform="translate(134.245 408.421)">
            <path id="Path_549" data-name="Path 549" d="M272.979,424.358a1.752,1.752,0,0,1-.375.056l-1.108.1-4.267.34-3.086.231c-1.129.058-2.359.064-3.679.1-2.64.037-5.649.2-8.972.036l-5.219-.153c-1.814-.062-3.693-.267-5.644-.4-3.907-.223-8.045-.823-12.409-1.379a190.254,190.254,0,0,1-54.557-16.621c-3.933-1.971-7.7-3.78-11.072-5.774-1.7-.974-3.37-1.852-4.911-2.811l-4.418-2.783c-2.849-1.718-5.256-3.53-7.427-5.033-1.076-.766-2.094-1.456-3-2.135q-1.331-1.044-2.434-1.912l-3.352-2.661-.862-.7a1.755,1.755,0,0,1-.28-.256,1.787,1.787,0,0,1,.319.207l.9.656,3.419,2.569,2.462,1.866c.913.664,1.939,1.339,3.021,2.09,2.186,1.475,4.6,3.258,7.463,4.948l4.427,2.743c1.543.946,3.22,1.811,4.915,2.773,3.371,1.969,7.139,3.756,11.066,5.708a194.01,194.01,0,0,0,54.4,16.573c4.349.569,8.472,1.185,12.368,1.431,1.944.147,3.819.363,5.628.438l5.2.192c3.315.192,6.318.058,8.953.054,1.318-.02,2.547-.009,3.675-.05l3.084-.177,4.271-.227,1.113-.043A1.825,1.825,0,0,1,272.979,424.358Z" transform="translate(-135.91 -382.6)" fill="#e0e0e0"/>
          </g>
          <g id="Group_633" data-name="Group 633" transform="translate(54.393 156.98)">
            <path id="Path_550" data-name="Path 550" d="M116.881,186.225c-.06.156-11.156-3.955-24.782-9.182s-24.626-9.595-24.567-9.751,11.155,3.953,24.785,9.184S116.941,186.069,116.881,186.225Z" transform="translate(-67.532 -167.287)" fill="#e0e0e0"/>
          </g>
          <g id="Group_634" data-name="Group 634" transform="translate(68.65 139.933)">
            <path id="Path_551" data-name="Path 551" d="M160.377,152.69a1.754,1.754,0,0,1-.235.294l-.735.82c-.627.736-1.664,1.72-2.812,3.154a90.61,90.61,0,0,0-9.048,12.6,108.671,108.671,0,0,0-9.521,20.915,137.885,137.885,0,0,0-6.075,27.483,132.6,132.6,0,0,0-.877,21.468l.015.312h-.3l-36.64-.109-10.6-.084-2.83-.048-.73-.025a.965.965,0,0,1-.248-.025.867.867,0,0,1,.248-.026l.73-.025,2.83-.048,10.6-.084,36.64-.109-.29.311a130.835,130.835,0,0,1,.852-21.58,136.086,136.086,0,0,1,6.148-27.591,106.839,106.839,0,0,1,9.682-20.957,85.674,85.674,0,0,1,9.24-12.533c1.177-1.414,2.245-2.374,2.9-3.084l.778-.779A1.676,1.676,0,0,1,160.377,152.69Z" transform="translate(-79.74 -152.69)" fill="#e0e0e0"/>
          </g>
          <line id="Line_11" data-name="Line 11" y1="7.027" x2="45.076" transform="translate(99.221 245.926)" fill="none"/>
          <g id="Group_635" data-name="Group 635" transform="translate(147.347 318.449)">
            <path id="Path_552" data-name="Path 552" d="M175.79,305.557a7.739,7.739,0,0,1-.962,1.236c-.647.771-1.61,1.864-2.823,3.2-2.421,2.664-5.863,6.257-9.827,10.062s-7.7,7.093-10.463,9.4c-1.382,1.155-2.513,2.072-3.31,2.687a7.728,7.728,0,0,1-1.275.91,7.752,7.752,0,0,1,1.123-1.092l3.18-2.831c2.686-2.388,6.366-5.721,10.323-9.515s7.438-7.333,9.936-9.917l2.96-3.06A7.768,7.768,0,0,1,175.79,305.557Z" transform="translate(-147.129 -305.556)" fill="#e0e0e0"/>
          </g>
          <g id="Group_636" data-name="Group 636" transform="translate(135.273 360.244)">
            <path id="Path_553" data-name="Path 553" d="M167.454,341.346c.142.089-6.606,11.173-15.073,24.754s-15.446,24.524-15.589,24.435,6.605-11.17,15.073-24.756S167.311,341.257,167.454,341.346Z" transform="translate(-136.79 -341.346)" fill="#e0e0e0"/>
          </g>
          <g id="Group_637" data-name="Group 637" transform="translate(206.585 368.325)">
            <path id="Path_554" data-name="Path 554" d="M213.626,348.266a10.93,10.93,0,0,1-.591,1.761c-.46,1.217-1.063,2.807-1.789,4.726-1.517,3.987-3.586,9.5-5.763,15.637s-4.045,11.724-5.381,15.776l-1.588,4.8a11.022,11.022,0,0,1-.652,1.739,10.779,10.779,0,0,1,.425-1.808c.309-1.154.789-2.813,1.4-4.857,1.231-4.088,3.04-9.707,5.218-15.849s4.316-11.641,5.937-15.591c.809-1.976,1.483-3.566,1.97-4.657A10.712,10.712,0,0,1,213.626,348.266Z" transform="translate(-197.855 -348.266)" fill="#e0e0e0"/>
          </g>
          <g id="Group_638" data-name="Group 638" transform="translate(310.547 366.27)">
            <path id="Path_555" data-name="Path 555" d="M301.89,398.022a1.838,1.838,0,0,1-.211-.506c-.135-.408-.3-.9-.492-1.484l-1.7-5.493c-1.41-4.647-3.318-11.077-5.389-18.19s-3.916-13.565-5.22-18.242c-.62-2.269-1.132-4.141-1.515-5.546-.152-.6-.277-1.1-.382-1.516a1.9,1.9,0,0,1-.093-.539,1.957,1.957,0,0,1,.211.508l.493,1.485c.43,1.391,1,3.245,1.7,5.494,1.411,4.646,3.318,11.075,5.389,18.188s3.913,13.558,5.219,18.235c.619,2.269,1.13,4.142,1.515,5.547.152.6.278,1.1.382,1.517A1.887,1.887,0,0,1,301.89,398.022Z" transform="translate(-286.88 -346.506)" fill="#e0e0e0"/>
          </g>
          <g id="Group_639" data-name="Group 639" transform="translate(322.629 338.209)">
            <path id="Path_556" data-name="Path 556" d="M312.06,361.383c-.158.061-3.6-8.6-7.7-19.343s-7.287-19.5-7.131-19.563,3.6,8.6,7.7,19.346S312.217,361.324,312.06,361.383Z" transform="translate(-297.226 -322.477)" fill="#e0e0e0"/>
          </g>
          <g id="Group_640" data-name="Group 640" transform="translate(384.184 312.266)">
            <path id="Path_557" data-name="Path 557" d="M387.176,324.9a9.9,9.9,0,0,1-1.619-.7c-1.026-.482-2.492-1.218-4.288-2.158-3.589-1.884-8.471-4.648-13.636-8.061s-9.618-6.832-12.756-9.4c-1.568-1.285-2.819-2.346-3.663-3.1a9.741,9.741,0,0,1-1.276-1.217,9.942,9.942,0,0,1,1.427,1.035l3.78,2.948c3.2,2.475,7.678,5.819,12.824,9.227s9.976,6.213,13.507,8.19l4.191,2.325A9.721,9.721,0,0,1,387.176,324.9Z" transform="translate(-349.936 -300.261)" fill="#e0e0e0"/>
          </g>
          <g id="Group_641" data-name="Group 641" transform="translate(422.104 278.924)">
            <path id="Path_558" data-name="Path 558" d="M436.012,284.981c-.041.163-12.074-2.674-26.874-6.336s-26.771-6.765-26.73-6.927,12.07,2.673,26.876,6.338S436.052,284.818,436.012,284.981Z" transform="translate(-382.408 -271.71)" fill="#e0e0e0"/>
          </g>
          <g id="Group_642" data-name="Group 642" transform="translate(414.79 225.809)">
            <path id="Path_559" data-name="Path 559" d="M423.108,226.361c0,.168-10.51.429-23.476.582s-23.486.141-23.487-.027,10.508-.429,23.479-.582S423.107,226.193,423.108,226.361Z" transform="translate(-376.145 -226.227)" fill="#e0e0e0"/>
          </g>
          <g id="Group_643" data-name="Group 643" transform="translate(330.691 194.828)">
            <path id="Path_560" data-name="Path 560" d="M406.049,199.747c0,.168-22.812.7-50.952,1.2s-50.964.757-50.967.589,22.807-.7,50.957-1.2S406.046,199.58,406.049,199.747Z" transform="translate(-304.13 -199.697)" fill="#e0e0e0"/>
          </g>
          <g id="Group_644" data-name="Group 644" transform="translate(423.741 154.186)">
            <path id="Path_561" data-name="Path 561" d="M434.172,164.9a1.9,1.9,0,0,1-.5.23l-1.475.547-5.447,1.936c-4.6,1.631-10.939,3.921-17.891,6.582s-13.2,5.2-17.713,7.056l-5.346,2.2-1.462.578a1.953,1.953,0,0,1-.527.165,1.819,1.819,0,0,1,.476-.277l1.418-.683c1.234-.583,3.035-1.4,5.273-2.376,4.473-1.962,10.7-4.559,17.664-7.227s13.33-4.893,17.969-6.422c2.319-.765,4.2-1.363,5.512-1.753l1.51-.439A1.913,1.913,0,0,1,434.172,164.9Z" transform="translate(-383.81 -164.895)" fill="#e0e0e0"/>
          </g>
          <g id="Group_645" data-name="Group 645" transform="translate(353.993 109.767)">
            <path id="Path_562" data-name="Path 562" d="M354.728,126.86c.111.126-6.659,6.269-15.119,13.719s-15.413,13.391-15.523,13.265,6.658-6.268,15.122-13.72S354.617,126.734,354.728,126.86Z" transform="translate(-324.084 -126.858)" fill="#e0e0e0"/>
          </g>
          <g id="Group_646" data-name="Group 646" transform="translate(364.327 45.483)">
            <path id="Path_563" data-name="Path 563" d="M363.98,71.812c.137.1-6.7,9.934-15.275,21.97S333.071,115.5,332.934,115.4s6.7-9.933,15.276-21.973S363.843,71.714,363.98,71.812Z" transform="translate(-332.932 -71.811)" fill="#e0e0e0"/>
          </g>
          <g id="Group_647" data-name="Group 647" transform="translate(264.032 3.634)">
            <path id="Path_564" data-name="Path 564" d="M248.26,92.19a2.141,2.141,0,0,1-.02-.576c.018-.445.037-.987.062-1.64.065-1.518.154-3.554.263-6.027.2-5.088.353-12.122.19-19.888s-.62-14.789-1.037-19.864c-.214-2.466-.389-4.5-.52-6.009l-.131-1.636a2.053,2.053,0,0,1,0-.576,2.094,2.094,0,0,1,.126.562c.067.44.147.976.244,1.623.2,1.412.45,3.46.712,6,.528,5.073,1.049,12.105,1.218,19.891s-.058,14.832-.369,19.921c-.154,2.546-.313,4.6-.457,6.022-.07.65-.127,1.189-.175,1.633A2.05,2.05,0,0,1,248.26,92.19Z" transform="translate(-247.049 -35.975)" fill="#e0e0e0"/>
          </g>
          <g id="Group_648" data-name="Group 648" transform="translate(188.463 77.314)">
            <path id="Path_565" data-name="Path 565" d="M201.3,133.521a7.569,7.569,0,0,1-.937-1.236c-.573-.816-1.372-2.018-2.337-3.516-1.929-3-4.487-7.21-7.111-11.976s-4.812-9.184-6.312-12.417c-.751-1.616-1.337-2.935-1.72-3.855a7.535,7.535,0,0,1-.542-1.453,7.751,7.751,0,0,1,.757,1.353l1.892,3.767c1.6,3.181,3.842,7.553,6.458,12.311s5.11,8.991,6.944,12.041c.868,1.447,1.6,2.659,2.17,3.615A7.427,7.427,0,0,1,201.3,133.521Z" transform="translate(-182.338 -99.069)" fill="#e0e0e0"/>
          </g>
          <g id="Group_653" data-name="Group 653" transform="translate(307.04 159.885)">
            <g id="Group_649" data-name="Group 649">
              <path id="Path_566" data-name="Path 566" d="M323.958,191.183a2.853,2.853,0,0,1-.023-.4l-.026-1.114c-.014-1.014-.033-2.427-.057-4.22-.029-3.672-.071-8.894-.123-15.306l.229.229-39.769.075c-.274.272.367-.37.3-.3v2.765q0,1.377,0,2.737,0,2.72,0,5.363c0,3.519-.009,6.922-.014,10.169l-.285-.285,28.513.138,8.253.077,2.218.035a7.342,7.342,0,0,1,.788.035,5.189,5.189,0,0,1-.721.034l-2.16.036-8.187.077-28.7.138H283.9v-.286c0-3.248-.009-6.651-.014-10.169q0-2.64,0-5.363,0-1.359,0-2.737v-2.765c-.067.064.577-.579.307-.306l39.769.075h.231v.229c-.051,6.472-.093,11.742-.123,15.446-.025,1.773-.044,3.168-.057,4.17-.01.44-.019.793-.026,1.071A1.7,1.7,0,0,1,323.958,191.183Z" transform="translate(-283.877 -169.775)" fill="#e0e0e0"/>
            </g>
            <g id="Group_650" data-name="Group 650" transform="translate(5.491 7.409)">
              <path id="Path_567" data-name="Path 567" d="M316.175,176.424c0,.167-6.179.3-13.8.3s-13.8-.137-13.8-.3,6.176-.3,13.8-.3S316.175,176.256,316.175,176.424Z" transform="translate(-288.579 -176.119)" fill="#e0e0e0"/>
            </g>
            <g id="Group_651" data-name="Group 651" transform="translate(5.491 11.941)">
              <path id="Path_568" data-name="Path 568" d="M316.175,180.3c0,.168-6.179.3-13.8.3s-13.8-.135-13.8-.3,6.176-.3,13.8-.3S316.175,180.137,316.175,180.3Z" transform="translate(-288.579 -180)" fill="#e0e0e0"/>
            </g>
            <g id="Group_652" data-name="Group 652" transform="translate(23.348 20.95)">
              <path id="Path_569" data-name="Path 569" d="M304.174,187.715c.168,0,.3,2.542.3,5.678s-.137,5.678-.3,5.678-.3-2.542-.3-5.678S304.007,187.715,304.174,187.715Z" transform="translate(-303.87 -187.715)" fill="#e0e0e0"/>
            </g>
          </g>
          <g id="Group_657" data-name="Group 657" transform="translate(452.236 252.012)">
            <g id="Group_654" data-name="Group 654">
              <path id="Path_570" data-name="Path 570" d="M448.292,270.074a2.861,2.861,0,0,1-.023-.4c-.007-.288-.015-.655-.026-1.113-.014-1.014-.033-2.427-.057-4.22-.029-3.672-.071-8.894-.123-15.306l.229.229-39.769.075c-.274.271.367-.37.3-.3v2.765q0,1.377,0,2.737,0,2.72,0,5.363c0,3.519-.009,6.922-.014,10.168l-.285-.285,28.513.138,8.253.078,2.218.035a7.342,7.342,0,0,1,.788.035,5.728,5.728,0,0,1-.721.034l-2.16.035-8.187.078-28.7.138h-.285v-.287c0-3.246-.008-6.649-.014-10.168q0-2.64,0-5.363,0-1.359,0-2.737V249.04c-.067.063.577-.579.307-.307l39.769.075h.231v.229c-.051,6.472-.093,11.742-.123,15.446-.024,1.773-.044,3.168-.057,4.169l-.026,1.072A1.713,1.713,0,0,1,448.292,270.074Z" transform="translate(-408.211 -248.665)" fill="#e0e0e0"/>
            </g>
            <g id="Group_655" data-name="Group 655" transform="translate(5.491 7.409)">
              <path id="Path_571" data-name="Path 571" d="M440.509,255.314c0,.168-6.179.3-13.8.3s-13.8-.137-13.8-.3,6.176-.3,13.8-.3S440.509,255.147,440.509,255.314Z" transform="translate(-412.913 -255.01)" fill="#e0e0e0"/>
            </g>
            <g id="Group_656" data-name="Group 656" transform="translate(5.491 11.942)">
              <path id="Path_572" data-name="Path 572" d="M440.509,259.195c0,.168-6.179.3-13.8.3s-13.8-.137-13.8-.3,6.176-.3,13.8-.3S440.509,259.028,440.509,259.195Z" transform="translate(-412.913 -258.891)" fill="#e0e0e0"/>
            </g>
          </g>
          <g id="Group_663" data-name="Group 663" transform="translate(461.161 74.946)">
            <g id="Group_659" data-name="Group 659" transform="translate(0 0)">
              <rect id="Rectangle_90" data-name="Rectangle 90" width="39.773" height="21.037" transform="translate(0.309 0.372)" fill="none"/>
              <g id="Group_658" data-name="Group 658">
                <path id="Path_573" data-name="Path 573" d="M455.934,118.449a2.747,2.747,0,0,1-.024-.4c-.007-.288-.015-.655-.026-1.113-.013-1.014-.033-2.427-.057-4.22-.029-3.672-.071-8.894-.123-15.306l.23.229-39.77.075c-.273.271.367-.37.3-.3v2.765q0,1.377,0,2.737,0,2.72,0,5.363c0,3.519-.009,6.922-.014,10.169l-.285-.286,28.514.138,8.252.078,2.218.035a7.368,7.368,0,0,1,.789.035,5.48,5.48,0,0,1-.722.034l-2.159.035-8.187.078-28.7.138h-.285v-.286c0-3.248-.009-6.651-.014-10.169q0-2.64,0-5.363,0-1.359,0-2.737V97.415c-.068.063.576-.579.306-.307l39.77.075h.231l0,.229c-.051,6.472-.093,11.742-.123,15.446-.025,1.773-.043,3.168-.057,4.169-.01.441-.019.794-.026,1.072A1.79,1.79,0,0,1,455.934,118.449Z" transform="translate(-415.853 -97.04)" fill="#e0e0e0"/>
              </g>
            </g>
            <g id="Group_660" data-name="Group 660" transform="translate(5.49 7.409)">
              <path id="Path_574" data-name="Path 574" d="M448.15,103.689c0,.168-6.178.3-13.8.3s-13.8-.137-13.8-.3,6.178-.3,13.8-.3S448.15,103.522,448.15,103.689Z" transform="translate(-420.554 -103.385)" fill="#e0e0e0"/>
            </g>
            <g id="Group_661" data-name="Group 661" transform="translate(5.49 11.942)">
              <path id="Path_575" data-name="Path 575" d="M448.15,107.571c0,.167-6.178.3-13.8.3s-13.8-.137-13.8-.3,6.178-.3,13.8-.3S448.15,107.4,448.15,107.571Z" transform="translate(-420.554 -107.266)" fill="#e0e0e0"/>
            </g>
            <g id="Group_662" data-name="Group 662" transform="translate(12.449 21.313)">
              <path id="Path_576" data-name="Path 576" d="M426.817,115.291c.168,0,.3,12.419.3,27.737s-.135,27.74-.3,27.74-.3-12.417-.3-27.74S426.648,115.291,426.817,115.291Z" transform="translate(-426.513 -115.291)" fill="#e0e0e0"/>
            </g>
          </g>
          <g id="Group_667" data-name="Group 667" transform="translate(0 129.375)">
            <g id="Group_664" data-name="Group 664">
              <path id="Path_577" data-name="Path 577" d="M61.035,165.058a2.73,2.73,0,0,1-.025-.4l-.025-1.113c-.014-1.014-.034-2.427-.058-4.22-.029-3.672-.071-8.894-.121-15.306l.229.229-39.769.075c-.274.271.367-.37.3-.3v2.765q0,1.377,0,2.737,0,2.72,0,5.363c0,3.519-.009,6.92-.014,10.168l-.285-.285,28.514.138,8.253.078,2.218.035a7.364,7.364,0,0,1,.788.035,5.457,5.457,0,0,1-.722.034l-2.159.035-8.187.078-28.7.138h-.285v-.287c0-3.248-.009-6.649-.014-10.168q0-2.64,0-5.363,0-1.359,0-2.737v-2.765c-.067.063.576-.579.307-.307l39.769.075h.231l0,.229c-.051,6.472-.092,11.741-.123,15.446-.023,1.773-.043,3.168-.057,4.169-.011.44-.019.794-.025,1.072A1.715,1.715,0,0,1,61.035,165.058Z" transform="translate(-20.954 -143.649)" fill="#e0e0e0"/>
            </g>
            <g id="Group_665" data-name="Group 665" transform="translate(5.491 7.409)">
              <path id="Path_578" data-name="Path 578" d="M53.251,150.3c0,.168-6.178.3-13.8.3s-13.8-.137-13.8-.3,6.176-.3,13.8-.3S53.251,150.131,53.251,150.3Z" transform="translate(-25.656 -149.994)" fill="#e0e0e0"/>
            </g>
            <g id="Group_666" data-name="Group 666" transform="translate(5.491 11.942)">
              <path id="Path_579" data-name="Path 579" d="M53.251,154.18c0,.167-6.178.3-13.8.3s-13.8-.137-13.8-.3,6.176-.3,13.8-.3S53.251,154.012,53.251,154.18Z" transform="translate(-25.656 -153.875)" fill="#e0e0e0"/>
            </g>
          </g>
          <g id="Group_672" data-name="Group 672" transform="translate(71.53 372.849)">
            <g id="Group_669" data-name="Group 669">
              <rect id="Rectangle_91" data-name="Rectangle 91" width="39.772" height="21.037" transform="translate(0.309 0.372)" fill="none"/>
              <g id="Group_668" data-name="Group 668">
                <path id="Path_580" data-name="Path 580" d="M122.287,373.548a2.732,2.732,0,0,1-.025-.4l-.025-1.113c-.014-1.014-.033-2.427-.057-4.22-.03-3.672-.071-8.894-.123-15.306l.229.229-39.769.075c-.274.271.367-.37.3-.3v2.765q0,1.377,0,2.737,0,2.72,0,5.363c0,3.519-.009,6.922-.014,10.168l-.285-.285,28.513.138,8.253.078,2.218.035a7.342,7.342,0,0,1,.788.035,5.738,5.738,0,0,1-.722.034l-2.159.035-8.187.078-28.7.138h-.285v-.287c0-3.246-.009-6.649-.014-10.168q0-2.64,0-5.363,0-1.359,0-2.737v-2.765c-.067.063.577-.579.307-.307l39.769.075h.231l0,.229c-.05,6.471-.092,11.741-.121,15.446-.025,1.772-.044,3.168-.058,4.169-.009.44-.019.794-.025,1.072A1.713,1.713,0,0,1,122.287,373.548Z" transform="translate(-82.206 -352.139)" fill="#e0e0e0"/>
              </g>
            </g>
            <g id="Group_670" data-name="Group 670" transform="translate(5.491 7.409)">
              <path id="Path_581" data-name="Path 581" d="M114.5,358.788c0,.168-6.179.3-13.8.3s-13.8-.137-13.8-.3,6.176-.3,13.8-.3S114.5,358.621,114.5,358.788Z" transform="translate(-86.908 -358.484)" fill="#e0e0e0"/>
            </g>
            <g id="Group_671" data-name="Group 671" transform="translate(5.491 11.942)">
              <path id="Path_582" data-name="Path 582" d="M114.5,362.669c0,.168-6.179.3-13.8.3s-13.8-.137-13.8-.3,6.176-.3,13.8-.3S114.5,362.5,114.5,362.669Z" transform="translate(-86.908 -362.365)" fill="#e0e0e0"/>
            </g>
          </g>
          <g id="Group_676" data-name="Group 676" transform="translate(309.344)">
            <g id="Group_673" data-name="Group 673">
              <path id="Path_583" data-name="Path 583" d="M325.931,54.271a2.721,2.721,0,0,1-.025-.4c-.006-.288-.014-.656-.025-1.114-.014-1.012-.034-2.427-.057-4.22-.03-3.672-.071-8.893-.123-15.306l.229.23-39.769.075c-.274.271.367-.37.3-.3V36q0,1.379,0,2.738,0,2.72,0,5.363c-.006,3.519-.01,6.92-.014,10.168l-.286-.285,28.514.138,8.253.078,2.218.035a7.583,7.583,0,0,1,.788.034,5.282,5.282,0,0,1-.722.035l-2.159.035-8.187.078-28.7.138h-.285v-.287c0-3.248-.009-6.649-.014-10.168q0-2.64,0-5.363,0-1.361,0-2.738V33.237c-.067.064.577-.578.307-.306l39.769.075h.231l0,.229c-.05,6.472-.092,11.742-.121,15.448-.025,1.772-.044,3.168-.058,4.169l-.025,1.072A1.7,1.7,0,0,1,325.931,54.271Z" transform="translate(-285.85 -32.863)" fill="#e0e0e0"/>
            </g>
            <g id="Group_674" data-name="Group 674" transform="translate(5.491 7.409)">
              <path id="Path_584" data-name="Path 584" d="M318.147,39.512c0,.168-6.178.3-13.8.3s-13.8-.135-13.8-.3,6.176-.3,13.8-.3S318.147,39.343,318.147,39.512Z" transform="translate(-290.552 -39.208)" fill="#e0e0e0"/>
            </g>
            <g id="Group_675" data-name="Group 675" transform="translate(5.491 11.942)">
              <path id="Path_585" data-name="Path 585" d="M318.147,43.393c0,.168-6.178.3-13.8.3s-13.8-.137-13.8-.3,6.176-.3,13.8-.3S318.147,43.224,318.147,43.393Z" transform="translate(-290.552 -43.089)" fill="#e0e0e0"/>
            </g>
          </g>
          <g id="Group_677" data-name="Group 677" transform="translate(19.076 150.784)">
            <path id="Path_586" data-name="Path 586" d="M67.6,166.679a5.962,5.962,0,0,1-1.367.118l-3.728.1c-3.148.055-7.5.089-12.3.089-5.029,0-9.56-.037-12.7-.1l-.213,0,.006-.2q.054-2.048.093-3.447a5.221,5.221,0,0,1,.113-1.25,5.221,5.221,0,0,1,.113,1.25q.039,1.4.093,3.447l-.207-.208c3.139-.06,7.67-.1,12.7-.1,4.8,0,9.152.034,12.3.09l3.728.1A5.912,5.912,0,0,1,67.6,166.679Z" transform="translate(-37.289 -161.982)" fill="#e0e0e0"/>
          </g>
          <g id="Group_678" data-name="Group 678" transform="translate(312.611 21.408)">
            <path id="Path_587" data-name="Path 587" d="M288.652,115.949a2.855,2.855,0,0,1,.158-.657l.564-1.849c.514-1.683,1.218-3.983,2.076-6.791,1.723-5.742,3.947-13.724,5.98-22.64.984-4.3,1.839-8.416,2.559-12.177l0,.06c-.116-6.018-.214-11.164-.286-14.9-.013-1.767-.025-3.2-.033-4.268a9.556,9.556,0,0,1,.051-1.529,9.6,9.6,0,0,1,.132,1.523c.048,1.071.113,2.5.194,4.265.126,3.737.3,8.883.5,14.9v.028l-.006.032c-.691,3.772-1.533,7.9-2.519,12.208-2.038,8.935-4.333,16.914-6.162,22.631-.909,2.861-1.7,5.158-2.263,6.741l-.673,1.812A2.806,2.806,0,0,1,288.652,115.949Z" transform="translate(-288.648 -51.195)" fill="#e0e0e0"/>
          </g>
          <g id="Group_679" data-name="Group 679" transform="translate(113.659 384.79)">
            <path id="Path_588" data-name="Path 588" d="M151.971,362.669c0,.168-7.542.3-16.843.3s-16.845-.137-16.845-.3,7.54-.3,16.845-.3S151.971,362.5,151.971,362.669Z" transform="translate(-118.282 -362.365)" fill="#e0e0e0"/>
          </g>
        </g>
      </g>
    </g>
  </g>
</svg>
