<svg xmlns="http://www.w3.org/2000/svg" width="12.346" height="21.75" viewBox="0 0 12.346 21.75">
  <path id="Path_14" data-name="Path 14" d="M122.989,7.467a.348.348,0,0,0-.326-.217h-4.277L122.626.544a.329.329,0,0,0,0-.362A.381.381,0,0,0,122.3,0h-5.8a.381.381,0,0,0-.326.181l-5.437,10.875a.329.329,0,0,0,0,.362.433.433,0,0,0,.326.181H114.8l-4.06,9.679a.362.362,0,0,0,.145.435.272.272,0,0,0,.181.036.412.412,0,0,0,.29-.109l11.6-13.775A.389.389,0,0,0,122.989,7.467ZM112.331,19.321l3.335-7.975a.352.352,0,0,0-.036-.326.448.448,0,0,0-.29-.145h-3.7L116.717.725h4.93L117.37,7.431a.329.329,0,0,0,0,.362.381.381,0,0,0,.326.181H121.9Z" transform="translate(-110.682)" fill="#5dc378"/>
</svg>
