<svg xmlns="http://www.w3.org/2000/svg" width="27.8" height="37.589" viewBox="0 0 27.8 37.589">
  <g id="business-report_1_" data-name="business-report (1)" transform="translate(-66.67)">
    <g id="Group_76" data-name="Group 76" transform="translate(66.67)">
      <path id="Path_16" data-name="Path 16" d="M93.919,0h-26.7a.551.551,0,0,0-.551.551V26.706a.551.551,0,0,0,1.1,0V1.1h25.6V4.563a.551.551,0,1,0,1.1,0V.551A.551.551,0,0,0,93.919,0Z" transform="translate(-66.67)" fill="#f02523"/>
      <path id="Path_17" data-name="Path 17" d="M93.919,89.65a.551.551,0,0,0-.551.551v29.356h-25.6v-7.212a.551.551,0,0,0-1.1,0v7.763a.551.551,0,0,0,.551.551h26.7a.551.551,0,0,0,.551-.551V90.2A.551.551,0,0,0,93.919,89.65Z" transform="translate(-66.67 -83.068)" fill="#f02523"/>
      <path id="Path_18" data-name="Path 18" d="M99,102.245a4.259,4.259,0,1,0,4.259-4.259A4.264,4.264,0,0,0,99,102.245Zm4.259,3.158a3.157,3.157,0,0,1-.551-6.266v3.108a.551.551,0,0,0,.551.551h3.108A3.162,3.162,0,0,1,103.255,105.4Zm3.108-3.708h-2.558V99.136A3.165,3.165,0,0,1,106.363,101.694Z" transform="translate(-96.623 -90.792)" fill="#f02523"/>
      <path id="Path_19" data-name="Path 19" d="M103.587,432.35a.551.551,0,0,0-.551.551v2.373a.551.551,0,0,0,.551.551h3.56a.551.551,0,0,0,.551-.551V432.9a.551.551,0,0,0-.551-.551Zm3.009,2.373h-2.459v-1.272H106.6Z" transform="translate(-100.366 -400.608)" fill="#f02523"/>
      <path id="Path_20" data-name="Path 20" d="M184.4,390.9h3.56a.551.551,0,0,0,.551-.551v-5.933a.551.551,0,0,0-.551-.551H184.4a.551.551,0,0,0-.551.551v5.933A.551.551,0,0,0,184.4,390.9Zm.551-5.933h2.459V389.8h-2.459Z" transform="translate(-175.247 -355.68)" fill="#f02523"/>
      <path id="Path_21" data-name="Path 21" d="M265.214,323.252a.551.551,0,0,0-.551.551v10.383a.551.551,0,0,0,.551.551h3.56a.551.551,0,0,0,.551-.551V323.8a.551.551,0,0,0-.551-.551Zm3.009,10.383h-2.459v-9.282h2.459Z" transform="translate(-250.127 -299.52)" fill="#f02523"/>
      <path id="Path_22" data-name="Path 22" d="M349.59,285.893a.551.551,0,0,0,.551-.551V283.4a.551.551,0,0,0-.551-.551h-3.559a.551.551,0,0,0-.551.551v13.349a.551.551,0,0,0,.551.551h3.559a.551.551,0,0,0,.551-.551v-8.837a.551.551,0,0,0-1.1,0V296.2h-2.458V283.951h2.458v1.391A.551.551,0,0,0,349.59,285.893Z" transform="translate(-325.011 -262.084)" fill="#f02523"/>
      <path id="Path_23" data-name="Path 23" d="M180.1,32.325H168.238a.551.551,0,0,0-.551.551v2.373a.551.551,0,0,0,.551.551H180.1a.551.551,0,0,0,.551-.551V32.876A.551.551,0,0,0,180.1,32.325Zm-.551,2.373H168.788V33.426h10.765V34.7Z" transform="translate(-160.271 -29.952)" fill="#f02523"/>
      <path id="Path_24" data-name="Path 24" d="M260.027,97.986H249.051a.551.551,0,1,0,0,1.1h10.976a.551.551,0,0,0,0-1.1Z" transform="translate(-235.151 -90.792)" fill="#f02523"/>
      <path id="Path_25" data-name="Path 25" d="M260.027,131.658H249.051a.551.551,0,1,0,0,1.1h10.976a.551.551,0,1,0,0-1.1Z" transform="translate(-235.151 -121.992)" fill="#f02523"/>
      <path id="Path_26" data-name="Path 26" d="M260.577,165.881a.551.551,0,0,0-.551-.551H249.051a.551.551,0,1,0,0,1.1h10.976A.551.551,0,0,0,260.577,165.881Z" transform="translate(-235.151 -153.192)" fill="#f02523"/>
      <path id="Path_27" data-name="Path 27" d="M256.128,199.553a.551.551,0,0,0-.551-.551h-6.526a.551.551,0,0,0,0,1.1h6.526A.551.551,0,0,0,256.128,199.553Z" transform="translate(-235.151 -184.392)" fill="#f02523"/>
      <path id="Path_28" data-name="Path 28" d="M122.691,248.5H112.679a.551.551,0,0,0,0,1.1h10.012a.551.551,0,0,0,0-1.1Z" transform="translate(-108.791 -230.256)" fill="#f02523"/>
      <path id="Path_29" data-name="Path 29" d="M123.241,282.723a.551.551,0,0,0-.551-.551H112.679a.551.551,0,1,0,0,1.1h10.012A.551.551,0,0,0,123.241,282.723Z" transform="translate(-108.791 -261.456)" fill="#f02523"/>
      <path id="Path_30" data-name="Path 30" d="M118.792,316.395a.551.551,0,0,0-.551-.551h-5.562a.551.551,0,1,0,0,1.1h5.562A.551.551,0,0,0,118.792,316.395Z" transform="translate(-108.791 -292.656)" fill="#f02523"/>
    </g>
  </g>
</svg>
