<svg xmlns="http://www.w3.org/2000/svg" width="362.899" height="350.089" viewBox="0 0 362.899 350.089">
  <g id="Group_99" data-name="Group 99" transform="translate(-1503.985 -1283.911)">
    <path id="Subtraction_1" data-name="Subtraction 1" d="M50.3,143.8A74.485,74.485,0,0,1,0,124.468v-7.7a69.245,69.245,0,0,0,50.3,21.555c37.612,0,68.211-29.8,68.211-66.423S87.907,5.478,50.3,5.478A69.245,69.245,0,0,0,0,27.032v-7.7A75.3,75.3,0,0,1,78.993,5.65a73.592,73.592,0,0,1,23.432,15.408,71.6,71.6,0,0,1,15.8,22.854,70.512,70.512,0,0,1,0,55.974,71.58,71.58,0,0,1-15.8,22.855A73.576,73.576,0,0,1,78.993,138.15,74.871,74.871,0,0,1,50.3,143.8Z" transform="translate(1712.998 1356.167) rotate(60)" fill="#548235"/>
    <path id="Subtraction_2" data-name="Subtraction 2" d="M75.906,214.559A113.144,113.144,0,0,1,0,185.714V174.225a105.081,105.081,0,0,0,75.906,32.161c56.764,0,102.944-44.46,102.944-99.108s-46.18-99.1-102.944-99.1A105.082,105.082,0,0,0,0,40.334V28.844A114.694,114.694,0,0,1,119.216,8.431a111.185,111.185,0,0,1,35.364,22.99,106.823,106.823,0,0,1,23.846,34.1,104.109,104.109,0,0,1,0,83.516,106.8,106.8,0,0,1-23.846,34.1,111.17,111.17,0,0,1-35.364,22.991A114.134,114.134,0,0,1,75.906,214.559Z" transform="translate(1731.644 1317.391) rotate(60)" fill="#0070c0"/>
    <path id="Subtraction_3" data-name="Subtraction 3" d="M98.742,278.47a151.472,151.472,0,0,1-27.893-2.584,148.386,148.386,0,0,1-26.093-7.425,146.872,146.872,0,0,1-23.785-11.78A145.15,145.15,0,0,1,0,241.034V226.121c25.312,26.527,61.3,41.741,98.742,41.741,73.838,0,133.91-57.7,133.91-128.628S172.581,10.608,98.742,10.608C61.3,10.608,25.313,25.822,0,52.348V37.436A145.132,145.132,0,0,1,20.971,21.789a146.826,146.826,0,0,1,23.785-11.78A148.373,148.373,0,0,1,70.849,2.584a151.829,151.829,0,0,1,57.061.245,148.237,148.237,0,0,1,27.168,8.113,146.668,146.668,0,0,1,24.584,12.838,144.7,144.7,0,0,1,21.42,17,141.535,141.535,0,0,1,17.673,20.607A137.675,137.675,0,0,1,232.1,85.038a134.644,134.644,0,0,1,0,108.394,137.689,137.689,0,0,1-13.344,23.651,141.535,141.535,0,0,1-17.673,20.606,144.7,144.7,0,0,1-21.42,17,146.638,146.638,0,0,1-24.584,12.837,148.2,148.2,0,0,1-27.168,8.113A151.36,151.36,0,0,1,98.742,278.47Z" transform="translate(1745.148 1283.911) rotate(60)" fill="red"/>
  </g>
</svg>
