<svg xmlns="http://www.w3.org/2000/svg" width="61" height="61" viewBox="0 0 61 61">
  <g id="Group_773" data-name="Group 773" transform="translate(-64 -624)">
    <circle id="Ellipse_83" data-name="Ellipse 83" cx="30.5" cy="30.5" r="30.5" transform="translate(64 624)" fill="#a8ff78" opacity="0.47"/>
    <path id="conveyor" d="M38.212,33.079V27.24A3.213,3.213,0,0,0,40.778,24.1a5.781,5.781,0,0,0-4.542-5.641,2.568,2.568,0,0,0-1.873-1.966V8.7h1.925A1.284,1.284,0,0,0,37.57,7.416V6.774h.642a1.925,1.925,0,0,0,0-3.85H37.57V2.283A1.284,1.284,0,0,0,36.287,1H31.155a1.284,1.284,0,0,0-1.283,1.283v.642H19.606A1.927,1.927,0,0,0,17.681,1h-7.7A1.927,1.927,0,0,0,8.057,2.925V9.982H5.148l-2.865,4.3V35.02a3.2,3.2,0,0,0,1.925,5.758H37.57a3.208,3.208,0,0,0,0-6.416H26.663v-7.7H25.38V14.279l-2.865-4.3h-2.91V6.774H29.871v.642A1.284,1.284,0,0,0,31.155,8.7h1.925v7.79a2.568,2.568,0,0,0-1.873,1.966A5.781,5.781,0,0,0,26.663,24.1,3.214,3.214,0,0,0,29.23,27.24v5.839ZM18.323,6.133H9.341V4.85h8.982ZM9.982,2.283h7.7a.643.643,0,0,1,.642.642v.642H9.341V2.925A.643.643,0,0,1,9.982,2.283ZM2.283,37.57a1.927,1.927,0,0,1,1.925-1.925H6.791a3.143,3.143,0,0,0,0,3.85H4.208A1.927,1.927,0,0,1,2.283,37.57Zm7.7-9.624h1.283V29.23H9.982Zm2.566,2.566V27.947h1.283v6.416H7.416V27.947H8.7v2.566ZM34.362,37.57a1.925,1.925,0,1,1-1.925-1.925A1.927,1.927,0,0,1,34.362,37.57ZM29.888,39.5h-2.6a3.144,3.144,0,0,0,0-3.85h2.6a3.144,3.144,0,0,0,0,3.85ZM26.663,37.57a1.925,1.925,0,1,1-1.925-1.925A1.927,1.927,0,0,1,26.663,37.57ZM22.189,39.5h-2.6a3.144,3.144,0,0,0,0-3.85h2.6a3.144,3.144,0,0,0,0,3.85ZM18.964,37.57a1.925,1.925,0,1,1-1.925-1.925A1.927,1.927,0,0,1,18.964,37.57Zm-11.549,0A1.925,1.925,0,1,1,9.341,39.5,1.927,1.927,0,0,1,7.416,37.57Zm4.474-1.925h2.6a3.144,3.144,0,0,0,0,3.85h-2.6a3.144,3.144,0,0,0,0-3.85ZM39.5,37.57A1.927,1.927,0,0,1,37.57,39.5H34.987a3.143,3.143,0,0,0,0-3.85H37.57A1.927,1.927,0,0,1,39.5,37.57ZM18.964,34.362V27.947h1.283v2.566H24.1V27.947H25.38v6.416Zm2.566-6.416h1.283V29.23H21.531Zm-3.85-1.283v7.7H15.115v-7.7H6.133v7.7H4.208a3.2,3.2,0,0,0-.642.065V15.115H24.1V26.663ZM23.54,13.832H4.123l1.711-2.566H21.829Zm-14.2-3.85V7.416h8.982V9.982ZM19.606,5.491V4.208H29.871V5.491ZM38.212,4.208a.642.642,0,0,1,0,1.283H37.57V4.208ZM31.155,2.283h5.133V7.416H31.155ZM36.929,31.8H30.513V25.38H31.8v2.566h3.85V25.38h1.283Zm-3.85-6.416h1.283v1.283H33.079Zm3.069-5.622A4.494,4.494,0,0,1,39.5,24.1,1.922,1.922,0,0,1,38.212,25.9V24.1h-3.85V21.44a2.56,2.56,0,0,0,1.786-1.682Zm-2.428-2.077a1.283,1.283,0,1,1-1.283,1.283A1.284,1.284,0,0,1,33.721,17.681ZM27.947,24.1a4.494,4.494,0,0,1,3.347-4.339,2.56,2.56,0,0,0,1.786,1.682V24.1H29.23V25.9A1.922,1.922,0,0,1,27.947,24.1ZM33.721,2.925A1.925,1.925,0,1,0,35.646,4.85,1.927,1.927,0,0,0,33.721,2.925Zm0,2.566a.642.642,0,1,1,.642-.642A.643.643,0,0,1,33.721,5.491ZM4.85,25.38h7.7V16.4H4.85Zm1.283-7.7h5.133V24.1H6.133Zm9.624,2.566a1.925,1.925,0,1,0-1.925-1.925A1.927,1.927,0,0,0,15.756,20.248Zm0-2.566a.642.642,0,1,1-.642.642A.643.643,0,0,1,15.756,17.681Zm5.133,2.566a1.925,1.925,0,1,0-1.925-1.925A1.927,1.927,0,0,0,20.889,20.248Zm0-2.566a.642.642,0,1,1-.642.642A.643.643,0,0,1,20.889,17.681Zm-7.057,3.85h8.982v1.283H13.832Zm0,2.566h1.283V25.38H13.832Zm2.566,0h3.85V25.38H16.4Zm5.133,0h1.283V25.38H21.531Z" transform="translate(74 634)" fill="#24b685"/>
  </g>
</svg>
