<svg xmlns="http://www.w3.org/2000/svg" width="53.211" height="46.971" viewBox="0 0 53.211 46.971">
  <g id="vegan" transform="translate(62.356 -83.63) rotate(30)">
    <path id="Path_1" data-name="Path 1" d="M45.132,106.209a1.378,1.378,0,0,0-1.241-1.241c-.368-.035-9.078-.8-14.15,4.268a12.924,12.924,0,0,0-2.542,3.69,21.209,21.209,0,0,0-5.31-10.1c-3.061-3.061-7.6-5.1-13.121-5.89a34.457,34.457,0,0,0-7.443-.282A1.378,1.378,0,0,0,.085,97.893a34.47,34.47,0,0,0,.282,7.443c.792,5.522,2.828,10.06,5.89,13.121s7.6,5.1,13.121,5.89a36.826,36.826,0,0,0,5.171.367c1.2,0,2.006-.062,2.219-.08.182.016.736.057,1.542.057,2.821,0,8.725-.5,12.554-4.33C45.935,115.288,45.167,106.578,45.132,106.209Z" transform="translate(0 0)" fill="#bffb32"/>
    <g id="Group_72" data-name="Group 72" transform="translate(13.123 104.908)">
      <path id="Path_2" data-name="Path 2" d="M172.259,244.954a1.378,1.378,0,0,0-1.949,0l-7.561,7.561L151.03,240.8a1.378,1.378,0,0,0-1.949,1.949L161.7,255.36a1.374,1.374,0,0,0,.974.4c.026,0,.052,0,.078,0s.052,0,.078,0a1.373,1.373,0,0,0,.974-.4l8.458-8.458A1.378,1.378,0,0,0,172.259,244.954Z" transform="translate(-148.678 -236.037)" fill="#8cdc52"/>
      <path id="Path_3" data-name="Path 3" d="M324.408,191.119c-.368-.035-9.078-.8-14.15,4.268a12.925,12.925,0,0,0-2.542,3.69c-.013-.055-.028-.109-.041-.164v11.9c.276.015.668.03,1.151.03,2.821,0,8.725-.5,12.554-4.33,5.072-5.072,4.3-13.782,4.268-14.15A1.378,1.378,0,0,0,324.408,191.119Z" transform="translate(-293.64 -191.058)" fill="#8cdc52"/>
    </g>
    <path id="Path_4" data-name="Path 4" d="M315.274,287.905l-7.561,7.562-.038-.038v3.284l.038,0c.026,0,.052,0,.078,0a1.373,1.373,0,0,0,.974-.4l8.458-8.458a1.378,1.378,0,1,0-1.948-1.949Z" transform="translate(-280.517 -174.081)" fill="#5dc378"/>
  </g>
</svg>
